<svg xmlns="http://www.w3.org/2000/svg" viewBox="0 0 2502.87 1377.45"><defs><style>.cls-1{fill:#fbecdb;}.cls-2{fill:#f9ddbf;}.cls-3{fill:#fff3e9;}.cls-4{fill:#ed9f4a;}.cls-5{fill:#efcdaf;}.cls-6{fill:#e58638;}.cls-7{fill:#a8d29f;}.cls-8{fill:#e8945b;}.cls-9{fill:#163560;}.cls-10{fill:#2b478b;}.cls-11{fill:#233862;}.cls-12{fill:#ffb27d;}.cls-13{fill:#f99746;}.cls-14{fill:#ed7d2b;}.cls-15{fill:#2c3a64;}.cls-16{fill:#aa443e;}.cls-17{fill:#ed985f;}.cls-18{fill:#739af0;}.cls-19{fill:#4a82d3;}.cls-20{fill:#ebf2f9;}.cls-21{fill:#1f396d;}.cls-22{fill:#c65447;}.cls-23{fill:#b2443b;}.cls-24{fill:#35488b;}.cls-25{fill:#fff;}.cls-26{fill:#0f2949;}.cls-27{fill:#c8d9e8;}.cls-28{fill:#2e3552;}</style></defs><title>Family</title><g id="Layer_2" data-name="Layer 2"><g id="_Layer_" data-name="&lt;Layer&gt;"><path class="cls-1" d="M638.62,1370.58S229,1000.24,459.7,499.67C570.36,259.51,865.08,203.15,954.41,252.29c117.8,64.81,274-110.26,611.73-230.45C1820-68.5,2394.48,115.7,2207.37,682.27,2093.88,1026,2530.76,935.55,2463,1374.78Z"/><rect class="cls-2" x="458.38" y="926.32" width="325.13" height="443.98"/><rect class="cls-3" x="783.51" y="926.32" width="252.57" height="444"/><polygon class="cls-4" points="866.16 736.93 759.63 956.25 435.99 956.25 604.72 737.73 866.16 736.93"/><polygon class="cls-2" points="878.93 736.93 772.4 956.25 448.76 956.25 617.49 737.73 878.93 736.93"/><path class="cls-5" d="M620.4,846.59h-6.8a41.81,41.81,0,0,0-41.81,41.81V994.65h89.06V887A40.45,40.45,0,0,0,620.4,846.59Z"/><polygon class="cls-4" points="1071.27 968.42 777.49 968.42 603.86 736.93 701.61 736.95 892.57 736.98 1071.27 968.42"/><polygon class="cls-6" points="1071.27 968.42 1017.44 968.42 701.61 736.95 892.57 736.98 1071.27 968.42"/><polygon class="cls-4" points="582.21 1017.51 506.37 1173.66 275.95 1173.66 396.08 1018.08 582.21 1017.51"/><polygon class="cls-2" points="589.12 1017.51 513.27 1173.66 282.86 1173.66 402.98 1018.08 589.12 1017.51"/><path class="cls-2" d="M512.77,1173.66v167.22H436.49c-2.56-.37-3.85-.63-3.85-.63s-38.93,0-85-15.79c-21.12-7.25-43.73-17.82-64.79-33.24V1173.66Z"/><path class="cls-3" d="M707.46,1173.66v135.93q-20.87,6.08-40.32,10.86a832.15,832.15,0,0,1-116.22,20.43H512.77V1173.66Z"/><polygon class="cls-4" points="728.85 1182.89 519.71 1182.89 396.08 1018.08 458.38 1018.09 601.63 1018.12 728.85 1182.89"/><path class="cls-5" d="M444.51,1208.32v132.56h-8c-2.56-.37-3.85-.63-3.85-.63s-38.93,0-85-15.79V1209.92a49.24,49.24,0,0,1,49.23-49.23,47.65,47.65,0,0,1,47.63,47.63Z"/><circle class="cls-5" cx="396.08" cy="1104.77" r="10.87"/><polygon class="cls-6" points="728.85 1182.89 689.16 1182.89 458.38 1018.09 601.63 1018.12 728.85 1182.89"/><path class="cls-7" d="M1773,1370.32c-166.88-49.47-369.17-95-535.35-55.15s-230,93.5-412.52-30c-16.56-11.21-31.84-19.52-46.14-25.46,32.22-5.84,75.28-16,56.19-26.36-19.9-10.77-53.19,7.63-72.44,20.49-4.82-1.48-9.53-2.67-14.14-3.62,44-31.48,121.94-91,85.67-93-35.78-2-79,57.78-100.16,90.84-3.62-.35-7.19-.56-10.71-.61-1.87-17.18-8.74-47.61-34-49.5-25.82-1.94,4.66,31.61,22.92,49.78-98.25,6.54-164.76,118.08-371.07,47.69-31.69-10.81-64.41-10.16-95.24-3.49-19.4-42.86-77-159.42-124.65-147.29s70.29,113,115,149.58q-8,2.07-15.76,4.61c-27.08-20-77.88-52.26-106.89-38.08-28.37,13.85,42.74,33.68,89,44.53-61.72,24.49-107.72,65-107.72,65Z"/><path class="cls-7" d="M2384.87,1370.37h-194.1c-10.49-8.8,7.11-28.88,25.54-30.25,8-.59,18.09,1.06,29.63,3.51,2.67-35.5,17.94-194.93,75.4-188.53,64.63,7.19,0,70.22-18.27,107.55-13.53,27.64-27.82,67.31-34.33,86,5.25,1.14,10.67,2.28,16.23,3.29,8.54-26.31,40.42-114.8,81-109.65,47.61,6,28.46,41.51-5.26,62.57-24.77,15.48-55.17,37.51-69.61,48.13a206.3,206.3,0,0,0,38,3C2362.39,1355.27,2378.63,1365.11,2384.87,1370.37Z"/><path class="cls-8" d="M1363.42,280.05s46.19,21.85,56.69,19.1,50.37-9.8,56-7.32c0,0,6.35,10.13,1.56,16.79S1434.05,333.31,1420,334s-67.21-9-78.5-17.8Z"/><path class="cls-8" d="M1474.68,292s17.81-7.39,23.64.87,9.14,16.63,8.42,20.86-12.76,6.1-17.57,2.81-16.71-7.89-16.71-7.89Z"/><path class="cls-9" d="M1559.82,1328.85s-9.84,15.91-10,34.36a7.41,7.41,0,0,0,7.42,7.46h61.29a9.12,9.12,0,0,0,8.86-11.34c-2.86-11.22-9-28.18-21.21-38.48C1586.6,1304.43,1559.82,1328.85,1559.82,1328.85Z"/><path class="cls-9" d="M1462.83,1312.57s-3.53,56.83-14.52,57.65c-1.46.1-55.77.1-55.77.1h-70s1.18-17.1,21.44-20.63,54.18-17.78,66.46-44.56C1423.3,1277,1462.83,1312.57,1462.83,1312.57Z"/><path class="cls-10" d="M1492.17,961.46c-2.45,31.57-2.76,56.5.47,68.31,14.46,52.86-26.05,291.55-26.05,291.55-29.87,14.28-72.28-.16-72.28-.16,2.57-33.06-13.15-329-27.77-509.6-6.13-75.81-10.72-128.85-10.72-128.85l178.91-20.83S1500.65,851.8,1492.17,961.46Z"/><path class="cls-11" d="M1534.73,661.88s-34.08,189.92-42.56,299.58l-125.63-149.9c-6.13-75.81-10.72-128.85-10.72-128.85Z"/><path class="cls-10" d="M1447,702.38s90.57,527.35,106.15,629.47c0,0,33.91,9.47,68.55-5.2,0,0,4.48-245.06-7.38-318.88s6.32-302-12.79-323.25S1447,702.38,1447,702.38Z"/><path class="cls-12" d="M1456.3,252.69s-7,46.87-3.91,60.86,49.61,21.61,69.08,10.05,13.62-15.87,13.62-15.87-3-53.65-5.7-57.48S1456.3,252.69,1456.3,252.69Z"/><path class="cls-13" d="M1606.13,538.69c6.16-58.88,4.58-103.18-1.22-136.51-17-97.83-70.3-101.09-70.3-100.46,0,13.17-28.32,25.32-51.16,23.82-19.26-1.26-31.75-15.89-31.75-23.82,0-.06-.36-.06-1,0-5,0-27.83.46-49.42,4.2-15.66,2.7-30.65,7.15-37.69,14.48-3.63,3.78-16.59,14.37-33.23,28.77-42.39,36.65-108.67,98-105.74,134.58,0,0,81.93,60.16,133.85,22.45-2.83,97.91-20.6,201.61-16.24,201.54,0,0,28.94,25.06,116.87,25.06,48.07,0,82.84-4.12,107-8.89,32.87-6.48,46-14.14,46-14.14C1619.33,709.67,1604,559,1606.13,538.69Z"/><path class="cls-14" d="M1612,709.78s-13.08,7.66-46,14.14c-45.43-20.12-135.6-72.13-139.13-159.45-4.67-116.17,137.15-185.34,137.15-185.34s19,10.58,40.83,23.05c5.8,33.33,7.38,77.63,1.22,136.51C1604,559,1619.33,709.67,1612,709.78Z"/><path class="cls-8" d="M1455.56,258s18.06,25.46,37.16,25.69,38.59-25.29,38.59-25.29Z"/><path class="cls-12" d="M1453.82,256.7c5,3.94,16.17,9.37,25.31,13a31.23,31.23,0,0,0,21.64.46c10.54-3.63,26.49-9.31,30.54-11.75,9.56-5.8,8.94-17.53,9.43-33.84.59-19.31,2.54-34.48.38-45.61-2.56-13.32-11-20.89-34.64-22.95-43.39-3.77-61.47,7.1-62.23,21.65-.19,3.9-.38,7.63-.5,11.16C1442,234.15,1445.6,250.23,1453.82,256.7Z"/><path class="cls-15" d="M1444,183a18.23,18.23,0,0,1,20.46-6.37c13.35,4.11,14.72,15.52,37.55,13.69s28.3-12.62,32.41-7.22,6.48,37.31,6.48,37.31,45.89-104.64-47.12-104.64c0,0-95.85-5.79-49.78,100.57Z"/><path class="cls-12" d="M1275,282.08l.12.07C1275,282.2,1275,282.08,1275,282.08Z"/><path class="cls-8" d="M1489.06,603.88a52.35,52.35,0,0,1-30,9.58s-18.16-20-33.46-39.36c-9.91-12.54-18.61-24.8-20.41-31.17-4.56-16.2-90-20.76-100.45-32.18s42.44-40,42.44-40S1433.94,484,1447,501c5.19,6.79,12.91,24.46,20.33,43.29C1478.53,572.77,1489.06,603.88,1489.06,603.88Z"/><path class="cls-14" d="M1367.68,366.13s16.44-31.91,24.55-31-18.66,66.05-21.09,97.7S1367.68,366.13,1367.68,366.13Z"/><path class="cls-12" d="M1419.11,585.81a481.1,481.1,0,0,1-28.07,56,3.33,3.33,0,0,1-.2.33h-.26c-2.77,0-26.58-.54-28.91-10.1,0,0-.76-33.09.55-59.37.6-11.75,1.6-22.13,3.27-27.61,0,0-129.14-.87-126.87-37.4s69.78-55.85,108.59-36.91c0,0,51.47,18.7,78.55,43.4C1439.07,526.25,1430.89,557.33,1419.11,585.81Z"/><path class="cls-10" d="M1242.47,456.4s-17.2,25.27-13.17,48.85,53.09,36.18,87.42,37.68c0,0,98.19-22.5,83-61.64C1396.23,472.41,1242.47,456.4,1242.47,456.4Z"/><path class="cls-16" d="M1278.12,145.85s-15.59-31.92-53.26-12.4-1,93.05-20.76,111.43,7.16,30.41,3.15,43.59,7.45,28.17,33.81,26.4,54.12-.34,66-23.4,9.21-73.8,4.6-80.93S1278.12,145.85,1278.12,145.85Z"/><path class="cls-12" d="M1339.16,320.8l-64.05-38.65c.36-.14,1.65-2.08,6.44-15.93a77.91,77.91,0,0,0,3.66-15.1c0-.4.1-.79.14-1.18a42,42,0,0,0,.18-9.32l14,5.08,26,9.4c-.31,6.58.62,11.21,2,14.38,3.39,7.72,9.7,7.77,9.88,7.77Z"/><path class="cls-17" d="M1327.53,269.48a48.09,48.09,0,0,1-42.32-18.36c-.46-.6-.7-.93-.7-.93l.84-.25c2-.61,7.57-2.27,14.21-4.24l26,9.4C1325.2,261.68,1326.13,266.31,1327.53,269.48Z"/><path class="cls-12" d="M1328.78,260.48s-55.72,6.12-56.86-31.56-9.37-54.92,29.18-58.27,47.66,10.52,49.93,23.27C1358.13,233.74,1344.48,258.79,1328.78,260.48Z"/><path class="cls-16" d="M1304.09,189.05c-19.71-5-12.17,29.94-17.16,27.55-5.57-2.68-15.15-2.64-13.64,4.09s3.7,9.14,4.83,13.34,0,12.53-4.59,10.85-47.22-50.37-17.12-88.29S1376.29,142,1348,181.7C1343.05,188.67,1318.13,192.6,1304.09,189.05Z"/><path class="cls-18" d="M1375.65,470.69s-16.74,8.88-43.1,8.46c-16.79-.25-52.46-7.55-75.38-15.83-13.07-4.7-22-9.73-20.93-13.95,1.55-6.08,12.74-52.78,23.08-96,9.46-39.52,18.2-76.12,18.2-76.12s26.1,18.54,41.3,12,13.26-13.94,13.26-13.94,17.92-2.19,22.78-1.62c7.76.91,35.16,10.9,35.16,10.9s3.6,10.12-6,25.92c-7.91,13.09-15.61,15.62-15.61,15.62S1390.86,396.74,1375.65,470.69Z"/><path class="cls-12" d="M1291.8,407.65s16.1-3,22.39,1.11,8.16,10.57,3.62,13.21c-14.2,8.25-28.6-.87-28.6-.87Z"/><path class="cls-19" d="M1257.17,463.32c-13.07-4.7-22-9.73-20.93-13.95,1.55-6.08,12.74-52.78,23.08-96,3.06-5.6,5-8.95,5-8.95S1283.93,434.12,1257.17,463.32Z"/><path class="cls-12" d="M1278.17,282.29s-49.57,10.5-69.11,87.55a23.34,23.34,0,0,0,5.27,21.36c9,10,28.8,24.53,74.88,29.9,5,.58,5.71-12.18,5.71-12.18-.5,1-31.3-19.9-44.41-31.15-2.37-2-2.27-6.3-.56-8.91,4.43-6.76,11.86-18.45,14.36-24.44C1268,335.67,1292,286.26,1278.17,282.29Z"/><path class="cls-18" d="M1277.53,277.25s-29.15,2.08-52.91,33.76c0,0,8,29.14,45.79,36.92C1270.41,347.93,1293.68,295.46,1277.53,277.25Z"/><path class="cls-20" d="M1419.11,585.81a481.1,481.1,0,0,1-28.07,56l-.46.33c-2.77,0-26.58-.54-28.91-10.1,0,0-.76-33.09.55-59.37C1366,576.26,1380.64,587.11,1419.11,585.81Z"/><path class="cls-20" d="M1489.06,603.88a52.35,52.35,0,0,1-30,9.58s-18.16-20-33.46-39.36c17.22-7.44,35.4-23.85,41.67-29.8C1478.53,572.77,1489.06,603.88,1489.06,603.88Z"/><path class="cls-16" d="M1427.59,677.82a5.48,5.48,0,0,1-6.51,4.34c-7.13-1.45-20-4.21-25.38-6.16-7.59-2.76-22.15-11.36-29.74-14.12-2.6-1-8.87-3.48-12.93-5.13a4.52,4.52,0,0,1-2.64-5.46A96,96,0,0,1,1358,632.2a6.93,6.93,0,0,1,3.17-2.81,29.51,29.51,0,0,0,18.45,6.66,40.31,40.31,0,0,0,16.64-3.5c.51,1.06,10.87,21.93,18.19,24.6C1421.09,659.54,1429.72,665.84,1427.59,677.82Z"/><path class="cls-16" d="M1535.92,604.12a5.47,5.47,0,0,1-2.41,7.44c-6.51,3.28-18.34,9.11-23.75,10.89-7.67,2.53-24.42,4.8-32.09,7.33-2.63.87-9.12,2.76-13.33,4a4.53,4.53,0,0,1-5.46-2.64,96.58,96.58,0,0,1-5.81-19.74,7,7,0,0,1,.74-4.17,29.45,29.45,0,0,0,18.62-6.19A40.32,40.32,0,0,0,1483.32,588c1.06.52,22.11,10.49,29.52,8C1519.5,593.81,1530.18,593.4,1535.92,604.12Z"/><path class="cls-13" d="M1431.44,562.38s-3.71,21.54-17.72,31.45c0,0-56.87-7.82-109.81-21.21-38.92-9.84-75.73-22.69-86.26-37.65-24.86-35.3,13-78.26,13-78.26s73,35.23,152.06,78.39C1398.91,543.94,1415.33,553.12,1431.44,562.38Z"/><path class="cls-12" d="M1345.88,593.83s-16.89,1.37-23.28,7.76-16.07,25-9.18,32.35,39.76-8.78,40.68-11.43S1345.88,593.83,1345.88,593.83Z"/><path class="cls-14" d="M1431.44,562.38s-3.71,21.54-17.72,31.45c0,0-56.87-7.82-109.81-21.21,24.89-21.64,57.41-32.41,78.81-37.52C1398.91,543.94,1415.33,553.12,1431.44,562.38Z"/><path class="cls-13" d="M1624.39,330.1c-11.37-27-86.14-28-86.14-28-38,99.82-47.18,165.29-57.24,207.37a21.59,21.59,0,0,0-4.55,0S1423,530.28,1343.6,588c0,0-8.31,22.78,6.61,41.43,0,0,136.86-30.21,175.08-52.62l.06,0,1.15-.74c.58-.36,1.13-.71,1.66-1.07C1652.47,494.21,1640.65,368.73,1624.39,330.1Z"/><path class="cls-12" d="M1306.3,809.05s38.38,13.26,33,57.46c0,0-3.55,17.94-14.59,10s-5.87-6.49-21.65-17.37-26.07-28-24.28-41.65Z"/><path class="cls-18" d="M1308.06,811.89l-22.73,27.58A4.56,4.56,0,0,1,1281,841c-21.3-3.91-94.63-51.17-118.65-70.46a71.23,71.23,0,0,1-5.94-5.2c-8.95-9.12-39.84-54.14-61.76-94.24-12.62-23.09-22.26-44.55-23-56.57-2.73-42.93,19.85-103,19.85-103,66.79,23.24,73.82,76.57,73.82,76.57l37,137.81,104.88,78.39A5.22,5.22,0,0,1,1308.06,811.89Z"/><path class="cls-19" d="M1162.31,770.58a71.23,71.23,0,0,1-5.94-5.2c-8.95-9.12-39.84-54.14-61.76-94.24-2.83-24.23-.89-47,9.1-62.85C1103.71,608.29,1160.49,708.2,1162.31,770.58Z"/><path class="cls-12" d="M1123.83,1167.61,1112.48,1215l-7,29.31-23.39,97.55s-20,6.17-40.84,0a355.8,355.8,0,0,1-7.93-72.54c-.12-21.06,1.82-44.31,8-66.26a152.62,152.62,0,0,1,9.75-25.91C1084,1109.7,1123.83,1167.61,1123.83,1167.61Z"/><path class="cls-10" d="M1143.22,1370.32H1033.28s-1.73-16.63,3.11-32.54a56.08,56.08,0,0,1,2.61-7s24.54,5.56,45.71,0c0,0,19.89,17,31.92,22.14S1141.94,1355.3,1143.22,1370.32Z"/><path class="cls-8" d="M1112.48,1215l-7,29.31a169.44,169.44,0,0,1-72.16,25c-.12-21.06,1.82-44.31,8-66.26,10.11-5.13,20.4-7.82,29.17-6.29C1092.24,1200.54,1105.21,1208.51,1112.48,1215Z"/><path class="cls-21" d="M1086.12,1370.32h-52.84s-1.73-16.63,3.11-32.54C1049.65,1341.91,1076.64,1352.26,1086.12,1370.32Z"/><path class="cls-12" d="M1036.2,1167.61,1024.84,1215l-7,29.31-23.39,97.55s-20,6.17-40.84,0a355.8,355.8,0,0,1-7.93-72.54c-.12-21.06,1.82-44.31,8-66.26a152.62,152.62,0,0,1,9.75-25.91C996.38,1109.7,1036.2,1167.61,1036.2,1167.61Z"/><path class="cls-10" d="M951.37,1330.78s24.54,5.57,45.7,0c0,0,19.9,17,31.93,22.15s25.32,2.37,26.58,17.39H945.65S943.36,1348.38,951.37,1330.78Z"/><path class="cls-8" d="M1024.84,1215l-7,29.31a169.44,169.44,0,0,1-72.16,25c-.12-21.06,1.82-44.31,8-66.26,10.11-5.13,20.4-7.82,29.16-6.29C1004.61,1200.54,1017.58,1208.51,1024.84,1215Z"/><path class="cls-22" d="M1146.77,1211.83a22.4,22.4,0,0,1-21.63,16.55H948.87a22.78,22.78,0,0,1-22.71-24.52c1.85-24,8.46-63.22,11.35-89.7,1.2-11,1.75-19.8,1-24.4C920.77,972,905.84,833.37,907.65,806.86c.26-3.73.44-5.66.44-5.66s12.83-1.08,32.36-1.84c56.77-2.24,170.08-1.85,188.91,35.27,19.17,37.81,30.76,288.89,30.76,288.89C1162.92,1147,1153,1188.71,1146.77,1211.83Z"/><path class="cls-23" d="M937.51,1114.16c1.2-11,1.75-19.8,1-24.4C920.77,972,905.84,833.37,907.65,806.86c.26-3.73.44-5.66.44-5.66s12.83-1.08,32.36-1.84c29.37,17.3,48.48,46.77,48.48,46.77S983,1066.44,937.51,1114.16Z"/><path class="cls-23" d="M1047,316.27c-14.08-3.52-22.26,7.58-22.26,20.64a23.66,23.66,0,0,0,23.66,23.66c13.06,0,23.65-15.14,23.65-28.2S1059.64,319.44,1047,316.27Z"/><path class="cls-22" d="M1039.69,451.74s-73.35-66.07-7-112.84c0,0,19.82-5.28,29.89-3.39,0,0,36.1-10.56,57.22,14s30.3,42.24,12.2,64.12S1039.69,451.74,1039.69,451.74Z"/><path class="cls-12" d="M955.52,850.73s18.11,36.34-16.7,64.11c0,0-15.09,10.32-17.41-3.09s.36-8.74-3.28-27.56,1-38.27,11.84-46.73Z"/><path class="cls-12" d="M1099.78,451.12s-.9,9.9-2.58,23.27c-.82,6.53-1.82,13.89-3,21.34-.84,5.34-1.77,10.74-2.78,15.89l-22.71,76.7L1015.39,502s12.53-10.36,29.52-66.56c.16-.6.27-.92.27-.92Z"/><path class="cls-18" d="M1130.86,829.53c.69,8.62-1.5,10.19-1.5,10.19s-32.79,11.88-115.25,7.77q-13.4-.66-25.18-1.36c-53.15-3.14-81.57-6.41-81.57-6.41s-43.53-100.48,38.25-224.27a395.81,395.81,0,0,1,32.79-42.77c13.24-15.11,16.17-35.32,21.18-54.53,1.43-5.5-2.71-6.72-.64-11.91,0,0,14.91-4.22,16.45-4.22,8.47,7.46,19.64,22,47.37,24.84,18.75,2,26.09-8.61,28.76-14.94,7.15,2.58,14.56,7,20.62,9.95C1162.39,546,1167,592.79,1167,592.79s-46.18,151.84-49,170.8C1116.68,772,1127.28,785.14,1130.86,829.53Z"/><path class="cls-8" d="M1097.2,474.39c-.82,6.53-3.58,24.4-4.76,31.85-56.47-22-49.07-64.92-47.53-70.78.16-.6.27-.92.27-.92S1075.06,455.75,1097.2,474.39Z"/><path class="cls-12" d="M1109.3,482s-65.22,2.1-65.9-38.54-9.55-67.74,32.06-70.79,50,12.32,53.5,25.82S1126.25,480.38,1109.3,482Z"/><path class="cls-22" d="M1115,366.55s-4.09,67.85-83.61,60.57C1031.39,427.12,1033.09,333.16,1115,366.55Z"/><path class="cls-22" d="M1099.78,373.3s22.28,27.57,32.39,36.37C1132.17,409.67,1157,374.11,1099.78,373.3Z"/><path class="cls-22" d="M1099.78,373.3s20,33.8,30.13,42.6c0,0,27-41.79-30.13-42.6Z"/><path class="cls-19" d="M988.93,846.13c-53.15-3.14-81.57-6.41-81.57-6.41s-43.53-100.48,38.25-224.27C962.17,654,1001.21,757.18,988.93,846.13Z"/><path class="cls-18" d="M1015.39,502s-63.1,13-91.21,45.5c-21.54,24.94-45.1,146.89-45.1,167,0,19.26,22.13,121.63,35.95,141.26a4.57,4.57,0,0,0,4.22,1.94L954.78,854a5.21,5.21,0,0,0,4.61-6l-20-129.41,70.08-124.3S1050.83,545.32,1015.39,502Z"/><path class="cls-15" d="M1286.08,1335.29s5.34,10.43,17.19,13c7.46,1.62,13.84,5.51,17.82,11a7,7,0,0,1-5.59,11.07h-60.11a8.64,8.64,0,0,1-8.6-9.51c.44-4.45.91-9.64,1.12-13.62.44-8.68,9.14-15.67,9.14-15.67Z"/><path class="cls-24" d="M1299.69,1183.68c2.51,45.72-3.72,149.61-3.72,149.61s-4.19,11.59-30.66,14.35a79.29,79.29,0,0,1-26.94-2.2q-8-36.89-14.83-70.41c-32.67-160.31-45.42-259.33-45.42-259.33l129-30s-5.65,90.5-7.32,152.21C1299.27,1157.2,1299.15,1173.66,1299.69,1183.68Z"/><path class="cls-15" d="M1307.11,985.72s-5.65,90.5-7.32,152.21L1223.54,1275c-32.67-160.31-45.42-259.33-45.42-259.33Z"/><path class="cls-24" d="M1177.43,778.44s-49.91-22.72-87.67-2.85-14.68,183.92,39.32,199.82h0S1230.24,1007.75,1177.43,778.44Z"/><path class="cls-8" d="M1321.8,1024a4.34,4.34,0,0,0-.49-.64,84.21,84.21,0,0,1-4.67-9.83h0c10-49.15,3.28-77.57,3.28-77.57,1.19-14.31,9.74-114.28-9.94-160.59C1300.49,753,1284.59,753,1284.59,753s3.73,35.7,1.27,54.89c-2.26,17.61,14.54,182.69,17.31,209.67,0,0-.08,0-.09,0l.79,27.43,8.05-1.9a5.77,5.77,0,0,0,1-.36h0a5.7,5.7,0,0,0,2.45-2.15l6.51-10.3a5.8,5.8,0,0,0-.09-6.29Zm-15.31-4.46.34-.2-.17.22S1306.57,1019.54,1306.49,1019.5Z"/><path class="cls-15" d="M1181.43,1335.29s5.34,10.43,17.19,13c7.46,1.62,13.84,5.51,17.82,11a7,7,0,0,1-5.59,11.07h-60.11a8.64,8.64,0,0,1-8.6-9.51c.44-4.45.91-9.64,1.12-13.62.44-8.68,9.14-15.67,9.14-15.67Z"/><path class="cls-24" d="M1223.25,569.73c-12.86,0-29,5.54-37.67,14-9.21,8.94-18.79,9.4-25.6,20-7.11,11-11.52,22.45-7.94,37.93,3.9,16.92,3.1,33.29,13.73,45.71,5.26,6.15,13.83,6.85,19.81,12.5,11,10.37,23.44,13.65,37.67,13.65,26.82,0,43.51-15.89,57.24-35.69,11-15.86,8.82-26.55,11.4-40.12C1300,594.92,1264.39,569.73,1223.25,569.73Z"/><path class="cls-12" d="M1261,741.89l-51.27,26.21-10.27-35.57s6.53-12.31,9.48-32.48a134.93,134.93,0,0,0,1.06-29.27l41.78,21.39a78.75,78.75,0,0,0-1.67,9.56c-.71,6.16-1,14.46.73,22.35C1252.36,730.85,1255.39,737.32,1261,741.89Z"/><path class="cls-24" d="M1142.23,999.63s-9.75,129.21-7.58,335.12a79.41,79.41,0,0,0,25.95,7.59c26.48,2.64,32.93-7.86,32.93-7.86s27.08-100.5,33.85-145.78c6.24-41.74,47.23-192.39,47.23-192.39Z"/><path class="cls-13" d="M1294.9,745.48c-4.56-2.14-18.89-7.93-40.4-11.47.22,7.38-1.71,14.31-14.65,16-17.21,2.24-32.59-9.5-40.38-17.49h0s-12.14,1.3-26.28,4.4a163.61,163.61,0,0,0-21.48,6.08c-8.27,3-15.41,6.83-19.22,11.5h0c-13.24,16.25-35,65.19-35,65.19s36.26,13.44,45.41,21.28l.21,1.75,5.68,47.13-16.91,93.87a14.68,14.68,0,0,0-.22,2.45,13.84,13.84,0,0,0,10.59,13.44s1.46.24,4.13.61c17.92,2.52,90.66,11.19,147.7-4.29a27.7,27.7,0,0,0,20.21-29L1305,850.29c5-.85,10.69-1.76,15.34-2.27,3.88-.42,7-.57,8.28-.18C1328.58,847.84,1322.13,756.72,1294.9,745.48Z"/><path class="cls-14" d="M1187.28,918.63c-.72,32.76-22.18,71.24-40.93,81.61-2.67-.37-4.13-.61-4.13-.61a13.84,13.84,0,0,1-10.59-13.44,14.68,14.68,0,0,1,.22-2.45l16.91-93.87-5.68-47.13c.27-.82.42-1.26.42-1.26S1188.55,860.77,1187.28,918.63Z"/><path class="cls-14" d="M1320.3,848c-4.77.53-15.37,2.27-15.37,2.27l-5.37-48.87S1317.5,835.87,1320.3,848Z"/><path class="cls-24" d="M1134.87,967l4.39-24.39c74.35-107.56,80-126.85,46.54-175.15-9.57-13.83-27-22.47-34.09-24.43a163.61,163.61,0,0,1,21.48-6.08c7,3.31,13.54,6.57,18.57,10.93C1293.8,836.2,1134.87,967,1134.87,967Z"/><path class="cls-12" d="M1221.69,828.93c-29.11,2-33.14,31.84-33.14,31.84s-48.85,4.43-56.07,7.64c0,0,4-10.72,11-26.93-6.37-6.26-27.31-15.57-41.17-19.86-10.57,27-14.63,53.67-8.7,79.41a6.23,6.23,0,0,0,5.8,4.79c15.55.73,66.92.47,104.54-30.68l.66-.18c9-.53,17.46-9.48,20.7-21.24s3.51-8.16,6-16.44S1221.69,828.93,1221.69,828.93Z"/><path class="cls-8" d="M1250.85,724.08c-23.76-.63-41.9-24-41.9-24l41.17,1.68C1249.41,707.89,1249.09,716.19,1250.85,724.08Z"/><path class="cls-12" d="M1253.11,709.73s-52.49,6.4-53.61-30.58,20.76-60.92,35.36-60.65c29.12.55,33.92,12.31,37.3,24.56S1277.27,707.13,1253.11,709.73Z"/><path class="cls-25" d="M1239.07,688.42s1.14,4.61,12.64,3.76c0,0,9.65-.71,9.29-5.79C1261,686.39,1251.6,682.89,1239.07,688.42Z"/><path class="cls-24" d="M1247.85,618.84s-44.85,0-34.54,30.77C1219.8,669,1198.2,672,1198.2,672l-10.39-31.11,6.51-24.24Z"/><path class="cls-12" d="M1857.28,599.35c-11.18-18.56-18.12-101.42-26.18-123.61-5.1-14-18.75-30.79-17.31-31.83-14.52-8.56-53.82-12.68-53.82-12.68s0,0,0,.08c-1.53-.32-3-.64-4.52-.93-4.71-.95-9.16-3.7-9.69-8.47,0-.24,0-.49-.07-.72a151.2,151.2,0,0,1-.66-17.08.74.74,0,0,1,0-.21c.13-8.5.78-14.81.78-14.81l-.16,0-50.94-8.19c-.7,15.9-1.62,27.74-2.6,36.57a14,14,0,0,1-13,12.43c-1,.05-2,.12-3.07.19h0s-32.84-1.28-45.4,2.56a19.79,19.79,0,0,0-3.2,1.32c.76.8-120.94,122.78-117.8,136.9s56.54,94.35,75.91,109.13h19.38s-43-98-43.51-105.9c-.82-11.63,108-76.7,108-88.56,0-4.31,30.34-5.62,50.19-5.47,21,.17,60.58-10.81,60.58-10.81s17.1,129.63,38.72,168.07c17,30.32,92.35,108,92.35,108l15.88-14.08S1884.34,644.3,1857.28,599.35Z"/><path class="cls-22" d="M1703.09,1098.22c9.19,90.54-1.94,209.1-1.94,209.1H1670c-47.11-123.9-48.52-201.63-51.21-230.82-1.46-15.9-22.93-79.47-42.2-140.62-16.11-51-30.66-100.41-30.76-118.91-.21-42.39,42-110.38,42-110.38s60.69,23.41,98.14,46.54c12.49,7.72,22.06,15.27,25.33,21.67,8.68,17,15.12,138.56-8,212.8-13.9,44.7-6.78,67.63-6.78,67.63A379.8,379.8,0,0,1,1703.09,1098.22Z"/><path class="cls-23" d="M1703.28,987.6c-13.9,44.7-6.78,67.63-6.78,67.63a379.8,379.8,0,0,1,6.59,43L1576.54,935.88c-16.11-51-30.66-100.41-30.76-118.91-.21-42.39,42-110.38,42-110.38s60.69,23.41,98.14,46.54c12.49,7.72,22.06,15.27,25.33,21.67C1720,791.83,1726.39,913.36,1703.28,987.6Z"/><path class="cls-10" d="M1670,1307.32s-1.77,20.35-4.39,24.53-13.6,18.32-26.16,23-48.49,2.27-51.28,15.32h126.64s1.74-19.57-3.15-32.45-10.46-30.43-10.46-30.43Z"/><path class="cls-10" d="M1881.65,1302.73s14.16,19.35,17.65,27,26.51,40.17,23.73,40.44-64.19,0-64.19,0-6.29-15.32-5.59-25.79-8.37-30.33-6.63-41.68S1881.65,1302.73,1881.65,1302.73Z"/><path class="cls-22" d="M1881.65,1302.73h-35S1710,1105.27,1705.34,1055.07c-5.88-62.79-49.75-310.61-49.75-310.61l140.12-43.62s12.24,31.49,22.51,63.24c4.47,13.85,8.56,27.75,11.1,39.1,5.61,25.07-10.18,119.79-21,187.12-5.33,33.17-9.43,59.7-9.16,68C1800,1083.41,1846.07,1086.66,1881.65,1302.73Z"/><path class="cls-10" d="M1694,394.62q-.12,1.9-.24,3.69Q1693.88,396.53,1694,394.62Z"/><path class="cls-10" d="M1694.3,389.4c-.07,1.35-.15,2.67-.22,4C1694.15,392.07,1694.22,390.75,1694.3,389.4Z"/><path class="cls-10" d="M1694.71,380.88c0,1-.08,2-.13,2.93,0-1,.08-1.94.12-2.93Z"/><path class="cls-10" d="M1815.27,733.84c4.56,13.73-61.36,21.75-134.53,20.78-20.67-.27-39.89-2.78-55.73-6.89-33.49-8.66-51.92-24.42-37.21-41.13,4.18-4.75,50.56-71.12,50.56-71.12,2.73-5.94-.23-25.42-14.39-71.69-5.8-18.92,1.76-30.69,4.46-38.2h0c.92-2.62,1.28-4.71.29-6.41-6.34-10.95-15.48-21.51-23.76-29.92a234.49,234.49,0,0,0-19.87-18.11s27.15-29.6,42.33-37.2c15.65,16.39,49.57,45.77,92.17,46.1,36.75.28,72.46-20.43,94.21-36.13a15.16,15.16,0,0,1,3.86,3c13.59,15.94,17.46,44.69,17.46,44.69s-43.71,24.12-42.93,32c2.17,21.64,4.21,28,3.26,35.7v.07a52.2,52.2,0,0,1-2.26,9.41c-7.45,23.42-23.59,59.59-19.56,71.77C1774.67,643.74,1808.72,714.13,1815.27,733.84Z"/><path class="cls-12" d="M1630.63,432.61c.71-.21,1.47-.42,2.3-.6-.83.19-1.6.4-2.31.61Z"/><path class="cls-12" d="M1748.1,426.73a12,12,0,0,0,3.92,2.59A12,12,0,0,1,1748.1,426.73Z"/><path class="cls-12" d="M1752,429.32a17.57,17.57,0,0,0,1.68.61A13.42,13.42,0,0,1,1752,429.32Z"/><path class="cls-12" d="M1927.12,731.22s26.78,6.93,30.44,10.67,14.16,32.77,10.47,33c-19.19,1.4-29.31-8.9-29.31-8.9-11.6-12.76-28.93-14.8-28.07-24.14S1927.12,731.22,1927.12,731.22Z"/><path class="cls-12" d="M1585.53,680s-19.39,24.49-19.39,28.94,3.92,23,8.63,23.28,6.28-15.17,9.94-18.05,16.75-8.29,18.58-13.3,1.62-20.87,1.62-20.87Z"/><path class="cls-8" d="M1692.29,415.88c24.07-3.1,53.36-26.82,53.36-26.82-17.1-9.27-31.93-10.17-43.45-7a43.19,43.19,0,0,0-7.68,2.91Z"/><path class="cls-12" d="M1683.57,392.55s59.52,19.87,71.32-17.39,27.43-59.79-10.07-74.05-49.43-2.39-56.4,9.09S1668.39,386.42,1683.57,392.55Z"/><path class="cls-25" d="M1704.93,376.16s-2.2,4.32-13.44.83c0,0-9.43-2.92-7.91-7.89C1683.58,369.1,1693.74,367.77,1704.93,376.16Z"/><path class="cls-22" d="M1843.29,305.08c-6.67-8.57,15.21-26.23-29.25-47.47-33.73-16.1-44.18,8.3-47.26,21-20.06-11.45-52.79-44.41-73.66-22.94-25,25.72,2.11,48.35,2.11,48.35,9.48,6.91,14.09,5,28,8s5,19.08,6.08,24.49,10.55,16.35,23.36,10.82,11.34,15.59-.84,19.94c-3.47,1.23-7.08,20.65-2,21.46,4.23.69,19.51.84,21.06-11.63.92-7.39,10.33-11.26,20.29-18.9,6.9,6.56,16.59,9.91,21.94,9.14,7.88-1.13,8-7.45,24.83-18.7S1850,313.64,1843.29,305.08Z"/><path class="cls-11" d="M1625,747.73c-33.49-8.66-51.92-24.42-37.21-41.13,4.18-4.75,50.56-71.12,50.56-71.12S1650.79,710.42,1625,747.73Z"/><path class="cls-11" d="M1842.12,1370.27l-5-537s-4.33-38.68-38.07-38.68c-36,0-38.07,38.68-38.07,38.68a4.09,4.09,0,0,0,4.21,3.34,4.36,4.36,0,0,0,4.51-3.34s1.6-29.82,29.35-29.82c26,0,29.35,29.82,29.35,29.82v537Z"/><path class="cls-11" d="M1823.77,1370.27h22.39l-2-23.41s.19-3.25-4.33-3.44c-4.2-.17-12.51-.77-13.3,1.77C1825.84,1347.43,1823.77,1370.27,1823.77,1370.27Z"/><path class="cls-12" d="M1798.77,766.14l-1.53,7.68s-38-.14-46.85,40.54c0,0-2.4,16.93,9.8,13.32s10.31-12.25,27.59-17,28.55-8.36,31.17-20.94l2.83-14Z"/><path class="cls-13" d="M1933,433.19s-10,39.51-18.71,75.64c-3.49,14.55-6.75,28.55-9,39.19-2.34,10.94-3.68,18.34-3.16,19.16,7.53,12.23-6.23,86.77-17.11,113.84-1,2.4-2.29,5.22-3.87,8.34-15.22,29.83-55.74,88.39-55.74,88.39s-11.43,1.2-18.91-1.62c-6.23-2.37-10.5-10-10.5-10,3.63-5.83,18.29-74.73,37.15-113.35,8.07-16.53,20-169.84,35.59-190.49C1881.75,445.08,1933,433.19,1933,433.19Z"/><path class="cls-14" d="M1902.1,567.18c7.53,12.23-6.23,86.77-17.11,113.84-1,2.4-2.29,5.22-3.87,8.34-14.55-64.34,9.55-155.48,9.55-155.48C1896.69,536.26,1901.58,566.36,1902.1,567.18Z"/><path class="cls-26" d="M2007.48,1311.12s3.86,58.23-7.13,59c-1.46.11-55.77.11-55.77.11h-70s1.18-17.1,21.44-20.64,54.18-17.77,66.46-44.55C1975.34,1276.9,2007.48,1311.12,2007.48,1311.12Z"/><path class="cls-9" d="M2112.84,1311.12s3.87,58.23-7.13,59c-1.46.11-55.77.11-55.77.11h-70s1.18-17.1,21.44-20.64,54.18-17.77,66.46-44.55C2080.71,1276.9,2112.84,1311.12,2112.84,1311.12Z"/><path class="cls-10" d="M2010.79,1170.77c1.73,24.63,5.24,56.29,4,84.83-1.75,39.9-3,73.56-3,73.56-26.31,8.94-74.58-1.91-74.58-1.91S1920.05,1226.4,1906,1145.9c-6.33-36.07-11.58-67.28-13.54-82-6.35-47.62,6.76-300.86,6.76-300.86s71.19-45.63,100.6-22.11,47.52,46.51.12,304.19C1996.29,1064.65,2006.93,1115.62,2010.79,1170.77Z"/><path class="cls-11" d="M2010.79,1170.77c1.73,24.63,4.9,64,3.65,92.57-24.75-26.19-73.53-81.45-108.49-117.44-6.33-36.07-11.58-67.28-13.54-82-6.35-47.62,6.76-300.86,6.76-300.86s71.19-45.63,100.6-22.11,47.52,46.51.12,304.19C1996.29,1064.65,2006.93,1115.62,2010.79,1170.77Z"/><path class="cls-10" d="M1963.5,768.17s6.4,253.5,16.39,300.5S2042,1330.83,2042,1330.83s48.87,4.45,74.41-6.49c0,0-1.62-99.65-10.29-158.19-8.09-54.7-22.61-104.7-20.53-124.47,27.45-260.56,7.63-282.09-23.5-303.28S1963.5,768.17,1963.5,768.17Z"/><path class="cls-12" d="M2060.12,790.36s-16.93,34,15.62,59.95c0,0,14.11,9.65,16.28-2.89s-.34-8.18,3.07-25.77-1-35.79-11.07-43.71Z"/><path class="cls-12" d="M1917.37,375.75s19.55,29.71,15.65,57.43L1962,502.87l52.18-79.78s-27.57-30-37.86-70.91Z"/><path class="cls-12" d="M1908.8,401.1s71.18,3.08,72.47-39.65,20.53-71.16-32.71-74.91c-43.78-3.09-58.33,15.17-62.23,29.33S1882.42,398.81,1908.8,401.1Z"/><path class="cls-13" d="M2083.05,780.38c-15.29,1.43-36.34,3.19-61.89,4.79q-7.65.48-15.83.94c-77.12,4.32-107.78-8.17-107.78-8.17s-2-1.65-1.4-10.71c3.35-46.64,13.26-60.42,12.06-69.28-2.68-19.92-51-182.49-51-182.49s-.94-51.36,56.18-75.46a136.11,136.11,0,0,1,19.55-6.5c2.51,6.65,9.36,17.75,26.9,15.7,25.93-3,44.39-18.3,52.3-26.14,1.44,0,2,0,2,0a155.13,155.13,0,0,1,4.79,16.95c4.68,20.18,7.42,41.42,19.81,57.29a435.53,435.53,0,0,1,31.62,46.25,385.55,385.55,0,0,1,19.25,37C2140.16,692.31,2101.05,778.69,2083.05,780.38Z"/><path class="cls-14" d="M2083.05,780.38c-15.29,1.43-36.34,3.19-61.89,4.79-7.45-125.54,43.71-246.11,43.71-246.11a45.89,45.89,0,0,1,5.48,4.53c8.91,8.66,15.11,21.5,19.25,37C2104.84,637.48,2092.08,730,2083.05,780.38Z"/><path class="cls-27" d="M1885.86,360.34s-13.86,55,9.65,62.72,86,1.54,85.92-65.86c0,0-32.76,19.54-48.41,19s-25.75-9.52-40.21-2.47C1892.81,373.77,1887.52,373.42,1885.86,360.34Z"/><path class="cls-13" d="M2014.13,423.09s49.75,1.12,76,35.33c20.14,26.21,41.44,166.84,41.44,188s-22.68,138-35.38,150.73a47.77,47.77,0,0,1-19.18,0,38.75,38.75,0,0,1-18.5-9s6.32-130.1,6.32-142.31c0-17.66-55.24-125.81-55.24-125.81S1981,468.59,2014.13,423.09Z"/><path class="cls-27" d="M1977.93,299.83c-1.2-4.36-6.57-6.65-6.57-6.65-40.09-17.47-69.38,1.64-69.38,1.64,24.57-33,83.87-26.06,96.36,3.69,20.39,48.57-16.91,58.69-16.91,58.69s-37.25-15.65-15.68-35.28c7.15-6.5,10.6-12.28,11.75-17.31h0A17.4,17.4,0,0,0,1977.93,299.83Z"/><path class="cls-25" d="M1914.41,386.49s-1.31,4.67-13,3.44c0,0-9.82-1-9.31-6.19C1892.09,383.74,1901.8,380.46,1914.41,386.49Z"/><rect class="cls-28" y="1370.32" width="2502.87" height="7.12" rx="2.94"/></g></g></svg>