<svg xmlns="http://www.w3.org/2000/svg" xmlns:xlink="http://www.w3.org/1999/xlink" viewBox="0 0 249.43 364.87"><defs><style>.cls-1{fill:none;}.cls-2{clip-path:url(#clip-path);}.cls-3{fill:#e0ddd8;}.cls-4{fill:#2bae66;}.cls-4,.cls-5,.cls-6,.cls-7,.cls-8,.cls-9{fill-rule:evenodd;}.cls-5{fill:#7dc3b5;}.cls-6{fill:#48afa3;}.cls-7{fill:#60af7a;}.cls-8{fill:#26296c;}.cls-9{fill:#202169;}.cls-10{clip-path:url(#clip-path-2);}.cls-11{fill:#25247e;}.cls-12{clip-path:url(#clip-path-3);}</style><clipPath id="clip-path"><rect class="cls-1" x="21.2" y="54.75" width="190.04" height="269.93"/></clipPath><clipPath id="clip-path-2"><rect class="cls-1" x="108.49" y="168.57" width="78.1" height="78.1"/></clipPath><clipPath id="clip-path-3"><rect class="cls-1" x="99.58" y="24.81" width="51.63" height="51.63"/></clipPath></defs><title>Login BG</title><g id="Layer_2" data-name="Layer 2"><g id="OBJECTS"><g class="cls-2"><rect class="cls-3" x="16.67" y="50.2" width="199.09" height="279.01"/><path class="cls-4" d="M150.9,219.59c8.4,18.22,21.45,20.92,34.14,26.79,27.85,12.89,57.36,19.13,63.82,54.71,5.13,28.27-25.57,50.71-48.64,59.74-8.11,3.18-17.12,5-25.81,3.49-25.84-4.58-32.66-30.51-48.78-46.75C102,293.75,65,285.64,49.34,253.5c-10.18-20.92-3.72-44,12.78-59.73,6.39-6.1,15.46-10.43,23.63-13.59,13.8-5.34,31.15-6.61,45.29,8C138,195.47,147.79,212.85,150.9,219.59Z"/><path class="cls-5" d="M140.23,128.85c1.24,15.29,9,28.39,11.57,32A42,42,0,0,0,161,170.8c8.35,6.21,18.42,7.55,28.49,8,8.31.37,16.41-.24,24.32-3,17-5.85,27.6-20.45,28.66-38.26A55.68,55.68,0,0,0,240.73,120c-5.95-22.85-28.48-44.44-53-43.52-9.61.36-18.37,5.48-25.71,11.31C148.93,98.22,138.85,111.72,140.23,128.85Z"/><path class="cls-6" d="M153.37,128.61c-17.37,5.16-32.73,10.22-34.8,22.12C115,171.12,117.12,196.9,94,206.87A27.89,27.89,0,0,1,81.33,209c-24.9-1.68-35.54-29.17-36.74-50.57C43.09,131.51,54.71,105,72,84.9c9.86-11.45,23.73-20.63,39-22.47,21.22-2.57,44.27,6.17,54.15,25.82C173.2,104.23,171.25,123.29,153.37,128.61Z"/><path class="cls-7" d="M127.39,38C105.35,39.86,0,45.67,0,45.67S1.25,59,1.85,63.4c1.77,13.12,3.64,26.24,5.2,39.39,1.66,13.95,2.66,28,3.74,42,1.23,15.92,1.71,31.88,2.38,47.83.19,4.63-.39,16.12,1.87,20.21.28.52.62-1,.91-1.51.67-1.24,1.25-2.52,1.8-3.81,1.78-4.12,3.08-8.45,4.55-12.69,4.35-12.49,5.94-29.64,15.56-39.59,5.86-6.06,15.3-7.38,23.17-8.95,12-2.4,24.49-5.42,32.19-15.88,6.66-9.05,8.24-19.45,10.06-30.18C106.13,83.4,107.25,56,127.39,38Z"/><polygon class="cls-8" points="65.39 246.96 63.8 294.39 23.53 269.31 65.39 246.96"/><path class="cls-9" d="M29.91,129.63a18.09,18.09,0,0,1,4.36-5.23,9.24,9.24,0,0,1,7-2.17c2.93.37,4.43,2.33,6.07,4.17,1.85,2.08,3.85,4.06,7.64,4.17s5.63-1.81,7.58-3.83C64.25,125,66,123.08,69.47,123A7.52,7.52,0,0,1,75,125.52a17.5,17.5,0,0,1,3.36,5.11l.25.61,1.22-.5-.24-.61A19.14,19.14,0,0,0,76,124.59a8.82,8.82,0,0,0-6.54-3c-3.91.13-5.91,2.17-7.85,4.18-1.71,1.77-3.34,3.52-6.59,3.43s-5.06-1.9-6.69-3.73c-1.85-2.07-3.6-4.18-6.89-4.61a10.55,10.55,0,0,0-8,2.46A19.48,19.48,0,0,0,28.74,129l-.31.59,1.18.6Z"/><path class="cls-9" d="M29.91,136.43a18.09,18.09,0,0,1,4.36-5.23,9.29,9.29,0,0,1,7-2.18c2.93.38,4.43,2.33,6.07,4.18,1.85,2.08,3.85,4.06,7.64,4.17s5.63-1.81,7.58-3.84c1.72-1.78,3.47-3.65,6.94-3.77A7.52,7.52,0,0,1,75,132.32a17.52,17.52,0,0,1,3.36,5.1l.25.62,1.22-.5-.24-.61A19.14,19.14,0,0,0,76,131.39a8.78,8.78,0,0,0-6.54-2.95c-3.91.13-5.91,2.17-7.85,4.18-1.71,1.77-3.34,3.52-6.59,3.43s-5.06-1.9-6.69-3.73c-1.85-2.08-3.6-4.18-6.89-4.61a10.54,10.54,0,0,0-8,2.45,19.59,19.59,0,0,0-4.71,5.66l-.31.58,1.18.61Z"/><path class="cls-9" d="M29.91,143.22A18.12,18.12,0,0,1,34.27,138a9.25,9.25,0,0,1,7-2.18c2.93.38,4.43,2.33,6.07,4.18,1.85,2.08,3.85,4.05,7.64,4.17s5.63-1.81,7.58-3.84c1.72-1.78,3.47-3.65,6.94-3.77A7.48,7.48,0,0,1,75,139.12a17.52,17.52,0,0,1,3.36,5.1l.25.62,1.22-.5-.24-.61A19,19,0,0,0,76,138.19a8.78,8.78,0,0,0-6.54-2.95c-3.91.13-5.91,2.17-7.85,4.17-1.71,1.77-3.34,3.53-6.59,3.43s-5.06-1.89-6.69-3.72c-1.85-2.08-3.6-4.19-6.89-4.61a10.54,10.54,0,0,0-8,2.45,19.45,19.45,0,0,0-4.71,5.66l-.31.58,1.18.61Z"/><g class="cls-10"><rect class="cls-11" x="112.81" y="186.42" width="1.39" height="112.51" transform="translate(-138.41 151.48) rotate(-45.03)"/><rect class="cls-11" x="119.3" y="179.93" width="1.39" height="112.51" transform="translate(-131.82 153.89) rotate(-44.97)"/><rect class="cls-11" x="125.79" y="173.44" width="1.39" height="112.51" transform="translate(-125.38 156.73) rotate(-45)"/><rect class="cls-11" x="132.28" y="166.95" width="1.39" height="112.51" transform="translate(-118.92 159.55) rotate(-45.03)"/><rect class="cls-11" x="138.77" y="160.46" width="1.39" height="112.51" transform="translate(-112.36 161.95) rotate(-44.97)"/><rect class="cls-11" x="145.26" y="153.97" width="1.39" height="112.51" transform="translate(-105.93 164.92) rotate(-45.03)"/><rect class="cls-11" x="151.73" y="147.5" width="1.39" height="112.51" transform="translate(-99.45 167.59) rotate(-45.03)"/><rect class="cls-11" x="158.22" y="141.01" width="1.39" height="112.51" transform="translate(-92.93 170.01) rotate(-44.97)"/><rect class="cls-11" x="164.71" y="134.52" width="1.39" height="112.51" transform="translate(-86.47 172.98) rotate(-45.03)"/><rect class="cls-11" x="171.2" y="128.03" width="1.39" height="112.51" transform="translate(-79.96 175.38) rotate(-44.97)"/><rect class="cls-11" x="177.69" y="121.54" width="1.39" height="112.51" transform="translate(-73.48 178.21) rotate(-45)"/><rect class="cls-11" x="184.18" y="115.05" width="1.39" height="112.51" transform="translate(-66.98 181.06) rotate(-45.04)"/></g><g class="cls-12"><rect class="cls-11" x="102.44" y="36.61" width="0.92" height="74.38" transform="translate(-22.04 94.44) rotate(-45.03)"/><rect class="cls-11" x="106.73" y="32.32" width="0.92" height="74.38" transform="translate(-17.77 96.09) rotate(-44.97)"/><rect class="cls-11" x="111.02" y="28.03" width="0.92" height="74.38" transform="translate(-13.47 97.93) rotate(-45)"/><rect class="cls-11" x="115.31" y="23.74" width="0.92" height="74.38" transform="translate(-9.15 99.78) rotate(-45.03)"/><rect class="cls-11" x="119.6" y="19.45" width="0.92" height="74.38" transform="translate(-4.91 101.42) rotate(-44.97)"/><rect class="cls-11" x="123.89" y="15.16" width="0.92" height="74.38" transform="translate(-0.56 103.34) rotate(-45.04)"/><rect class="cls-11" x="128.17" y="10.88" width="0.92" height="74.38" transform="translate(3.72 105.11) rotate(-45.04)"/><rect class="cls-11" x="132.46" y="6.59" width="0.92" height="74.38" transform="translate(7.93 106.73) rotate(-44.96)"/><rect class="cls-11" x="136.75" y="2.3" width="0.92" height="74.38" transform="translate(12.3 108.65) rotate(-45.03)"/><rect class="cls-11" x="141.04" y="-1.99" width="0.92" height="74.38" transform="translate(16.51 110.3) rotate(-44.97)"/><rect class="cls-11" x="145.33" y="-6.28" width="0.92" height="74.38" transform="translate(20.84 112.13) rotate(-45)"/><rect class="cls-11" x="149.62" y="-10.57" width="0.92" height="74.38" transform="translate(25.18 113.99) rotate(-45.03)"/></g><path class="cls-9" d="M75.34,316.26A18.06,18.06,0,0,1,79.71,311a9.17,9.17,0,0,1,7-2.18c2.93.38,4.43,2.33,6.07,4.17,1.86,2.09,3.85,4.06,7.64,4.17s5.63-1.81,7.58-3.83c1.73-1.78,3.48-3.65,6.94-3.77a7.49,7.49,0,0,1,5.56,2.55,17.64,17.64,0,0,1,3.36,5.11l.25.61,1.23-.49-.25-.61a19,19,0,0,0-3.65-5.54,8.78,8.78,0,0,0-6.54-3c-3.9.13-5.91,2.17-7.85,4.17-1.7,1.77-3.34,3.53-6.59,3.43s-5.06-1.89-6.69-3.72c-1.84-2.08-3.6-4.19-6.89-4.61a10.53,10.53,0,0,0-8,2.45,19.58,19.58,0,0,0-4.72,5.66l-.3.58,1.17.61Z"/><path class="cls-9" d="M75.34,323.06a18.06,18.06,0,0,1,4.37-5.22,9.17,9.17,0,0,1,7-2.18c2.93.38,4.43,2.33,6.07,4.17,1.86,2.09,3.85,4.06,7.64,4.17s5.63-1.81,7.58-3.83c1.73-1.79,3.48-3.66,6.94-3.77a7.49,7.49,0,0,1,5.56,2.55,17.64,17.64,0,0,1,3.36,5.11l.25.61,1.23-.49-.25-.61A19,19,0,0,0,121.4,318a8.78,8.78,0,0,0-6.54-2.95c-3.9.13-5.91,2.16-7.85,4.17-1.7,1.77-3.34,3.53-6.59,3.43s-5.06-1.89-6.69-3.73c-1.84-2.07-3.6-4.18-6.89-4.6a10.49,10.49,0,0,0-8,2.45,19.61,19.61,0,0,0-4.72,5.65l-.3.59,1.17.61Z"/><path class="cls-9" d="M75.34,329.86a18.06,18.06,0,0,1,4.37-5.22,9.17,9.17,0,0,1,7-2.18c2.93.37,4.43,2.33,6.07,4.17,1.86,2.08,3.85,4.06,7.64,4.17S106,329,108,327c1.73-1.79,3.48-3.66,6.94-3.77a7.49,7.49,0,0,1,5.56,2.55,17.64,17.64,0,0,1,3.36,5.11l.25.61,1.23-.49-.25-.62a19.14,19.14,0,0,0-3.65-5.54,8.77,8.77,0,0,0-6.54-2.94C111,322,109,324,107,326.05c-1.7,1.77-3.34,3.53-6.59,3.43s-5.06-1.89-6.69-3.73c-1.84-2.07-3.6-4.18-6.89-4.6a10.49,10.49,0,0,0-8,2.45,19.61,19.61,0,0,0-4.72,5.65l-.3.59,1.17.61Z"/><polygon class="cls-8" points="148.94 137.32 153.59 104.35 179.81 124.85 148.94 137.32"/><polygon class="cls-8" points="27.57 75.99 43.76 59.23 50.18 81.62 27.57 75.99"/></g></g></g></svg>