<svg xmlns="http://www.w3.org/2000/svg" viewBox="0 0 1006.36 174.2"><title>Asset 1</title><g id="Layer_2" data-name="Layer 2"><g id="Layer_2-2" data-name="Layer 2"><path d="M31.14,169.72q-19-4.49-31.14-12.06l17.47-39.53a111.24,111.24,0,0,0,25.74,10.68,100.17,100.17,0,0,0,27.34,4q11.27,0,16.09-2.18c3.22-1.45,4.83-3.64,4.83-6.55q0-5.05-6.32-7.58T64.35,111a235.13,235.13,0,0,1-31-8.39,52.88,52.88,0,0,1-21.6-14.7Q2.53,77.68,2.53,60.21A47.72,47.72,0,0,1,11,32.63q8.5-12.41,25.4-19.53T77.45,6A148.65,148.65,0,0,1,110,9.54,102.31,102.31,0,0,1,138.12,20L121.8,59.29Q98.13,47.35,77,47.34q-20.91,0-20.91,10.12,0,4.82,6.2,7.23t20.45,5.18a210.43,210.43,0,0,1,31,7.92,54.11,54.11,0,0,1,22,14.6Q145,102.5,145,120a47.18,47.18,0,0,1-8.51,27.46Q128,159.73,111.12,167t-41,7.24A168.67,168.67,0,0,1,31.14,169.72Z"/><path d="M284.17,56.54q14.13,14,14.13,42.28v71.71H246.36V107.79q0-21.6-15.39-21.61a18,18,0,0,0-14.14,6.09q-5.4,6.09-5.4,19.19v59.07H159.49V0h51.94V54.93q14.48-12.42,35.39-12.41Q270,42.52,284.17,56.54Z"/><path d="M427.69,57.34Q445.15,72.16,445.16,103v67.57H396.89V154q-9,18.84-35.62,18.84-14.94,0-25.39-5.17a36.42,36.42,0,0,1-21.26-33.9q0-18.61,14.25-28.26t43.2-9.66H393q-2.53-14.7-23.67-14.7a59.36,59.36,0,0,0-17.24,2.64A48.56,48.56,0,0,0,337.14,91L320.59,56.77a91.25,91.25,0,0,1,26.09-10.46,126,126,0,0,1,30.45-3.79Q410.22,42.52,427.69,57.34Zm-40.91,81.24a17.3,17.3,0,0,0,6.44-9v-8.74H380.35q-15.86,0-15.86,10.58a9.17,9.17,0,0,0,3.33,7.24q3.33,2.87,9.08,2.87A17.09,17.09,0,0,0,386.78,138.58Z"/><path d="M485.14,169.38q-15.63-3.45-25.28-9l14.25-34.24a74.58,74.58,0,0,0,20.68,8.27,95.23,95.23,0,0,0,23.22,3q9,0,12.52-1.49c2.38-1,3.56-2.49,3.56-4.48s-1.49-3.37-4.48-4.14A119.9,119.9,0,0,0,515,125a190.66,190.66,0,0,1-26.2-4.71,41,41,0,0,1-19-11.15q-8.16-8.26-8.16-23.67a35.09,35.09,0,0,1,7.35-21.83Q476.42,54,491,48.26t35-5.74A146.88,146.88,0,0,1,554,45.16a84.94,84.94,0,0,1,23.33,7.7L563.05,87.1a73.61,73.61,0,0,0-36.31-9.19q-17,0-17,6c0,2,1.53,3.41,4.6,4.26a107.39,107.39,0,0,0,14.48,2.41,176.79,176.79,0,0,1,26.08,4.83,42,42,0,0,1,18.85,11.26q8.14,8.27,8.16,23.67a34.45,34.45,0,0,1-7.36,21.37q-7.35,9.66-22.06,15.4t-35.62,5.74A147.32,147.32,0,0,1,485.14,169.38Z"/><path d="M690.14,166.16q-11.73,6.66-31.95,6.66-26.43,0-40.68-12.75T603.27,121.8V89.63H586V51.71h17.24V16.55h51.94V51.71H681V89.63H655.21v31.71c0,3.84,1,6.82,3,9a10.19,10.19,0,0,0,7.82,3.21,20.29,20.29,0,0,0,11.72-3.44Z"/><path d="M827.91,56.54Q842,70.55,842,98.82v71.71H790.11V107.79q0-21.6-15.4-21.61a18,18,0,0,0-14.14,6.09q-5.4,6.09-5.4,19.19v59.07H703.23V0h51.94V54.93q14.49-12.42,35.4-12.41Q813.77,42.52,827.91,56.54Z"/><path d="M979.42,121.26l-7.23,16.51a4.86,4.86,0,0,1-8.72.36L959.64,131l-6.89,15.3a4.85,4.85,0,0,1-4.42,2.87,4.71,4.71,0,0,1-.53,0,4.88,4.88,0,0,1-4.23-3.83L929.64,79.38l-13,50.38a4.85,4.85,0,0,1-9.28.38l-4.44-12.76-5.7,22.08a4.85,4.85,0,0,1-8.86,1.29l-9.51-15.85h-16.4a59,59,0,0,0,7.2,16.32,64.5,64.5,0,0,0,26.09,23.22q16.65,8.38,37.57,8.38,21.15,0,37.81-8.38a63.75,63.75,0,0,0,26-23.22,59.38,59.38,0,0,0,8-20Z"/><path d="M881.57,115.19a4.85,4.85,0,0,1,4.16,2.36l5,8.26,6.81-26.4a4.86,4.86,0,0,1,9.29-.38l4.44,12.77,14.19-54.87a4.85,4.85,0,0,1,4.7-3.64h.11a4.86,4.86,0,0,1,4.64,3.85L950,128.77l4.82-10.72a4.85,4.85,0,0,1,8.7-.31l3.77,7,4.5-10.28a4.86,4.86,0,0,1,4.45-2.91h30c.07-1.32.11-2.65.11-4q0-18.86-9.31-33.67a62.92,62.92,0,0,0-26-23.1q-16.67-8.28-37.81-8.27-20.91,0-37.57,8.27a63.66,63.66,0,0,0-26.09,23.1,61.41,61.41,0,0,0-9.42,33.67,70.68,70.68,0,0,0,.41,7.63Z"/></g></g></svg>