<svg xmlns="http://www.w3.org/2000/svg" viewBox="0 0 433.2 394.28"><defs><style>.cls-1{fill:#ebebeb;}.cls-2{fill:#dbdbdb;}.cls-3{fill:#fff;}.cls-4{fill:#c7c7c7;}.cls-5{fill:#263238;}.cls-6{fill:#455a64;}.cls-7{fill:#37474f;}.cls-8{fill:#ffc727;}.cls-9{fill:#ad6359;}.cls-10{fill:#a6a6a6;}.cls-11{fill:#ff9cbd;}.cls-12{opacity:0.1;}.cls-13{fill:#fffffd;}</style></defs><title>Doc yellow</title><g id="Layer_2" data-name="Layer 2"><g id="Background_Complete" data-name="Background Complete"><circle class="cls-1" cx="74.8" cy="32.8" r="32.8"/><circle class="cls-2" cx="76.3" cy="33.53" r="31.3" transform="translate(-1.36 63.77) rotate(-45)"/><circle class="cls-3" cx="76.3" cy="33.53" r="29.32" transform="translate(-7.01 31.14) rotate(-22.08)"/><rect class="cls-1" x="75.93" y="6.34" width="0.75" height="4.44"/><rect class="cls-1" x="63.44" y="9.68" width="0.75" height="4.44" transform="translate(2.59 33.5) rotate(-29.99)"/><rect class="cls-1" x="54.3" y="18.82" width="0.75" height="4.44" transform="translate(9.12 57.88) rotate(-60.01)"/><rect class="cls-1" x="49.11" y="33.16" width="4.44" height="0.75"/><rect class="cls-1" x="52.45" y="45.64" width="4.44" height="0.75" transform="translate(-15.68 33.51) rotate(-30)"/><rect class="cls-1" x="61.59" y="54.78" width="4.44" height="0.75" transform="translate(-15.84 82.89) rotate(-60.03)"/><rect class="cls-1" x="75.93" y="56.28" width="0.75" height="4.44"/><rect class="cls-1" x="88.41" y="52.93" width="0.75" height="4.44" transform="translate(-15.68 51.79) rotate(-30)"/><rect class="cls-1" x="97.55" y="43.79" width="0.75" height="4.44" transform="translate(9.11 107.81) rotate(-60)"/><rect class="cls-1" x="99.05" y="33.16" width="4.45" height="0.75"/><rect class="cls-1" x="95.71" y="20.67" width="4.44" height="0.75" transform="translate(2.6 51.79) rotate(-30)"/><rect class="cls-1" x="86.57" y="11.53" width="4.44" height="0.75" transform="translate(34.13 82.88) rotate(-60.03)"/><rect class="cls-1" x="60.37" y="36.57" width="28.37" height="0.75" transform="translate(7.82 86.64) rotate(-63.04)"/><rect class="cls-2" x="76.55" y="23.29" width="1" height="27.94" transform="translate(-5.81 15.84) rotate(-11.32)"/><rect class="cls-1" x="286.14" y="23.23" width="142.13" height="268.92"/><rect class="cls-3" x="298.31" y="36.61" width="117.79" height="170.74"/><polygon class="cls-1" points="305.83 319.21 296.44 319.21 296.44 292.15 313.15 292.15 305.83 319.21"/><polygon class="cls-4" points="313.15 292.14 310.45 302.12 296.44 302.12 296.44 292.14 313.15 292.14"/><polygon class="cls-1" points="408.57 319.21 417.96 319.21 417.96 292.15 401.25 292.15 408.57 319.21"/><polygon class="cls-4" points="401.25 292.14 403.95 302.12 417.97 302.12 417.97 292.14 401.25 292.14"/><path class="cls-4" d="M416.1,219.53q-13.25.27-26.47.36c-8.83.11-17.65.08-26.47.12l.48-.48c0,4.44,0,8.88,0,13.32l-.05,13.31c-.1,8.87-.19,17.75-.42,26.63-.22-8.88-.31-17.76-.41-26.63l-.05-13.31c0-4.44-.05-8.88,0-13.32v-.48h.48c8.82,0,17.64,0,26.47.13S407.27,219.35,416.1,219.53Z"/><path class="cls-4" d="M363.15,280.39c8.83-.19,17.65-.29,26.48-.37s17.64-.07,26.47-.12l-.49.49c0-4.36,0-8.71,0-13.06l.06-13.06c.09-8.71.18-17.42.41-26.12.22,8.7.31,17.41.4,26.12l.06,13.06c0,4.35.05,8.7,0,13.06v.48h-.48c-8.83-.05-17.65,0-26.47-.12S372,280.57,363.15,280.39Z"/><rect class="cls-4" x="369.09" y="241.34" width="4.01" height="15.36" transform="translate(742.18 498.04) rotate(180)"/><path class="cls-4" d="M298.31,219.53c8.82-.18,17.64-.28,26.47-.35s17.64-.08,26.47-.13h.47v.48c0,4.44,0,8.88,0,13.32l-.06,13.31c-.1,8.87-.18,17.75-.41,26.63-.23-8.88-.32-17.76-.42-26.63l-.05-13.31c0-4.44,0-8.88,0-13.32l.48.48c-8.83,0-17.65,0-26.47-.12S307.13,219.71,298.31,219.53Z"/><path class="cls-4" d="M351.25,280.39c-8.83.18-17.65.28-26.47.36s-17.65.07-26.47.12h-.49v-.48c0-4.36,0-8.71,0-13.06l.06-13.06c.09-8.71.18-17.42.41-26.12.22,8.7.31,17.41.4,26.12l.06,13.06c0,4.35.05,8.7,0,13.06l-.48-.49c8.82.05,17.64,0,26.47.12S342.42,280.2,351.25,280.39Z"/><rect class="cls-4" x="341.31" y="241.34" width="4.01" height="15.36"/><rect class="cls-4" x="298.31" y="91.14" width="117.79" height="1.83"/><rect class="cls-4" x="298.31" y="128.2" width="117.79" height="1.83"/><rect class="cls-4" x="298.31" y="165.26" width="117.79" height="1.83"/><rect class="cls-1" x="355.85" y="36.61" width="2.71" height="170.74"/><polygon class="cls-1" points="141.53 216.52 143.92 230.87 160.13 318.41 162.74 318.41 150.96 230.87 149.21 216.52 141.53 216.52"/><polygon class="cls-4" points="149.21 216.52 141.53 216.52 143.92 230.87 150.96 230.87 149.21 216.52"/><polygon class="cls-1" points="90.63 318.41 93.24 318.41 109.45 230.87 111.84 216.52 104.16 216.52 102.41 230.87 90.63 318.41"/><polygon class="cls-4" points="104.16 216.52 102.41 230.87 109.45 230.87 111.84 216.52 104.16 216.52"/><polygon class="cls-1" points="42.01 318.41 44.62 318.41 60.83 230.87 63.22 216.52 55.54 216.52 53.8 230.87 42.01 318.41"/><polygon class="cls-4" points="53.8 230.87 60.83 230.87 63.22 216.52 55.54 216.52 53.8 230.87"/><polygon class="cls-1" points="46.15 223.26 164.93 223.26 164.93 213.63 120.46 210.75 105.52 124.56 50.68 124.56 46.15 223.26"/><polygon class="cls-4" points="46.15 223.26 52.63 223.26 56.85 124.56 50.68 124.56 46.15 223.26"/></g><g id="Shadow"><ellipse class="cls-1" cx="216.6" cy="371.59" rx="135.34" ry="22.69"/><ellipse class="cls-1" cx="55.47" cy="370.63" rx="49.9" ry="10.53"/><ellipse class="cls-1" cx="367" cy="370.63" rx="49.9" ry="10.53"/></g><g id="Floor"><polygon class="cls-5" points="0 319.21 54.15 318.97 108.3 318.88 216.6 318.71 324.9 318.88 379.05 318.97 433.2 319.21 379.05 319.46 324.9 319.55 216.6 319.71 108.3 319.54 54.15 319.46 0 319.21"/></g><g id="Desk"><rect class="cls-6" x="163.46" y="178" width="76.78" height="141.06"/><rect class="cls-5" x="163.46" y="178" width="76.78" height="9.2"/><rect class="cls-6" x="8.29" y="170.58" width="264.92" height="7.42"/><polygon class="cls-6" points="24.67 178 24.42 187.2 21.19 319.06 15.32 319.06 15.32 178 24.67 178"/><polygon class="cls-5" points="15.32 178 24.67 178 24.42 187.2 15.32 187.2 15.32 178"/><rect class="cls-7" x="240.24" y="178" width="26.02" height="141.06"/><rect class="cls-5" x="240.24" y="178" width="26.02" height="9.2"/></g><g id="Plant"><path class="cls-5" d="M85.83,261.78c-3.4-3.33-7.79-7.35-13-5.92C68,257.21,66.1,262.54,65.22,267c-1.13,5.72-2,11.5-2.91,17.26s-1.78,11.65-2.62,17.49q-.7,4.93-1.4,9.87l-.69,4.94c-.22,1.62-.49,3.23-.58,4.86,0,.52.79.59.9.1.63-2.75.89-5.6,1.29-8.39s.81-5.61,1.22-8.41q1.23-8.35,2.5-16.7t2.6-16.68c.75-4.72,1.1-10.58,5.28-13.68a8.08,8.08,0,0,1,7.82-.74c2.75,1,5,3,7.1,5C85.8,261.94,85.89,261.84,85.83,261.78Z"/><path class="cls-8" d="M81.18,258.38s-6.94-2.5-10.37,2.56.67,17.95,32.28,25.22a89.25,89.25,0,0,0-7.61-28.57C88.71,242.82,76.63,248.41,81.18,258.38Z"/><path class="cls-5" d="M101.27,284.05a25.29,25.29,0,0,0-1.59-2.56c-.53-.81-1.06-1.62-1.6-2.43-.41-.61-.82-1.21-1.24-1.81,0-.15,0-.3.06-.45s.07-.55.11-.82c.07-.6.16-1.19.25-1.78s.18-1.18.3-1.76a9,9,0,0,1,.41-1.86c0-.1-.13-.14-.14,0a6.4,6.4,0,0,1-.28,1l-.21.8c-.16.6-.3,1.2-.44,1.81s-.23,1.11-.32,1.67c0,.27-.09.54-.12.82-.57-.81-1.14-1.6-1.73-2.38-1.68-2.22-3.46-4.34-5.29-6.42,0,0,0,0,0-.06.17-3.32.09-6.6.83-9.87,0-.09-.12-.14-.14,0A33.93,33.93,0,0,0,89,267.36c-.66-.74-1.33-1.47-2-2.19q-2.31-2.49-4.71-4.88c-.06-.07-.16,0-.1.1,2.66,2.86,5.19,5.85,7.65,8.89a55.64,55.64,0,0,0-5.77.21c-2.15.16-4.28.44-6.4.73-.09,0-.07.15,0,.14a59.7,59.7,0,0,1,6.39-.57c2.07-.09,4.12,0,6.18,0,1.33,1.65,2.65,3.31,3.94,5H92.43c-1,0-1.93.09-2.88.17a44,44,0,0,0-5.84.87.07.07,0,0,0,0,.14c1.94-.22,3.89-.4,5.84-.47.93,0,1.86,0,2.8,0h1.45a1.77,1.77,0,0,0,.8-.07c.85,1.1,1.7,2.21,2.54,3.32q1,1.32,2,2.67c.67.92,1.27,1.92,2,2.78C101.21,284.2,101.3,284.13,101.27,284.05Z"/><path class="cls-5" d="M84.2,265.55a21.21,21.21,0,0,0-3.38-.16c-1.13,0-2.25,0-3.38.07-.1,0-.1.15,0,.14,1.14-.08,2.28-.1,3.43-.08s2.21.12,3.32.09A0,0,0,0,0,84.2,265.55Z"/><path class="cls-5" d="M94.12,268.1c.13-1.08.27-2.16.5-3.22,0-.11-.13-.14-.14,0-.16,1.06-.37,2.11-.53,3.18-.08.53-.15,1.06-.21,1.6a6.86,6.86,0,0,0-.13,1.5.09.09,0,0,0,.18,0,9.56,9.56,0,0,0,.17-1.51C94,269.13,94.06,268.61,94.12,268.1Z"/><path class="cls-5" d="M92,256.14c-.27,1.05-.55,2.12-.74,3.19-.1.54-.18,1.08-.26,1.63a6.6,6.6,0,0,0-.1,1.6s.07,0,.08,0a9.83,9.83,0,0,0,.25-1.52c.07-.53.15-1.05.24-1.57.19-1.1.39-2.2.67-3.28C92.2,256.1,92.07,256.05,92,256.14Z"/><path class="cls-5" d="M50.89,320.24q-.27-3-.58-6c-.41-3.94-.9-7.87-1.42-11.79s-1-7.83-1.66-11.73A29.39,29.39,0,0,0,46,285.43a5,5,0,0,0-3-3.32c-3.72-1.29-6.22,2.57-7.73,5.3,0,.08.08.14.13.06.9-1.29,3.38-4.92,6.2-4.75,1.9.12,3.42,1.46,4.33,6.19,2.27,11.8,4.32,35.73,4.56,37.29.12.83.71.8.71-.09C51.29,324.15,51.06,322.19,50.89,320.24Z"/><path class="cls-8" d="M36.35,285.94s3.25-11.48-3.94-5.74C20.45,289.75,20,310.53,20,310.53S41.29,298.18,43.93,290C47.87,277.9,36.35,285.94,36.35,285.94Z"/><path class="cls-5" d="M40.37,291.57c-1.67.34-3.36.56-5,.8l-2.4.34-1.62.19c1.58-2.18,3.18-4.35,4.7-6.58.05-.08-.08-.17-.15-.1a48.09,48.09,0,0,0-3.55,4.1l-.94-2.67c-.36-1-.75-2-1-3.11,0-.08-.16,0-.14,0,.29,1.05.5,2.12.78,3.18s.58,2,.94,3c-.78,1-1.53,2.05-2.25,3.09-.37-1-.82-2-1.14-3.09,0-.09-.17,0-.14,0,.38,1.17.59,2.38.95,3.55-.49.71-1,1.42-1.45,2.14-.86,1.33-1.66,2.68-2.46,4a.31.31,0,0,0-.18.32c-1.35,2.33-2.62,4.68-3.88,7.06a.07.07,0,1,0,.12.07c1.26-2.35,2.67-4.63,4.13-6.88h0a3.1,3.1,0,0,1,.7-.14l.73-.16c.55-.12,1.1-.26,1.64-.39,1.08-.27,2.15-.53,3.24-.72.09,0,0-.15,0-.13-1.29.24-2.58.39-3.88.54-.61.07-1.22.15-1.83.25h-.09c.76-1.16,1.54-2.32,2.32-3.45s1.57-2.23,2.37-3.34c.73-.1,1.46-.29,2.2-.43l2.46-.48c1.65-.33,3.29-.7,4.94-1C40.5,291.69,40.46,291.55,40.37,291.57Z"/><path class="cls-5" d="M27.59,292.7l-.28-.91a18,18,0,0,1-.49-1.92c0-.09-.16-.05-.14,0,.14.65.29,1.29.44,1.94a12.55,12.55,0,0,0,.56,1.9.13.13,0,1,0,.24-.07C27.83,293.35,27.7,293,27.59,292.7Z"/><path class="cls-5" d="M42.55,288.91c-1,.15-1.95.22-2.93.3s-1.95.23-2.92.37c-.05,0-.05.09,0,.09,1-.07,1.95-.15,2.93-.27s1.94-.28,2.92-.34C42.64,289.05,42.64,288.9,42.55,288.91Z"/><path class="cls-5" d="M66.53,305.71c-.37-8.45-.91-16.88-1.76-25.3-.42-4.19-.9-8.38-1.49-12.55a88.24,88.24,0,0,0-2.42-12.15,23.35,23.35,0,0,0-4-8.56,9.19,9.19,0,0,0-8.17-3.57C45,244,42,246.37,39.4,248.9c-2.89,2.84-5.54,5.94-8.21,9-.68.77-1.35,1.54-2,2.32a.07.07,0,0,0,.11.1c2.61-3,5.33-5.93,8.18-8.72,2.62-2.58,5.33-5.4,9-6.47a9.28,9.28,0,0,1,5.22-.12,8.3,8.3,0,0,1,3.56,2.25,18.73,18.73,0,0,1,4,7.82C61.5,262.83,62.32,271,63.16,279s1.44,16.32,1.85,24.5.73,16.47,1.52,24.67c.1,1,.23,2,.36,3,.09.68,1.14.68,1.09,0C67.3,322.69,66.91,314.21,66.53,305.71Z"/><path class="cls-8" d="M38.93,249.82s4.83-8.93-.87-11.8S13.27,256.46,7.7,287.6c0,0,30.82-13.63,41.28-27.22S47.59,243.8,38.93,249.82Z"/><path class="cls-5" d="M43.47,257.08c-3.47,0-6.92-.26-10.39-.24l2-2.23a32.28,32.28,0,0,0,2.71-3.14c0-.08-.05-.18-.12-.12A23.24,23.24,0,0,0,35,254c-.87.92-1.74,1.84-2.6,2.77-1.32,1.43-2.62,2.89-3.91,4.35,0-.14,0-.28,0-.42,0-.61,0-1.21,0-1.82l0-3.53c0-2.38,0-4.77.19-7.15,0-.09-.14-.08-.15,0-.16,2.39-.41,4.76-.53,7.16-.05,1.17-.08,2.35-.1,3.52,0,.61,0,1.22,0,1.82,0,.33,0,.68,0,1l-.62.68c-2.76,3.16-5.39,6.43-7.95,9.75,0-.18,0-.37,0-.55l-.12-1.1c-.09-.79-.2-1.58-.32-2.38s-.23-1.48-.35-2.22a24,24,0,0,1-.41-2.52.07.07,0,1,0-.14,0,21.7,21.7,0,0,1,.29,2.54l.21,2.29c.07.76.14,1.52.22,2.28,0,.37.07.74.11,1.1,0,.19,0,.37.06.55a1.07,1.07,0,0,0,.15.44l-1.32,1.72c-1.74,2.31-3.46,4.65-5.18,7,0,.07.05.17.11.1,1.62-2.12,3.29-4.2,5-6.27,1.27.06,2.56,0,3.83-.06s2.67,0,4,0a.07.07,0,1,0,0-.14l-4,.05c-1.22,0-2.47-.06-3.69,0,1.49-1.81,3-3.61,4.51-5.41.55-.65,1.1-1.31,1.66-2a7.94,7.94,0,0,0,1.54.05h1.83c1.13,0,2.27,0,3.41-.05,2.35,0,4.71-.11,7.06-.12a.07.07,0,0,0,0-.14c-2.36,0-4.71-.13-7.07-.19-1.14,0-2.28-.07-3.42-.08l-1.82,0c-.35,0-.7,0-1,0,1.29-1.53,2.58-3.07,3.88-4.6a.27.27,0,0,0,.07-.08q1.89-2.23,3.8-4.46c.18-.2.36-.4.53-.61,3.59.12,7.18-.12,10.77,0A.07.07,0,0,0,43.47,257.08Z"/><path class="cls-5" d="M41.69,263.2h-.84c-.08,0-.08.13,0,.13h.84C41.79,263.35,41.79,263.2,41.69,263.2Z"/><path class="cls-5" d="M39.83,263.21c-1.11,0-2.22,0-3.33-.07l-1.67-.05a6.1,6.1,0,0,0-1.54,0,.05.05,0,0,0,0,.1,5.73,5.73,0,0,0,1.55.11l1.66,0c1.11,0,2.22,0,3.33,0A.07.07,0,0,0,39.83,263.21Z"/><path class="cls-5" d="M30.14,273.61a47.23,47.23,0,0,0-6.82-.61,0,0,0,0,0,0,.05c2.27.21,4.54.34,6.78.7A.07.07,0,1,0,30.14,273.61Z"/><path class="cls-5" d="M20.87,263.7c0-.2,0-.4-.07-.6-.05-.44-.13-.89-.2-1.33-.13-.85-.28-1.69-.44-2.53,0-.08-.15-.06-.14,0,.11.87.2,1.74.28,2.62l.12,1.28a3.53,3.53,0,0,0,.17,1.22c.06.14.26.08.3,0A1.54,1.54,0,0,0,20.87,263.7Z"/><path class="cls-5" d="M66.23,238.35c-1.1-2.06-2.51-4.77-5.26-4.6-2.27.15-3.3,2.46-3.78,4.38-1.51,5.93-1.61,12.19-1.9,18.27C54.67,269.24,54.11,282.1,54,295c0,3.56,0,7.13,0,10.69s0,7.3.26,10.93a.27.27,0,0,0,.53,0c0-3.11-.09-6.22-.1-9.33s0-6.07.06-9.11q.15-9.21.49-18.43c.23-6.11.5-12.22.76-18.32l.39-9.15c.14-3,.26-5.92.6-8.86.19-1.65.44-3.29.78-4.92a6.85,6.85,0,0,1,1.42-3.29,3.11,3.11,0,0,1,4-.29,8.49,8.49,0,0,1,2.85,3.55C66.15,238.5,66.27,238.43,66.23,238.35Z"/><path class="cls-8" d="M65.48,237.37s-2.26-8,2.75-4c8.33,6.65,8.62,21.13,8.62,21.13S62,245.9,60.2,240.22C57.46,231.77,65.48,237.37,65.48,237.37Z"/><path class="cls-5" d="M73.74,248.56l-.42-.65a5.14,5.14,0,0,0,0-.68c0-.35,0-.69,0-1,0-.67,0-1.35.07-2,0-.09-.13-.09-.14,0,0,.66-.06,1.33-.08,2l0,1c0,.13,0,.28,0,.43-.58-.9-1.18-1.8-1.8-2.67-.18-.26-.37-.51-.55-.76a16.23,16.23,0,0,1,0-2.61c0-.93,0-1.86,0-2.79,0-.09-.14-.08-.14,0,0,1-.07,1.93-.12,2.9a17.72,17.72,0,0,0-.06,2.06C69,241.78,67.5,239.9,66,238c0-.06-.16,0-.11.09,1,1.2,1.86,2.44,2.75,3.69-1.74-.41-3.51-.64-5.28-.9-.09,0-.13.12,0,.14,1.88.28,3.72.75,5.57,1.16h0c.71,1,1.42,2,2.11,3,.29.41.56.83.84,1.24h-.08l-.57-.08c-.41-.05-.82-.08-1.23-.11-.86-.07-1.71-.11-2.57-.16a.07.07,0,0,0,0,.14c.85,0,1.68.09,2.52.18.44,0,.88.1,1.33.16l.57.07.17,0,1.43,2.1c.83,1.23,1.58,2.56,2.47,3.75a.07.07,0,0,0,.12-.07A39.74,39.74,0,0,0,73.74,248.56Z"/><path class="cls-5" d="M70.05,239.53c0-.31,0-.62,0-.93a14.28,14.28,0,0,1,.08-2,.07.07,0,1,0-.14,0c0,.64-.07,1.29-.1,1.94,0,.32,0,.64,0,1,0,.15,0,.3,0,.45a1.41,1.41,0,0,0,0,.46.06.06,0,0,0,.12,0,1.25,1.25,0,0,0,0-.43Z"/><path class="cls-5" d="M68.22,242.84c-.55-.09-1.12-.12-1.67-.16s-1.22-.11-1.83-.19c-.1,0-.12.14,0,.14,1.17.08,2.33.29,3.51.33C68.27,243,68.28,242.86,68.22,242.84Z"/><path class="cls-5" d="M72.87,242.89a.8.8,0,0,1,0,.31v.26c0,.19,0,.37,0,.56v.56a1.34,1.34,0,0,0,0,.49,0,0,0,0,0,.06,0,.5.5,0,0,0,0-.24v-.25c0-.19,0-.38,0-.56v-.82c0-.08,0-.24,0-.31S72.78,242.76,72.87,242.89Z"/><path class="cls-5" d="M66.57,281c-3.11-2.33-5.91-5.69-10.1-5.86-3.46-.14-5.88,2.47-7.26,5.37a30.75,30.75,0,0,0-1.7,4.77q-.93,3.29-1.76,6.6Q44.11,298.39,43,305c-.42,2.46-.81,4.92-1.12,7.4a62.31,62.31,0,0,0-.73,7.58.39.39,0,0,0,.77.09c.43-2.07.6-4.21.91-6.31s.62-4.2,1-6.3q1.06-6.3,2.48-12.53c.89-3.91,1.77-7.89,3-11.71.9-2.73,2.36-5.93,5.31-6.91,4.5-1.5,8.58,2.31,11.87,4.78C66.55,281.16,66.65,281.06,66.57,281Z"/><path class="cls-8" d="M63.35,278.77s-2.87-8.2,1.28-9.81C70.86,266.55,87.15,284.9,84,313c0,0-12.59-6.94-21.88-14.73s-11.67-18-7.58-20.62S63.35,278.77,63.35,278.77Z"/><path class="cls-5" d="M82.08,307a22,22,0,0,0-1.52-2.83c-.53-1-1.07-1.92-1.62-2.87-1.09-1.85-2.16-3.71-3.27-5.54l-.54-.89c0-.11,0-.22.07-.33l.18-.81c.14-.61.25-1.23.36-1.84.23-1.2.43-2.42.76-3.6a.07.07,0,0,0-.14,0c-.26,1.2-.64,2.39-1,3.56-.18.58-.37,1.16-.52,1.75,0,.2-.1.4-.16.6-1.33-2.2-2.69-4.38-4.16-6.49a2.88,2.88,0,0,0,.14-.9l.15-1.23c.11-.93.21-1.85.35-2.77a52.06,52.06,0,0,1,1-5.39c0-.09-.11-.11-.14,0-.44,1.77-.93,3.54-1.27,5.33-.16.88-.32,1.77-.44,2.65-.06.45-.1.89-.15,1.34,0,.13,0,.26-.05.4-.45-.64-.9-1.27-1.38-1.9-1.43-1.89-2.92-3.73-4.43-5.57-.05-.07-.17,0-.11.08A97.28,97.28,0,0,1,71.25,290c.42.66.82,1.32,1.23,2l-.41-.05c-.52-.06-1.06-.1-1.58-.15l-3.18-.27c-2.12-.17-4.25-.3-6.36-.53-.09,0-.12.13,0,.14,2.15.25,4.28.59,6.41.9,1,.15,2.1.29,3.16.42a12.64,12.64,0,0,0,2.42.25q1.26,2,2.5,4.06a3.5,3.5,0,0,0-.56,0h-3c-1.37,0-2.73,0-4.1,0-.09,0-.07.14,0,.14,1.38,0,2.76.09,4.14.16.66,0,1.31.07,2,.12l1,.07a2.07,2.07,0,0,0,.86,0c.71,1.15,1.42,2.29,2.13,3.45s1.31,2.12,2,3.17a25.12,25.12,0,0,0,2.14,3.2A.08.08,0,0,0,82.08,307Z"/><path class="cls-5" d="M76.08,284.26a20.58,20.58,0,0,1-.56,2.68c-.24.91-.5,1.81-.8,2.7a.09.09,0,1,0,.17.05c.28-.88.53-1.78.75-2.68s.36-1.82.58-2.72C76.24,284.2,76.09,284.17,76.08,284.26Z"/><path class="cls-5" d="M66.83,289.75a1.07,1.07,0,0,0-.68-.25L65,289.34c-.74-.11-1.48-.19-2.21-.27-1.54-.18-3.07-.33-4.61-.52-.09,0-.11.12,0,.14,1.45.17,2.88.39,4.33.58l2.12.28,1,.11a3.49,3.49,0,0,1,1.16.2A.07.07,0,0,0,66.83,289.75Z"/><path class="cls-5" d="M76.06,302.12c-.73-.07-1.46-.09-2.18-.11l-1.1,0h-.53a3.82,3.82,0,0,1-.68,0c-.11,0-.12.16,0,.14a3.43,3.43,0,0,1,.64,0l.57,0,1.1.07c.73,0,1.45.09,2.18.09C76.14,302.27,76.14,302.12,76.06,302.12Z"/><path class="cls-5" d="M80.49,299c.09-.41.16-.82.24-1.24l.45-2.43a.07.07,0,0,0-.14,0l-.54,2.37c-.09.39-.17.79-.26,1.18,0,.18-.07.37-.11.55a1.62,1.62,0,0,0-.07.58c0,.07.11.12.16.05A2.86,2.86,0,0,0,80.49,299Z"/><polygon class="cls-6" points="78.82 323.2 78.12 334.81 76.05 369.12 33.64 369.12 31.57 334.81 30.87 323.2 78.82 323.2"/><polygon class="cls-5" points="78.82 323.2 78.12 334.81 31.57 334.81 30.87 323.2 78.82 323.2"/><rect class="cls-6" x="27.63" y="314.98" width="54.44" height="11.63"/></g><g id="Character_3" data-name="Character 3"><path class="cls-9" d="M210.22,312s-5.85,43.05-5.85,43.08c-.11,8.24-.35,15.45-.82,19.18a.13.13,0,0,1,0,.06,5.53,5.53,0,0,1-.64,2.53l-.05,0c-2.47,1.63-68.3,2.7-70.61,2s-.39-7.37,2.13-9.45,27.55-13.77,27.55-13.77l6.26-43Z"/><path class="cls-5" d="M204.28,360.38c-.13,6-.36,11-.73,13.88a.13.13,0,0,1,0,.06,5.53,5.53,0,0,1-.64,2.53s0,0,0,0c-2.48,1.63-68.31,2.7-70.62,2s-.39-7.37,2.13-9.45c1.21-1,7.57-4.18,13.87-7.24-2,1.57-4,3.5-3.09,4.28C146.77,367.83,186.69,366.39,204.28,360.38Z"/><path class="cls-5" d="M152,360.38s11.65-5.31,31.63,4.29"/><polygon class="cls-5" points="220.06 341.67 162.69 340.75 191.56 125.49 230.45 125.49 220.06 341.67"/><polygon class="cls-7" points="230.45 125.49 223.08 278.83 203.74 125.49 230.45 125.49"/><path class="cls-6" d="M217.3,331.7c-1.73-.19-3.5-.19-5.24-.25s-3.34-.1-5-.12c-3.46-.06-6.91-.12-10.37-.16-6.83-.06-13.66-.11-20.49-.09-3.88,0-7.74.12-11.62.3a.1.1,0,0,0,0,.19c6.87.41,13.73.52,20.61.6s13.66.12,20.49.11c1.92,0,3.83,0,5.75,0s3.94,0,5.87-.18A.18.18,0,0,0,217.3,331.7Z"/><path class="cls-6" d="M198.9,136.71c-3.38,24.44-6.51,48.92-9.83,73.37s-6.82,48.67-10.36,73c-2,13.65-4.07,27.28-5.9,40.94,0,.21.29.3.33.09,4.47-24.27,8-48.72,11.55-73.14s6.8-48.68,9.81-73.07c1.69-13.7,3.33-27.41,4.72-41.14C199.24,136.57,198.93,136.53,198.9,136.71Z"/><path class="cls-9" d="M230.5,312.63s5.52,41,5.52,41.07c0,8.24.24,15.46.69,19.18a.13.13,0,0,0,0,.06,5.79,5.79,0,0,0,.62,2.54s0,0,0,.06c2.46,1.64,61.24,3.14,63.56,2.42s.44-7.38-2.07-9.47-20.42-13.94-20.42-13.94l-6.91-43Z"/><path class="cls-5" d="M301,378c-2.31.72-61.09-.78-63.56-2.42,0,0,0,0,0-.06a5.59,5.59,0,0,1-.63-2.54.13.13,0,0,1,0-.06,103.78,103.78,0,0,1-.62-13c9.6,6.09,34.46,8.8,42.36,7.07,7-1.54,5.46-7.18,4-9.72,5.42,3.61,14.67,9.82,16.44,11.29C301.39,370.58,303.27,377.24,301,378Z"/><path class="cls-5" d="M282.44,357.2s-19.78-3.22-33.31,7.47"/><path class="cls-5" d="M195.51,125.45v0c.17.8,2.89,13.42,5.71,24.26,2.05,7.92,4.16,14.88,5.37,15.6,1.37.81,8.05,3.77,10.29,4.7l8.74,171.22L285,339.94,254,153.18l-5.24-27.73Z"/><path class="cls-6" d="M203.05,163.58A87.83,87.83,0,0,1,216.82,170a.16.16,0,0,1-.13.29c-4.64-2-9.37-3.9-13.89-6.15A.3.3,0,0,1,203.05,163.58Z"/><path class="cls-6" d="M201.65,131.81c0-.16.29-.2.29,0a155.06,155.06,0,0,0,.78,15.5c.22,2.39,2.14,15.6,6.28,14.63.69-.16,1.05-.84,1.16-1.89a16.66,16.66,0,0,0-.55-4.05c-.46-2.76-.83-5.53-1.07-8.33a76.21,76.21,0,0,1,.17-15.62.14.14,0,0,1,.27,0,142.55,142.55,0,0,0,1.26,21.56c.52,3.44,2.25,8.61-1.35,9.14s-6-8.13-6.47-10.49A79.51,79.51,0,0,1,201.65,131.81Z"/><path class="cls-6" d="M208.89,162.27a20.55,20.55,0,0,1,.93,2.74,6.24,6.24,0,0,1,.39,2.25.16.16,0,0,1-.29.06,8.1,8.1,0,0,1-1-2.19c-.31-.85-.65-1.69-.94-2.54A.46.46,0,0,1,208.89,162.27Z"/><path class="cls-6" d="M281.59,331.76c-1.73-.15-3.51-.09-5.25-.11s-3.33,0-5,0c-3.45,0-6.91.07-10.37.14-6.82.13-13.65.28-20.48.49-3.88.12-7.74.35-11.6.63a.1.1,0,1,0,0,.19c6.88.22,13.74.13,20.62,0s13.66-.28,20.48-.48l5.75-.2c1.94-.08,3.93-.11,5.86-.35A.18.18,0,0,0,281.59,331.76Z"/><path class="cls-6" d="M255.59,308.71c-.51-5.24-1.07-10.46-1.61-15.69q-1.62-15.54-3.34-31.06-3.4-31-7-62.1c-1.33-11.61-2.43-23.26-3.94-34.85,0-.1-.18-.1-.17,0,.9,10.48,2.18,20.92,3.24,31.38s2.08,20.71,3.16,31.06q3.23,31.07,6.62,62.11c.64,5.81,1.28,11.62,2,17.42s1.49,11.62,2.22,17.43c0,.14.24.14.22,0C256.5,319.17,256.11,313.93,255.59,308.71Z"/><path class="cls-5" d="M191.1,149.1l10.13.65,29.53,1.92L254,153.18l-5.24-27.73H195.51v0h-4Z"/><path class="cls-5" d="M205.28,17.16c-9.7,8.31-7,20.44-11.05,27-2.48,4-10.54,8.27-12.15,12.9-2.63,7.62,3.82,10.35,2.38,14.49-2,5.86-9.9,5.41-11.31,15s9.14,19.79,34.19,22.56,38.8-6.41,39.7-14.55-7.43-10.84-8-16.92c-.36-3.88,4.78-6.59,5-13.74s-6.7-9.47-7.7-15.53,2.21-20.82-6.7-28.35S210.06,13.06,205.28,17.16Z"/><path class="cls-5" d="M206.4,17.38A20.66,20.66,0,0,0,200,24.8a45.17,45.17,0,0,0-3.58,9.85,26.94,26.94,0,0,1-1.94,5.89,15.14,15.14,0,0,1-3.36,4.15c-2.71,2.45-6,4.32-8.38,7.07s-4.1,6.1-3.18,9.65c.5,1.93,1.78,3.51,2.57,5.31s1,3.84-.41,5.26c-1.26,1.21-3.07,1.77-4.49,2.76a15.78,15.78,0,0,0-3.66,3.54,12.32,12.32,0,0,0-2.31,9.64c1.48,7.79,8.79,12.22,15.54,15,.94.39,1.88.77,2.83,1.14.15.06.27-.15.12-.22-6.77-3-14.63-6.58-17.23-14.16a11.42,11.42,0,0,1,1.16-10,14.59,14.59,0,0,1,3.58-3.77c1.36-1,2.94-1.62,4.32-2.57a4.6,4.6,0,0,0,2.13-4.12,11.28,11.28,0,0,0-1.86-5,9.21,9.21,0,0,1-1.6-5.24,10.13,10.13,0,0,1,2-5c2.11-3,5.23-4.94,8-7.2a16.93,16.93,0,0,0,6.1-8.44c.52-1.78.84-3.62,1.29-5.42a46.3,46.3,0,0,1,1.49-4.95,23.64,23.64,0,0,1,5.29-8.73,13.47,13.47,0,0,1,2.07-1.7C206.57,17.45,206.48,17.32,206.4,17.38Z"/><path class="cls-5" d="M248.15,88.6A9.35,9.35,0,0,0,246.42,85c-.87-1.11-1.92-2-2.89-3.06a7.14,7.14,0,0,1-2.05-3.38A6.74,6.74,0,0,1,242.59,74a36,36,0,0,0,2.24-4.37,15.68,15.68,0,0,0-1.57-14c-.85-1.4-1.81-2.73-2.68-4.12a20.16,20.16,0,0,1-2.22-4.86c-1.13-3.78-1.37-7.75-2.29-11.58A60.24,60.24,0,0,0,232,23.75c0-.1-.18,0-.13.08a51.47,51.47,0,0,1,3.55,10.26c.8,3.35,1.11,6.77,1.7,10.15a25.56,25.56,0,0,0,1.27,4.88,26.39,26.39,0,0,0,2.17,4.19c1.7,2.76,3.44,5.48,3.91,8.75a15.39,15.39,0,0,1-1.61,9.38c-1.32,2.49-3.17,5.23-2,8.15,1,2.47,3.32,4,4.89,6a9.92,9.92,0,0,1,1.69,7.92c-1.35,7-8.37,10.49-15,10.84a.16.16,0,0,0,0,.32c5.72-.07,12-2.58,14.63-7.94A12.14,12.14,0,0,0,248.15,88.6Z"/><path class="cls-9" d="M210.89,67.1c-1.78,7.28-22.93,75.52-27.12,76.47-12.33,2.78-27.15,4.81-26.93-5.3.35-15.88,30.2-57.68,44.5-71.57C210.75,57.55,212.65,59.91,210.89,67.1Z"/><path class="cls-9" d="M210.89,67.1c-1.78,7.28-22.93,75.52-27.12,76.47-12.33,2.78-27.15,4.81-26.93-5.3.35-15.88,30.2-57.68,44.5-71.57C210.75,57.55,212.65,59.91,210.89,67.1Z"/><path class="cls-1" d="M156.75,141.91c-5.11-18,38.16-70.92,46.58-77.65s9.51-4.63,7.8,3.88S189,141.07,184.64,143.4,159.08,150.07,156.75,141.91Z"/><path class="cls-8" d="M192.12,107.93l-4.75,32.68s53.26.79,66.48-.14c0,0-10.78-61.1-25-76.53-7.11-7.72-15.46-7.15-20.78-1.75-1.34,1.37-17.41,22.6-19.1,30.71C187.49,100.05,192.12,107.93,192.12,107.93Z"/><path class="cls-1" d="M223,59.41s-6.2,170.36-2.91,178.45S272.85,254,272.85,254,258.32,132,245.14,95C232.92,60.72,223,59.41,223,59.41Z"/><path class="cls-10" d="M256,164.16a114.73,114.73,0,0,1-13.55,1.06c-6.34,0-12.63-.62-14.45-.65-.16,0-.24.54-.13.55a142.54,142.54,0,0,0,14.47,1,76,76,0,0,0,13.2-1.25c0,1.34,0,2.39,0,3.73-4.47.87-13.09,2.36-27,.57,0-.56,0-3.55-.08-4.37,0-.13-.54-.15-.56,0-.11.81-.44,8-.45,9.46,0,3.6.22,13.76,1.11,15.73,2,4.46,10.71,4.47,13.12,4.49s10.14.26,13-2.58c1.55-1.51,1.88-9.75,1.65-17C256.25,171.45,256.24,164.22,256,164.16Zm-13.69,29.47c-7.68,0-11-1.59-12.2-3.2-1.38-1.86-1.5-5.12-1.6-8.71-.08-2.82,0-11.66,0-11.83,4.47.9,16.28,2.13,27-.37,0,4.19,0,7.54,0,11.73,0,3-.19,8.12-1.73,9.89C252.57,192.62,247.89,193.63,242.34,193.63Z"/><path class="cls-1" d="M190.31,238.61c-2.74,6.49-19.12,10.89-19.12,10.89l20.64-142.17A21.27,21.27,0,0,1,189,93c1.39-8,18.08-31.11,20.78-32.3A258.72,258.72,0,0,0,203.94,97C199.31,147,193.3,231.55,190.31,238.61Z"/><path class="cls-5" d="M194.21,82.24c1.49-2.37,3-4.72,4.48-7.1,0-.07-.07-.15-.12-.08-1.49,2-2.94,3.93-4.38,5.92.48-1.06.94-2.13,1.37-3.22.05-.12-.12-.23-.18-.1-.66,1.4-1.26,2.82-1.85,4.25a39.73,39.73,0,0,0-3.4,5.63,19.66,19.66,0,0,0-1.81,13.29,17.36,17.36,0,0,0,1.33,3.63c.4.79,1.68,2.5,1.67,2.55-.84,4.66-1.46,9.37-2.12,14.06s-1.34,9.48-1.89,14.24c-.31,2.69-.51,5.41-.91,8.09,0,.1.14.14.16,0,.34-2.34.84-4.65,1.26-7s.81-4.66,1.18-7c.76-4.72,1.44-9.45,2.12-14.18.39-2.68.81-5.36,1.11-8a23.07,23.07,0,0,0-1.53-2.94,18.43,18.43,0,0,1-1.17-3.08,17.15,17.15,0,0,1-.56-6.61C189.49,90.07,191.83,86,194.21,82.24Z"/><path class="cls-10" d="M209.6,61.26q-2.35,3.57-4.78,7.07c-1.63,2.33-3.22,4.69-4.88,7l0-.55,4,4.18.33.35-.35.34c-1.68,1.63-3.39,3.22-5.09,4.83l.14-.42c.62,4.33,1.28,8.66,1.83,13s1.14,8.68,1.62,13c-.83-4.3-1.58-8.62-2.3-12.93s-1.4-8.65-2.09-13l0-.24.18-.17c1.69-1.62,3.37-3.25,5.08-4.85l0,.69-3.91-4.25L199,75.1l.21-.29c1.68-2.29,3.43-4.54,5.13-6.81S207.83,63.49,209.6,61.26Z"/><path class="cls-9" d="M227.48,71.49c4.55,6,25.07,29.83,26.37,31.93.88,1.41-4.07,8.06-4,9,.44,3.9,8.47,28.93,11.79,26.2,4.37-3.58,24.49-28.53,21.57-39.27s-48.73-36.55-55.77-38.63S223,65.62,227.48,71.49Z"/><path class="cls-1" d="M253.32,103.75c0-1.52-24-27.08-28.41-35.61s-2.17-10.36,9.09-4.88,45.83,25.55,49.93,35.53-18.4,37.41-18.4,37.41l-15.74-26.49S253.3,105,253.32,103.75Z"/><path class="cls-5" d="M268.56,128.56c-5.43-10.09-12.66-19.87-13.8-21.66-.06-.09-.19,0-.13.09,1.21,1.7,8.27,13.78,13.79,21.67C268.49,128.75,268.61,128.65,268.56,128.56Z"/><path class="cls-5" d="M244.41,92.7c-1-1.24-1.94-2.51-3-3.73s-2.1-2.46-3.17-3.67q-3.22-3.69-6.58-7.27s-.09,0-.06.06q1.73,2.16,3.49,4.3l0,0c-.74-.62-1.53-1.19-2.33-1.75,0,0-.07,0,0,.07.69.68,1.41,1.35,2.16,2l1.1.9a3.92,3.92,0,0,0,.32.25c.48.57.95,1.14,1.43,1.7,1,1.23,2.09,2.46,3.17,3.67s2.26,2.4,3.38,3.62C244.35,92.86,244.47,92.77,244.41,92.7Z"/><path class="cls-9" d="M247.29,145.17c-2.34-2,1.38-3.62,1.38-3.62s-5.91,1-7.52-2,3-4.69,3.34-4.82c-.31,0-5.76.84-7.07-2.35s3.53-4.32,3.85-4.39c-.31,0-4.41-.7-4.85-3.35-.76-4.56,11.14-3.68,14-6.08,0,0-.47-6-.54-6.13a6.79,6.79,0,0,0,3,3.25c2.48,1,4.73,1.71,5.63,3.06a3.4,3.4,0,0,1-.09,4s3.28,0,4.39,2.49c.56,1.27-1,3.31-1,3.31a4,4,0,0,1,3.47,2.38c.69,1.81-1,3.58-1,3.58s2.47,1.27,2.56,3.35C267.14,142.08,252.31,149.49,247.29,145.17Z"/><path class="cls-5" d="M264.16,134.87s.09,0,0,.07a28.81,28.81,0,0,1-15.73,6.72c-.19,0-.29-.28-.09-.33A59,59,0,0,0,264.16,134.87Z"/><path class="cls-5" d="M262,128.59c.06,0,.11,0,.06.1A27,27,0,0,1,244.4,135c-.22,0-.42-.25-.16-.25C248.61,134.56,257.39,131.38,262,128.59Z"/><path class="cls-5" d="M240.82,127.83c6.29,0,12-2,17.47-4.87.07,0,.11.06.06.11-2.31,2.15-6,3.63-9,4.53a16.55,16.55,0,0,1-8.52.45C240.7,128,240.68,127.83,240.82,127.83Z"/><path class="cls-5" d="M264.54,134.55a4,4,0,0,0,1.39-3.94,3,3,0,0,0-1.27-1.65,5.27,5.27,0,0,0-2.4-.51,3.92,3.92,0,0,0,.58-4.38,2.94,2.94,0,0,0-1.76-1.22,9.67,9.67,0,0,0-2.54-.19,3.51,3.51,0,0,0,1.08-2.92,3.77,3.77,0,0,0-2-2.77,18.32,18.32,0,0,0-3.9-1.4,8.93,8.93,0,0,1-2-.8c-.56-.34-1.35-1-1.43-1.67,0-.14-.21,0-.14,0,.32.43.52.92.89,1.33a6.5,6.5,0,0,0,1.28,1.06A28.45,28.45,0,0,0,256,117.1a5.28,5.28,0,0,1,2.64,2.22,3.19,3.19,0,0,1-.28,3.36.08.08,0,0,0,.07.13,9.38,9.38,0,0,1,2.23.52,3.2,3.2,0,0,1,1.46,1.17,4.09,4.09,0,0,1-.28,4.09,7.19,7.19,0,0,1,2.3.89,3,3,0,0,1,1,1.37,3.54,3.54,0,0,1-.8,3.64l0,0h0v0a.05.05,0,0,0,0,.05h0s.78.44.82.45,0,0,0,0A6.7,6.7,0,0,0,264.54,134.55Z"/><path class="cls-10" d="M223.75,60.78c1.21,2.57,2.4,5.16,3.55,7.76s2.32,5.19,3.42,7.81l.14.33-.3.2-4.79,3.24.14-.67c1.3,1.94,2.56,3.91,3.83,5.88l.12.19-.06.21c-1.29,4-2.53,8-3.87,11.93s-2.67,7.93-4.08,11.86c1.08-4,2.23-8.06,3.41-12.07s2.41-8,3.63-12l.05.4c-1.29-1.95-2.58-3.9-3.84-5.87l-.27-.41.4-.26,4.85-3.15-.16.52c-1.09-2.62-2.09-5.28-3.15-7.92S224.73,63.45,223.75,60.78Z"/><path class="cls-6" d="M228.85,65.73c-.25-5.82-7.5-7.34-11.89-7.46-5.21-.14-8.57.67-10.49,5.91-2,5.53-2.71,11.77-3.09,17.62a.85.85,0,0,1-1.7-.09c.44-6.74.77-19.26,6.95-23.58,5.7-4,21.5-2.18,21.92,7.69,0,1.09-1.66,1-1.7-.09Z"/><path class="cls-5" d="M198.46,84.77a3.91,3.91,0,1,0,4.1-3.71A3.93,3.93,0,0,0,198.46,84.77Z"/><path class="cls-1" d="M200,84.85a2.35,2.35,0,0,0,4.7.23,2.35,2.35,0,1,0-4.7-.23Z"/><path class="cls-4" d="M225,84.48c-2.48,16.71-1.38,20.6.17,22.32a10.91,10.91,0,0,0,4.15,2.65l.38-1.13-.19.57.19-.57A9.66,9.66,0,0,1,226,106c-1.12-1.24-2.33-4.8.12-21.35Z"/><rect class="cls-5" x="228.43" y="106.9" width="2.53" height="4.11" rx="1.11" transform="translate(40.67 278.96) rotate(-67.34)"/><path class="cls-4" d="M235.62,83.71c4.57,11.88,6.09,18.49,4.78,20.81a9.71,9.71,0,0,1-3.05,3.06l.61,1a11,11,0,0,0,3.47-3.5c1.56-2.76.2-9.08-4.7-21.81Z"/><rect class="cls-5" x="236.21" y="106.14" width="2.53" height="4.11" rx="1.11" transform="translate(286.2 364.56) rotate(-125.26)"/><path class="cls-5" d="M237.07,82.73a67.25,67.25,0,0,0-3-7.77,7,7,0,0,0-2.68-2.63c-.23,0-.36-2.07-.43-3.77-.05-1.49-.09-3.24-.5-3.68a1.17,1.17,0,0,0-1.62.1c-.36.48-.19,2.22-.08,3.71.13,1.7.25,3.77,0,3.79a7.68,7.68,0,0,0-2.22,3,55.74,55.74,0,0,0-1.93,8.3c-.18,1.78.41,1.93.93,2,.73.16,1.13-.37,1.47-2.35.54-3.15,1.08-8.41,3.2-8.63h0c2.13,0,3.59,5.32,4.6,8.28.63,1.85,1,2,1.76,1.74C237.09,84.65,237.59,84.38,237.07,82.73Z"/><path class="cls-9" d="M221.74,60.43c-.39,1-4.22,7.71-9,7.71-3,0-2.28-10.33-2.28-10.33l0-.64-.7-9,11.2-5.1,1.6-.66s0,2.48,0,5.56v.44c0,.17,0,.34,0,.5,0,.46,0,.93,0,1.4s0,.71,0,1.08,0,.74,0,1.12A58.68,58.68,0,0,1,221.74,60.43Z"/><path class="cls-5" d="M222.54,48a18.14,18.14,0,0,1-12.14,9.21l-.7-9,11.2-5.1,1.6-.66S222.53,44.88,222.54,48Z"/><path class="cls-9" d="M198.44,34.75c-1.48,15.79,7.82,18.46,11.22,18.77,3.09.29,13.65.86,16.75-14.69S222.63,17.6,215.6,16.58,199.91,19,198.44,34.75Z"/><path class="cls-5" d="M203.55,31.23a9.55,9.55,0,0,0,1.07-.18,1.82,1.82,0,0,0,1.07-.4.56.56,0,0,0,0-.69,1.38,1.38,0,0,0-1.36-.38,2.07,2.07,0,0,0-1.32.68A.6.6,0,0,0,203.55,31.23Z"/><path class="cls-5" d="M214.42,31.66a9.68,9.68,0,0,1-1.06-.27,1.74,1.74,0,0,1-1-.48.56.56,0,0,1,0-.68,1.4,1.4,0,0,1,1.39-.28,2.05,2.05,0,0,1,1.26.78A.6.6,0,0,1,214.42,31.66Z"/><path class="cls-5" d="M212,35.58s.08.05.08.1c-.1,1.07,0,2.32.92,2.74,0,0,0,.07,0,.06C211.81,38.24,211.74,36.58,212,35.58Z"/><path class="cls-5" d="M213,34.51c1.74,0,1.67,3.46.06,3.48S211.57,34.53,213,34.51Z"/><path class="cls-5" d="M213.71,34.71c.3.2.59.56,1,.6s.75-.3,1-.65c0,0,.06,0,.06,0,0,.67-.28,1.35-1,1.43s-1.11-.52-1.26-1.2C213.48,34.81,213.59,34.63,213.71,34.71Z"/><path class="cls-5" d="M205.49,35.26s-.09.05-.09.1c0,1.08-.14,2.32-1.12,2.66,0,0,0,.07,0,.06C205.48,37.93,205.68,36.28,205.49,35.26Z"/><path class="cls-5" d="M204.54,34.12c-1.74-.15-1.92,3.33-.31,3.47S206,34.25,204.54,34.12Z"/><path class="cls-5" d="M203.8,34.31c-.28.17-.57.49-.9.5s-.65-.39-.87-.76c0,0-.05,0-.06,0-.05.67.13,1.37.76,1.53s1-.4,1.23-1C204,34.44,203.92,34.24,203.8,34.31Z"/><path class="cls-5" d="M211.12,44.17c-.25.25-.5.61-.89.65a3,3,0,0,1-1.17-.24s-.06,0,0,.05a1.45,1.45,0,0,0,1.38.56,1.16,1.16,0,0,0,.83-1C211.24,44.15,211.16,44.13,211.12,44.17Z"/><path class="cls-5" d="M206.74,40.11s-.27,1.61-.3,2.37c0,.07.18.11.44.13h0a3.59,3.59,0,0,0,3.55-1.23c.06-.07,0-.15-.11-.11a5.39,5.39,0,0,1-3.33.84c0-.21.57-2.73.45-2.75a6.51,6.51,0,0,0-1.74.34c.48-3.36,1.49-6.62,1.92-10a.1.1,0,0,0-.2-.05,54.86,54.86,0,0,0-2.52,10.64C204.85,40.75,206.43,40.23,206.74,40.11Z"/><path class="cls-5" d="M207.4,42.22a3.9,3.9,0,0,0,1.47,1.33,1.77,1.77,0,0,0,1,.14c.79-.14.86-.84.76-1.46a4,4,0,0,0-.27-.95A5,5,0,0,1,207.4,42.22Z"/><path class="cls-11" d="M208.87,43.55a1.77,1.77,0,0,0,1,.14c.79-.14.86-.84.76-1.46A1.8,1.8,0,0,0,208.87,43.55Z"/><path class="cls-5" d="M199.37,29.17c1.86.6,8.49-3.52,11.15-9.45a14.88,14.88,0,0,0,4.68,9c4.32,4,8.42,4.3,8.42,4.3s1.28,7.14,2.46,7.3S234.69,16,213.91,15.73c0,0-6.08-.61-9.88,2.94S199.37,29.17,199.37,29.17Z"/><path class="cls-9" d="M223.79,38.25s3.49-4.93,5.73-3.68-.41,8.41-3.06,9.37a2.67,2.67,0,0,1-3.58-1.46Z"/><path class="cls-5" d="M228.71,36.61s0,0,0,.07c-1.85.73-2.84,2.44-3.53,4.22a1.48,1.48,0,0,1,2.22-.4c.05,0,0,.11,0,.1a1.65,1.65,0,0,0-1.82.57,7.46,7.46,0,0,0-.88,1.46c-.09.16-.39.07-.32-.12v0C224.32,40.11,226.18,36.83,228.71,36.61Z"/><path class="cls-9" d="M210.37,60.29c-.69.36.32,13.22.76,13.94.16.27,8.6-6.4,11.41-15C222.54,59.26,217.56,56.55,210.37,60.29Z"/><rect class="cls-6" x="163.97" y="90.82" width="40.32" height="52.48" transform="translate(-26.48 60.02) rotate(-17.29)"/><rect class="cls-10" x="166.67" y="89.36" width="19.11" height="5.79" transform="translate(371.94 127.73) rotate(162.64)"/><polygon class="cls-10" points="170.38 91.05 172.63 90.34 171.83 87.8 177.29 86.09 178.09 88.64 180.33 87.94 178.88 83.3 168.9 86.42 170.38 91.05"/><path class="cls-9" d="M203,105.13a4.17,4.17,0,0,1,.79,4.69,6.18,6.18,0,0,1,3.58,2.2c1.49,2.06-1.09,5.31-1.09,5.31a7.52,7.52,0,0,1,3.41,2.92c1.23,2.11-.9,5.76-.9,5.76a6.69,6.69,0,0,1,1.38,4.45c-.41,4.28-6.28,7.2-10,9.1s-16,3.8-18.31,4.41l-12.39-23.71s14.22-13.24,18.9-14.85C192.35,104.05,200.67,102.89,203,105.13Z"/><path class="cls-9" d="M171.19,118.72c-4.24,3.26-17,15.81-14,22.2s13.22,5.75,27.43,2.48Z"/><path class="cls-1" d="M171.19,118.72c-4.24,3.26-17.64,15.51-14.25,23.72,2.69,6.52,14.74,7.31,28.95,4Z"/><path class="cls-5" d="M178.58,146.71c-4.44-10.56-10.72-21-11.68-22.87a.08.08,0,1,0-.13.08c1,1.81,6.91,14.5,11.66,22.88C178.49,146.9,178.62,146.82,178.58,146.71Z"/><path class="cls-5" d="M203.45,109.53c-4.53.43-8.69,2.19-12.95,3.71-.09,0,0,.18.06.14,4.21-1.56,8.68-2.26,12.94-3.64A.11.11,0,0,0,203.45,109.53Z"/><path class="cls-5" d="M206.08,117.05a11.78,11.78,0,0,0-3,1q-1.53.63-3,1.32c-2,.91-4,1.86-5.95,2.88-.09,0,0,.19,0,.14,2-.9,4-1.77,6.06-2.59l3.07-1.21a14.14,14.14,0,0,0,2.85-1.24A.16.16,0,0,0,206.08,117.05Z"/><path class="cls-5" d="M208.73,126a8.2,8.2,0,0,0-2.6,1l-2.73,1.28c-1.82.85-3.64,1.69-5.49,2.48-.09,0,0,.18.05.14,1.89-.78,3.78-1.54,5.66-2.35l2.76-1.19a7.89,7.89,0,0,0,2.4-1.31S208.78,126,208.73,126Z"/><path class="cls-5" d="M170.63,118.94a40.39,40.39,0,0,0-4.22,3.58l-1,1-.43.28c-.6.4-1.2.81-1.76,1.26a33.21,33.21,0,0,0-3.08,2.85c-.07.07,0,.18.12.11a27,27,0,0,1,3.28-2.66l.46-.31c-.56.61-1.1,1.24-1.6,1.89a54,54,0,0,0-3.72,5.41c-.05.09.09.16.14.07,2.07-3.32,11.09-12.2,12.08-13.27S171.38,118.33,170.63,118.94Z"/></g><g id="Heart"><path class="cls-8" d="M308.63,45.71a73.87,73.87,0,0,1-23.71,20.57,73.92,73.92,0,0,1-23.69-20.57c-8.34-11-7.93-28.33,4-32.07,13.2-4.13,19.68,15.73,19.68,15.73s6.59-20,19.7-15.73C316.52,17.51,317,34.67,308.63,45.71Z"/><polygon class="cls-3" points="275.61 57.55 272.01 42.57 269.67 47.85 255.13 47.85 255.13 46.16 268.57 46.16 272.5 37.33 275.3 49.01 279.27 24.8 282.77 43.95 285.54 35.96 289.9 49.04 290.87 46.15 314.74 46.15 314.74 47.84 292.08 47.84 289.9 54.38 285.51 41.21 282.26 50.58 279.36 34.7 275.61 57.55"/></g><g id="Bag"><polygon class="cls-8" points="383.71 300.34 383.71 315.66 377.59 315.66 377.59 306.94 356.38 306.94 356.38 315.66 350.26 315.66 350.26 300.34 383.71 300.34"/><rect class="cls-12" x="350.26" y="308.92" width="6.12" height="6.74"/><rect class="cls-12" x="377.59" y="308.92" width="6.12" height="6.74"/><polygon class="cls-8" points="412.35 369.03 321.64 369.03 326.64 312.29 407.35 312.29 412.35 369.03"/><polygon class="cls-12" points="367 369.03 321.64 369.03 326.64 312.29 367 312.29 367 369.03"/><polygon class="cls-13" points="380.96 337.36 380.96 343.96 370.3 343.96 370.3 354.62 363.7 354.62 363.7 343.96 353.04 343.96 353.04 337.36 363.7 337.36 363.7 326.7 370.3 326.7 370.3 337.36 380.96 337.36"/></g></g></svg>