<svg xmlns="http://www.w3.org/2000/svg" viewBox="0 0 280.15 286.51"><defs><style>.cls-1{opacity:0.7;}.cls-2{fill:#ccc;}.cls-3{fill:#56b3f7;}.cls-4{fill:#32678f;}.cls-5{fill:#ededed;}.cls-6{fill:#f56060;}.cls-7{fill:#fff;}.cls-8{fill:#f2f2f2;}</style></defs><title>homepage</title><g id="Layer_2" data-name="Layer 2"><g id="layer"><g class="cls-1"><circle class="cls-2" cx="78.56" cy="153.36" r="23.72" transform="translate(-88.75 194.58) rotate(-76.72)"/></g><circle class="cls-3" cx="78.2" cy="151.7" r="23.72" transform="translate(-87.41 192.95) rotate(-76.72)"/><g class="cls-1"><circle class="cls-2" cx="27.5" cy="136.09" r="18.6"/></g><circle class="cls-4" cx="27.14" cy="134.43" r="18.6"/><g class="cls-1"><circle class="cls-2" cx="114.58" cy="260.54" r="21.79" transform="translate(-150.67 157.33) rotate(-45)"/></g><circle class="cls-5" cx="114.22" cy="258.87" r="21.79" transform="translate(-149.6 156.59) rotate(-45)"/><g class="cls-1"><circle class="cls-2" cx="192.55" cy="154.94" r="21.79"/></g><circle class="cls-5" cx="192.19" cy="153.28" r="21.79" transform="translate(-1.14 305.11) rotate(-76.72)"/><g class="cls-1"><circle class="cls-2" cx="142.89" cy="78.85" r="21.79" transform="translate(33.32 199.8) rotate(-76.72)"/></g><circle class="cls-4" cx="142.53" cy="77.19" r="21.79" transform="translate(34.66 198.17) rotate(-76.72)"/><g class="cls-1"><circle class="cls-2" cx="251.7" cy="187.67" r="21.79" transform="translate(-58.98 232.95) rotate(-45)"/></g><circle class="cls-5" cx="251.34" cy="186.01" r="21.79" transform="translate(27.48 404.3) rotate(-80.78)"/><g class="cls-1"><circle class="cls-2" cx="49.31" cy="208.75" r="25.8"/></g><circle class="cls-5" cx="48.95" cy="207.08" r="25.8"/><g class="cls-1"><circle class="cls-2" cx="210.33" cy="193.81" r="10.1" transform="translate(-14.66 370.38) rotate(-80.78)"/></g><circle class="cls-3" cx="209.97" cy="192.14" r="10.1" transform="translate(-13.32 368.62) rotate(-80.78)"/><g class="cls-1"><circle class="cls-2" cx="239.59" cy="227.91" r="12.11" transform="translate(-90.98 236.17) rotate(-45)"/></g><circle class="cls-4" cx="239.23" cy="226.24" r="12.11"/><g class="cls-1"><circle class="cls-2" cx="177.36" cy="35.24" r="18.18" transform="translate(27.03 135.73) rotate(-45)"/></g><circle class="cls-5" cx="177" cy="33.57" r="18.18" transform="translate(28.1 134.99) rotate(-45)"/><g class="cls-1"><circle class="cls-2" cx="110.95" cy="187.57" r="12.95" transform="translate(-91.97 267.04) rotate(-80.78)"/></g><circle class="cls-5" cx="110.56" cy="185.79" r="12.95"/><g class="cls-1"><circle class="cls-2" cx="154.94" cy="185.61" r="18.07"/></g><circle class="cls-4" cx="154.58" cy="183.94" r="18.07"/><g class="cls-1"><circle class="cls-2" cx="251.7" cy="142.84" r="12.11" transform="translate(54.86 354.99) rotate(-76.72)"/></g><circle class="cls-4" cx="251.34" cy="141.17" r="12.11" transform="translate(-34.89 106.93) rotate(-22.5)"/><g class="cls-1"><circle class="cls-2" cx="102.5" cy="31.68" r="12.11" transform="translate(48.12 124.16) rotate(-76.72)"/></g><circle class="cls-4" cx="102.14" cy="30.01" r="12.11" transform="translate(8.69 81.02) rotate(-45)"/><g class="cls-1"><circle class="cls-2" cx="145.11" cy="135.1" r="23.82" transform="translate(-19.71 245.28) rotate(-76.72)"/></g><circle class="cls-5" cx="144.75" cy="133.43" r="23.82" transform="translate(-18.37 243.65) rotate(-76.72)"/><g class="cls-1"><circle class="cls-2" cx="15.77" cy="180.13" r="10.84" transform="translate(-122.75 63.91) rotate(-45)"/></g><circle class="cls-3" cx="15.33" cy="178.09" r="10.84" transform="translate(-161.51 152.1) rotate(-76.72)"/><g class="cls-1"><circle class="cls-2" cx="107.66" cy="120.43" r="11.03"/></g><circle class="cls-6" cx="107.04" cy="117.56" r="11.03" transform="translate(-36.84 49.91) rotate(-22.5)"/><g class="cls-1"><circle class="cls-2" cx="132.25" cy="15" r="11.91" transform="translate(28.13 97.91) rotate(-45)"/></g><circle class="cls-6" cx="131.59" cy="11.91" r="11.91"/><g class="cls-1"><circle class="cls-2" cx="217.62" cy="84.5" r="39.3" transform="translate(85.38 276.89) rotate(-76.72)"/></g><circle class="cls-3" cx="217.26" cy="82.84" r="39.3" transform="matrix(0.16, -0.99, 0.99, 0.16, 100.69, 284.02)"/><g class="cls-1"><circle class="cls-2" cx="185.04" cy="242.01" r="35.19"/></g><circle class="cls-5" cx="184.68" cy="240.34" r="35.19"/><g class="cls-1"><circle class="cls-2" cx="66.55" cy="77.64" r="39.3" transform="translate(-35.41 69.79) rotate(-45)"/></g><circle class="cls-5" cx="66.19" cy="75.97" r="39.3" transform="translate(-24.03 31.11) rotate(-22.5)"/><g class="cls-1"><circle class="cls-2" cx="69.12" cy="250.92" r="12.11" transform="translate(-157.18 122.37) rotate(-45)"/></g><circle class="cls-4" cx="68.76" cy="249.25" r="12.11" transform="translate(-90.15 45.29) rotate(-22.5)"/><path d="M198.52,157.35a.21.21,0,0,1-.21-.13l-1.12-2.63h-1.75a.24.24,0,0,1-.21-.12l-1.3-2.75-2.4,5.48a.22.22,0,0,1-.19.13.22.22,0,0,1-.21-.1l-1.68-2.5h-1.72a.22.22,0,0,1-.21-.12l-1.21-2.34-1.06,2.26a.21.21,0,0,1-.2.13h0l-4,0a.23.23,0,0,1-.16-.06.17.17,0,0,1-.06-.15v-1.16a.22.22,0,0,1,.23-.21h3l1.94-4.15a.22.22,0,0,1,.2-.13.22.22,0,0,1,.21.12l2.2,4.23h1.62a.23.23,0,0,1,.19.1l.6.89,2.62-6a.21.21,0,0,1,.2-.13h0a.21.21,0,0,1,.2.13l2.31,4.87h1.79a.22.22,0,0,1,.21.13v0l0-.08a.23.23,0,0,1,.21-.14h5.21a.23.23,0,0,1,.16.06.23.23,0,0,1,.07.15v1.17a.22.22,0,0,1-.22.21h-4.16l-1,2.67a.22.22,0,0,1-.21.14Zm-10.65-3h1.71a.24.24,0,0,1,.19.1l1.51,2.25,2.43-5.56a.23.23,0,0,1,.21-.13h0a.24.24,0,0,1,.21.12l1.45,3.08h1.76a.22.22,0,0,1,.21.13l.95,2.23.82-2.27a.22.22,0,0,1,.21-.14h4.09v-.74h-4.81l-.18.47a.23.23,0,0,1-.2.15.27.27,0,0,1-.22-.14l-.18-.43h-1.79a.21.21,0,0,1-.2-.13l-2.15-4.54-2.59,5.91a.22.22,0,0,1-.19.13.22.22,0,0,1-.21-.09l-.77-1.14H188.5a.23.23,0,0,1-.2-.12l-2.05-3.94-1.8,3.85a.23.23,0,0,1-.21.13h-3v.74h3.63l1.19-2.55a.23.23,0,0,1,.2-.12.22.22,0,0,1,.21.12Z"/><path d="M203.23,163.09h-.89a.22.22,0,0,1-.23-.21v-1H182.78v1a.22.22,0,0,1-.23.21h-.89a3.83,3.83,0,0,1-3.94-3.7v-13.5a3.83,3.83,0,0,1,3.94-3.7h21.57a3.83,3.83,0,0,1,3.94,3.7v13.5A3.83,3.83,0,0,1,203.23,163.09Zm-.67-.42h.67a3.4,3.4,0,0,0,3.49-3.28v-13.5a3.4,3.4,0,0,0-3.49-3.28H181.66a3.4,3.4,0,0,0-3.49,3.28v13.5a3.4,3.4,0,0,0,3.49,3.28h.66v-1.06a.23.23,0,0,1,.23-.21h19.79a.22.22,0,0,1,.22.21Zm.67-2.48H181.66a.82.82,0,0,1-.84-.8v-13.5a.82.82,0,0,1,.84-.79h21.57a.82.82,0,0,1,.84.79v13.5A.82.82,0,0,1,203.23,160.19Zm-22-5.79v5a.38.38,0,0,0,.39.37h21.57a.37.37,0,0,0,.39-.37v-13.5a.38.38,0,0,0-.39-.37H181.66a.39.39,0,0,0-.39.37Zm24.13-1.06a1,1,0,1,1,1-1A1,1,0,0,1,205.4,153.34Zm0-1.53a.56.56,0,1,0,0,1.11.56.56,0,1,0,0-1.11Zm-25.91,1.53a1,1,0,1,1,1-1A1,1,0,0,1,179.49,153.34Zm0-1.53a.56.56,0,1,0,.59.55A.57.57,0,0,0,179.49,151.81Zm25.91-1.95a1,1,0,1,1,0-2,1,1,0,1,1,0,2Zm0-1.53a.56.56,0,1,0,0,1.11.56.56,0,1,0,0-1.11Zm-25.91,1.53a1,1,0,1,1,1-1A1,1,0,0,1,179.49,149.86Zm0-1.53a.56.56,0,1,0,.59.55A.57.57,0,0,0,179.49,148.33Z"/><path d="M201.29,165.42H183.6a1.25,1.25,0,0,1-1.28-1.2v-2.61a.23.23,0,0,1,.23-.21h19.79a.22.22,0,0,1,.22.21v2.61A1.24,1.24,0,0,1,201.29,165.42Zm-18.51-3.59v2.39a.79.79,0,0,0,.82.77h17.69a.79.79,0,0,0,.82-.77v-2.39Z"/><path d="M193.11,109.82a.39.39,0,0,1-.15,0,.43.43,0,0,1-.28-.38l-.22-2.7a.43.43,0,0,1,.13-.34l6.89-6.89a.43.43,0,0,1,.61,0,.44.44,0,0,1,0,.62l-6.74,6.74.12,1.56,7.49-7.49a.44.44,0,0,1,.62,0,.43.43,0,0,1,0,.61l-8.16,8.17A.45.45,0,0,1,193.11,109.82Z"/><path d="M224.84,73a.42.42,0,0,1-.31-.13.43.43,0,0,1,0-.61l8.87-8.87a.44.44,0,0,1,.62,0,.43.43,0,0,1,0,.61l-8.88,8.87A.39.39,0,0,1,224.84,73Z"/><path d="M228.49,76.64a.4.4,0,0,1-.31-.13.43.43,0,0,1,0-.61L237.05,67a.41.41,0,0,1,.61,0,.43.43,0,0,1,0,.61l-8.87,8.87A.39.39,0,0,1,228.49,76.64Z"/><path d="M211.31,100.51l-.14,0-7.66-2.68a.51.51,0,0,1-.27-.27l-2.69-7.66a.44.44,0,0,1,.11-.45l19.06-19.06a.43.43,0,1,1,.61.61L201.47,89.84,204,97l7.2,2.53,18.86-18.86a.44.44,0,0,1,.62,0,.43.43,0,0,1,0,.61l-19.06,19.06A.4.4,0,0,1,211.31,100.51Z"/><path d="M210.44,98.08a.39.39,0,0,1-.18,0L205.32,96a.51.51,0,0,1-.23-.23L203,90.78a.42.42,0,0,1,.09-.48l4.72-4.73a.44.44,0,0,1,.62.62l-4.52,4.52,1.92,4.5,4.5,1.92,4.52-4.52a.44.44,0,0,1,.62.62L210.74,98A.43.43,0,0,1,210.44,98.08Z"/><path d="M216.08,92.43a.4.4,0,0,1-.31-.13l-7-7a.44.44,0,0,1,0-.62l1.46-1.46a.45.45,0,0,1,.61,0l7,7a.43.43,0,0,1,0,.61l-1.46,1.46A.4.4,0,0,1,216.08,92.43ZM209.66,85l6.42,6.42.84-.84-6.42-6.43Z"/><path d="M233,85.39a.45.45,0,0,1-.31-.12.44.44,0,0,1,0-.62l1-1L217.4,67.36l-1,1a.44.44,0,0,1-.62,0,.43.43,0,0,1,0-.61l1.32-1.32a.44.44,0,0,1,.31-.13h0a.46.46,0,0,1,.31.13L234.6,83.33a.44.44,0,0,1,0,.62l-1.31,1.32A.47.47,0,0,1,233,85.39Z"/><path d="M241.38,70.18a.44.44,0,0,1-.31-.13L231,60a.44.44,0,0,1-.13-.31.48.48,0,0,1,.13-.31L232.31,58a.44.44,0,0,1,.62,0L243,68.11a.44.44,0,0,1,0,.62l-1.32,1.32A.43.43,0,0,1,241.38,70.18Zm-9.46-10.52,9.46,9.46.7-.7L232.62,59Z"/><path d="M202.53,101.62a.42.42,0,0,1-.31-.13l-2.68-2.67a.43.43,0,0,1-.12-.31.47.47,0,0,1,.12-.31l3.1-3.09a.44.44,0,0,1,.62.62l-2.79,2.78,2.06,2.06,2.78-2.79a.44.44,0,0,1,.62.62l-3.09,3.09A.43.43,0,0,1,202.53,101.62Z"/><path d="M215.85,89.28a.46.46,0,0,1-.31-.13l-3.65-3.65a.44.44,0,0,1-.13-.31.48.48,0,0,1,.13-.31l11.82-11.82a.48.48,0,0,1,.31-.13h0a.44.44,0,0,1,.31.13L228,76.71a.44.44,0,0,1,0,.62L216.16,89.15A.48.48,0,0,1,215.85,89.28Zm-3-4.09,3,3L227.05,77l-3-3Z"/><path d="M188.17,23.46a2.72,2.72,0,0,0-2.58-1.63,4.67,4.67,0,0,0-2.24.63,8.83,8.83,0,0,1-7.39,0,4.66,4.66,0,0,0-2.23-.63,2.74,2.74,0,0,0-2.59,1.63c-.83,1.75-.42,6.23-.06,10.19.15,1.71.3,3.32.3,4.35a20.41,20.41,0,0,0,2.4,9.91,2,2,0,0,0,1.61,1.21c.81,0,1.45-.77,1.68-2s.4-2.55.57-3.87V43.2c.41-3.17.92-7.11,2-7.11s1.59,3.94,2,7.11c.18,1.34.36,2.73.58,3.93s.88,2,1.69,2a2,2,0,0,0,1.6-1.21A20.41,20.41,0,0,0,187.94,38c0-1,.14-2.63.3-4.33v0C188.6,29.69,189,25.21,188.17,23.46Zm-.56,10.14c-.17,1.79-.31,3.34-.31,4.4A19.76,19.76,0,0,1,185,47.6c-.32.57-.69.88-1,.88s-.9-.58-1.06-1.47c-.23-1.18-.41-2.62-.58-3.89-.53-4.12-1-7.67-2.63-7.67S177.56,39,177,43.12v.05c-.18,1.32-.35,2.69-.57,3.84-.17.89-.59,1.47-1.06,1.47s-.73-.31-1.06-.88A19.84,19.84,0,0,1,172,38c0-1-.13-2.58-.3-4.36v-.06c-.34-3.68-.75-8.26,0-9.85a2.12,2.12,0,0,1,2-1.26,4,4,0,0,1,1.92.55,9.46,9.46,0,0,0,8,0,4,4,0,0,1,1.93-.55,2.1,2.1,0,0,1,2,1.26C188.36,25.33,187.94,29.91,187.61,33.6Z"/><path d="M184.76,34.09a33.12,33.12,0,0,1-9.74.07.31.31,0,0,0-.23.06.3.3,0,0,0-.13.21.28.28,0,0,0,.06.23.33.33,0,0,0,.21.13,33.24,33.24,0,0,0,4.73.33,33.88,33.88,0,0,0,5.19-.4.33.33,0,0,0,.27-.37.34.34,0,0,0-.13-.2A.32.32,0,0,0,184.76,34.09Z"/><path d="M185.58,23.6a3.11,3.11,0,0,0-1.37.4,10.71,10.71,0,0,1-4.55,1,.32.32,0,1,0,0,.63,11.57,11.57,0,0,0,4.86-1.11,2.3,2.3,0,0,1,1.06-.33c.28,0,.34.07.43.26a.31.31,0,0,0,.42.15.32.32,0,0,0,.15-.42A1,1,0,0,0,185.58,23.6Z"/><path d="M175.22,24.44a.26.26,0,0,0,0-.24.3.3,0,0,0-.15-.2,3,3,0,0,0-1.37-.4,1,1,0,0,0-1,.62c-.54,1.14-.28,5,0,8.56a.32.32,0,0,0,.32.29h0a.36.36,0,0,0,.22-.11.34.34,0,0,0,.07-.24c-.19-2.12-.63-7.09-.09-8.23.09-.19.15-.26.42-.26a2.3,2.3,0,0,1,1.06.33A.32.32,0,0,0,175.22,24.44ZM173.09,33Z"/><path d="M126.63,261.49a2.12,2.12,0,1,0-4.24,0,2.1,2.1,0,0,0,1.78,2.08l.12,0v4.32a6.63,6.63,0,0,1-13.26,0V263.6h.14a7.36,7.36,0,0,0,7.14-7.38V250a3.46,3.46,0,0,0-3-3.42h-.1l0-.09a1.24,1.24,0,0,0-1.19-.94c-.61,0-1,.47-1,1.23s.38,1.24,1,1.24a1.24,1.24,0,0,0,1.17-.87l0-.12.12,0a3,3,0,0,1,2.54,3V256c0,2.13-3.21,4.74-7,4.74s-7-2.61-7-4.74V250a3,3,0,0,1,2.55-3l.12,0,0,.12a1.22,1.22,0,0,0,1.17.87c.61,0,1-.48,1-1.24s-.37-1.23-1-1.23a1.21,1.21,0,0,0-1.19.94l0,.09h-.09a3.45,3.45,0,0,0-3,3.42v6.27a7.4,7.4,0,0,0,6.93,7.37h.13v4.32a7.07,7.07,0,0,0,14.14,0v-4.32l.12,0A2.1,2.1,0,0,0,126.63,261.49ZM114.73,247a.78.78,0,0,1-.72.48c-.36,0-.54-.26-.54-.79s.18-.78.54-.78a.78.78,0,0,1,.72.48l0,.08-.07.07a.22.22,0,0,0-.06.15.25.25,0,0,0,.06.16l.07.06Zm-7.61-.59a.78.78,0,0,1,.73-.5c.36,0,.54.25.54.78s-.18.79-.54.79a.78.78,0,0,1-.73-.5l0-.08,0-.06a.21.21,0,0,0,.06-.15.2.2,0,0,0-.06-.14l0-.06Zm-2.72,12.15-.25-.69.49.55a8.59,8.59,0,0,0,12.56,0l.49-.55-.25.69a6.94,6.94,0,0,1-13,0Zm20.11,4.57a1.68,1.68,0,1,1,1.68-1.67A1.68,1.68,0,0,1,124.51,263.16Z"/><path d="M117.66,275.11a7.21,7.21,0,0,1-7.2-7.2v-4.2a7.53,7.53,0,0,1-7-7.49V250a3.57,3.57,0,0,1,3.12-3.54h0a1.36,1.36,0,0,1,1.31-1c.67,0,1.11.54,1.11,1.36s-.44,1.36-1.11,1.36a1.35,1.35,0,0,1-1.29-1v0h0A2.89,2.89,0,0,0,104.1,250V256c0,2.08,3.15,4.61,6.82,4.61s6.82-2.53,6.82-4.61V250a2.85,2.85,0,0,0-2.43-2.83h0a1.35,1.35,0,0,1-1.29,1c-.68,0-1.11-.53-1.11-1.36s.43-1.36,1.11-1.36a1.36,1.36,0,0,1,1.31,1h0a3.59,3.59,0,0,1,3.1,3.54v6.27a7.48,7.48,0,0,1-7.27,7.5h0v4.19a6.5,6.5,0,0,0,13,0V263.7a2.25,2.25,0,1,1,.72,0h0v4.21A7.21,7.21,0,0,1,117.66,275.11Zm-9.81-29.5a1.1,1.1,0,0,0-1.07.85l0,.17-.18,0a3.32,3.32,0,0,0-2.91,3.29v6.27a7.28,7.28,0,0,0,6.82,7.24l.24,0v4.43a7,7,0,0,0,13.9,0v-4.42l.22,0a2,2,0,1,0-.64,0l.22,0v4.42a6.75,6.75,0,0,1-13.5,0v-4.43h.26a7.23,7.23,0,0,0,7-7.25V250a3.32,3.32,0,0,0-2.89-3.29l-.18,0,0-.17a1.1,1.1,0,0,0-1.07-.85c-.54,0-.86.42-.86,1.11s.32,1.11.86,1.11a1.1,1.1,0,0,0,1-.78l.07-.22.22,0A3.11,3.11,0,0,1,118,250V256c0,2.19-3.26,4.86-7.07,4.86s-7.07-2.67-7.07-4.86V250a3.14,3.14,0,0,1,2.66-3.08l.22,0,.07.21a1.09,1.09,0,0,0,1,.78c.54,0,.86-.41.86-1.11S108.39,245.61,107.85,245.61Zm16.66,17.68a1.8,1.8,0,1,1,1.8-1.8A1.81,1.81,0,0,1,124.51,263.29Zm0-3.35a1.55,1.55,0,1,0,1.55,1.55A1.54,1.54,0,0,0,124.51,259.94Zm-13.59,3.35a7.08,7.08,0,0,1-6.63-4.65l-.49-1.32.93,1.05a8.47,8.47,0,0,0,12.38,0l.93-1.05-.48,1.32A7.11,7.11,0,0,1,110.92,263.29Zm-6.43-4.81,0,.07a6.81,6.81,0,0,0,12.8,0l0-.07,0,0a8.71,8.71,0,0,1-12.76,0ZM114,247.64c-.31,0-.67-.16-.67-.92s.36-.91.67-.91a.91.91,0,0,1,.84.56l.06.16-.11.12a.13.13,0,0,0,0,.07.14.14,0,0,0,0,.07l.12.13-.06.15A.9.9,0,0,1,114,247.64Zm0-1.58c-.2,0-.42.08-.42.66s.22.67.42.67a.67.67,0,0,0,.61-.41v0a.34.34,0,0,1-.09-.24.36.36,0,0,1,.09-.24h0A.67.67,0,0,0,114,246.06Zm-6.16,1.58a.91.91,0,0,1-.85-.59l0-.14.1-.12a.15.15,0,0,0,0-.07s0,0,0-.06l-.11-.12.06-.15a.91.91,0,0,1,.85-.58c.3,0,.66.16.66.91S108.15,247.64,107.85,247.64Zm-.62-.69h0a.66.66,0,0,0,.61.43c.19,0,.41-.08.41-.67s-.22-.66-.41-.66a.66.66,0,0,0-.61.42v0a.34.34,0,0,1,.09.22.35.35,0,0,1-.09.23Z"/><path d="M124.51,260.42a1.07,1.07,0,1,0,1.06,1.07A1.06,1.06,0,0,0,124.51,260.42Zm0,1.68a.61.61,0,0,1-.62-.61.62.62,0,1,1,1.24,0A.61.61,0,0,1,124.51,262.1Z"/><path d="M124.51,262.67a1.19,1.19,0,1,1,1.19-1.18A1.18,1.18,0,0,1,124.51,262.67Zm0-2.12a.94.94,0,1,0,.94.94A.94.94,0,0,0,124.51,260.55Zm0,1.68a.74.74,0,1,1,.74-.74A.74.74,0,0,1,124.51,262.23Zm0-1.23a.49.49,0,1,0,.49.49A.49.49,0,0,0,124.51,261Z"/><path d="M77.13,106.13a6.13,6.13,0,0,1-4.34-1.79L41.21,72.75a6.13,6.13,0,0,1,0-8.68l8-8a6.16,6.16,0,0,1,8.68,0L89.47,87.66a6.15,6.15,0,0,1,0,8.68l-8,8A6.13,6.13,0,0,1,77.13,106.13ZM53.54,55.21a5.17,5.17,0,0,0-3.68,1.52l-8,8a5.2,5.2,0,0,0,0,7.37l31.58,31.58a5.23,5.23,0,0,0,7.37,0l8-8a5.21,5.21,0,0,0,0-7.36L57.23,56.73A5.21,5.21,0,0,0,53.54,55.21Z"/><path d="M77.13,106.26a6.22,6.22,0,0,1-4.43-1.84L41.12,72.84a6.28,6.28,0,0,1,0-8.86l8-8A6.25,6.25,0,0,1,58,56L89.56,87.57a6.28,6.28,0,0,1,0,8.86l-8,8A6.2,6.2,0,0,1,77.13,106.26ZM53.54,54.4a6,6,0,0,0-4.25,1.76l-8,8a6,6,0,0,0,0,8.5l31.58,31.59a6,6,0,0,0,8.5,0l8-8a6,6,0,0,0,0-8.5L57.79,56.16A6,6,0,0,0,53.54,54.4Zm23.59,50.93a5.34,5.34,0,0,1-3.77-1.56L41.78,72.18a5.34,5.34,0,0,1,0-7.54l8-8a5.34,5.34,0,0,1,7.54,0L88.9,88.23a5.34,5.34,0,0,1,0,7.54l-8,8A5.34,5.34,0,0,1,77.13,105.33Zm-23.59-50A5,5,0,0,0,50,56.82l-8,8A5.11,5.11,0,0,0,42,72l31.59,31.58a5.08,5.08,0,0,0,7.19,0l8-8a5.11,5.11,0,0,0,0-7.2L57.14,56.82A5.06,5.06,0,0,0,53.54,55.33Z"/><path d="M55.71,84.68a.46.46,0,0,1-.33-.13,6.14,6.14,0,0,1,0-8.69L61,70.25a6.1,6.1,0,0,1,4.34-1.8h0a6.1,6.1,0,0,1,4.34,1.8.47.47,0,0,1-.66.66,5.14,5.14,0,0,0-3.68-1.53h0a5.18,5.18,0,0,0-3.69,1.53L56,76.52a5.2,5.2,0,0,0,0,7.37.47.47,0,0,1,0,.66A.46.46,0,0,1,55.71,84.68Z"/><path d="M55.71,84.81a.56.56,0,0,1-.42-.18,6.28,6.28,0,0,1,0-8.86l5.62-5.61a6.25,6.25,0,0,1,8.86,0,.59.59,0,0,1,.17.42.58.58,0,0,1-.17.41.6.6,0,0,1-.84,0,5.08,5.08,0,0,0-7.19,0l-5.61,5.62a5.08,5.08,0,0,0,0,7.19.59.59,0,0,1,0,.83A.58.58,0,0,1,55.71,84.81Zm9.63-16.24a5.94,5.94,0,0,0-4.25,1.77L55.47,76a6,6,0,0,0,0,8.51A.34.34,0,0,0,56,84a5.35,5.35,0,0,1,0-7.55l5.62-5.61a5.31,5.31,0,0,1,7.54,0,.34.34,0,0,0,.48,0,.37.37,0,0,0,.1-.24.35.35,0,0,0-.1-.24A6,6,0,0,0,65.34,68.57Z"/><path d="M65.34,92A6.1,6.1,0,0,1,61,90.16a.45.45,0,0,1,0-.66.46.46,0,0,1,.65,0,5.2,5.2,0,0,0,7.37,0l5.62-5.61a5.23,5.23,0,0,0,0-7.37.47.47,0,0,1,.66-.66,6.17,6.17,0,0,1,0,8.69l-5.62,5.61A6.1,6.1,0,0,1,65.34,92Z"/><path d="M65.34,92.09a6.18,6.18,0,0,1-4.43-1.84.59.59,0,0,1,.83-.83,5.08,5.08,0,0,0,7.19,0l5.62-5.62a5.08,5.08,0,0,0,0-7.19.59.59,0,0,1-.17-.42.59.59,0,0,1,1-.42,6.25,6.25,0,0,1,0,8.86l-5.61,5.62A6.22,6.22,0,0,1,65.34,92.09Zm-4-2.6a.35.35,0,0,0-.24.1.34.34,0,0,0-.11.24.32.32,0,0,0,.11.24,6,6,0,0,0,8.5,0l5.62-5.61a6,6,0,0,0,0-8.51.34.34,0,0,0-.48,0,.33.33,0,0,0-.1.24.31.31,0,0,0,.1.24,5.35,5.35,0,0,1,0,7.55l-5.62,5.61a5.31,5.31,0,0,1-7.54,0A.39.39,0,0,0,61.33,89.49Z"/><path d="M66.64,72.9a1.15,1.15,0,0,1-.8-.33A1.12,1.12,0,0,1,67.43,71a1.09,1.09,0,0,1,.33.8,1.07,1.07,0,0,1-.33.79A1.11,1.11,0,0,1,66.64,72.9Zm0-1.32a.2.2,0,0,0-.14.06.2.2,0,0,0,0,.27.17.17,0,0,0,.28,0,.22.22,0,0,0,0-.27A.2.2,0,0,0,66.64,71.58Z"/><path d="M66.64,73a1.24,1.24,0,0,1-.88-2.13,1.25,1.25,0,0,1,.88-.35h0a1.21,1.21,0,0,1,.88.35A1.25,1.25,0,0,1,66.64,73Zm0-2.23h0a1,1,0,0,0-.71.28,1,1,0,0,0-.29.71,1,1,0,0,0,1.71.7,1,1,0,0,0,0-1.41A1,1,0,0,0,66.64,70.79Zm0,1.32a.29.29,0,0,1-.22-.11.32.32,0,0,1,0-.45.33.33,0,0,1,.45,0,.28.28,0,0,1,.09.22.3.3,0,0,1-.09.23A.28.28,0,0,1,66.64,72.11Zm0-.4a.06.06,0,0,0,0,0,.07.07,0,0,0,0,.1s0,0,0,0,0,0,0,0a.14.14,0,0,0,0-.09A.06.06,0,0,0,66.64,71.71Z"/><path d="M70.38,76.64a1.14,1.14,0,0,1-.8-.33,1.12,1.12,0,0,1,0-1.59,1.14,1.14,0,0,1,1.59,0,1.07,1.07,0,0,1,.33.79,1.14,1.14,0,0,1-.33.8A1.11,1.11,0,0,1,70.38,76.64Zm0-1.32a.2.2,0,0,0-.14.06.19.19,0,0,0,0,.27c.09.09.16.11.28,0a.24.24,0,0,0,0-.28A.24.24,0,0,0,70.38,75.32Z"/><path d="M70.38,76.76a1.24,1.24,0,0,1-.89-.37,1.23,1.23,0,0,1-.36-.87,1.27,1.27,0,0,1,.36-.89,1.29,1.29,0,0,1,1.77,0,1.24,1.24,0,0,1,0,1.77A1.27,1.27,0,0,1,70.38,76.76Zm0-2.24a1,1,0,0,0-.71.29,1,1,0,0,0,0,1.41,1,1,0,0,0,1.41,0,1,1,0,0,0,.3-.71,1,1,0,0,0-.3-.71A1,1,0,0,0,70.38,74.52Zm0,1.33h0a.36.36,0,0,1-.23-.11.33.33,0,0,1,0-.45.34.34,0,0,1,.23-.1.36.36,0,0,1,.22.09.34.34,0,0,1,0,.46A.33.33,0,0,1,70.38,75.85Zm0-.41,0,0a.07.07,0,0,0,0,.1l0,0,.05,0a.17.17,0,0,0,0-.1Z"/><path d="M74.12,80.37a1.12,1.12,0,0,1-.8-1.91,1.14,1.14,0,0,1,1.59,0,1.11,1.11,0,0,1,.33.79,1.15,1.15,0,0,1-.33.8A1.1,1.1,0,0,1,74.12,80.37Zm0-1.31a.18.18,0,0,0-.14,0,.19.19,0,0,0,0,.28c.1.09.17.1.27,0a.21.21,0,0,0,0-.28A.17.17,0,0,0,74.12,79.06Z"/><path d="M74.12,80.5a1.27,1.27,0,0,1-.89-.36,1.26,1.26,0,0,1,0-1.77,1.29,1.29,0,0,1,1.77,0,1.26,1.26,0,0,1,0,1.76A1.23,1.23,0,0,1,74.12,80.5Zm0-2.24a1,1,0,0,0-.7,1.7,1,1,0,0,0,1.41,0,1,1,0,0,0,0-1.42A1,1,0,0,0,74.11,78.26Zm0,1.33a.35.35,0,0,1-.23-.11.32.32,0,0,1,0-.45.3.3,0,0,1,.23-.1.28.28,0,0,1,.22.1.34.34,0,0,1,0,.45A.33.33,0,0,1,74.12,79.59Zm0-.41-.06,0a.08.08,0,0,0,0,.1l.05,0,0,0a.12.12,0,0,0,0-.1Z"/><path d="M61.78,77.34A1.13,1.13,0,0,1,61,75.42,1.12,1.12,0,0,1,62.58,77,1.15,1.15,0,0,1,61.78,77.34Zm0-1.32a.2.2,0,0,0-.14.06.2.2,0,0,0,0,.27.17.17,0,0,0,.28,0,.19.19,0,0,0,0-.27A.2.2,0,0,0,61.78,76Z"/><path d="M61.78,77.46a1.27,1.27,0,0,1-.88-.36,1.25,1.25,0,0,1,0-1.77,1.23,1.23,0,0,1,.88-.36h0a1.21,1.21,0,0,1,.88.36,1.26,1.26,0,0,1,0,1.77A1.29,1.29,0,0,1,61.78,77.46Zm0-2.24h0a1,1,0,0,0-.7.29,1,1,0,0,0,0,1.41,1,1,0,0,0,1.41,0,1,1,0,0,0,0-1.42A1.05,1.05,0,0,0,61.78,75.22Zm0,1.33a.33.33,0,0,1-.22-.11.31.31,0,0,1,0-.45.32.32,0,0,1,.22-.1A.34.34,0,0,1,62,76a.31.31,0,0,1,.09.22.32.32,0,0,1-.09.23A.35.35,0,0,1,61.78,76.55Zm0-.41-.05,0a.08.08,0,0,0,0,.1l.05,0,0,0a.08.08,0,0,0,0-.05s0,0,0,0Z"/><path d="M65.52,81.07a1.12,1.12,0,0,1-.8-1.91,1.14,1.14,0,0,1,1.59,0,1.07,1.07,0,0,1,.33.79,1.11,1.11,0,0,1-1.12,1.12Zm0-1.31a.2.2,0,0,0-.14.33.17.17,0,0,0,.28,0,.19.19,0,0,0-.14-.33Z"/><path d="M65.52,81.2a1.22,1.22,0,0,1-.88-.37,1.23,1.23,0,0,1,0-1.76,1.21,1.21,0,0,1,.88-.36h0a1.21,1.21,0,0,1,.88.36,1.2,1.2,0,0,1,.37.88,1.26,1.26,0,0,1-1.25,1.25Zm0-2.24h0a1,1,0,0,0-.71.28,1,1,0,0,0-.29.71,1,1,0,0,0,.29.7,1,1,0,0,0,1.41,0,1,1,0,0,0-.7-1.7Zm0,1.33a.33.33,0,0,1-.23-.12.31.31,0,0,1,0-.44.31.31,0,0,1,.46,0,.32.32,0,0,1,.09.22.31.31,0,0,1-.1.23A.33.33,0,0,1,65.52,80.29Zm0-.41a.07.07,0,0,0,0,.12l0,0,0,0a.07.07,0,0,0,0-.12Z"/><path d="M69.26,84.81a1.14,1.14,0,0,1-.8-.33,1.12,1.12,0,0,1,0-1.59,1.16,1.16,0,0,1,1.59,0,1.13,1.13,0,0,1-.79,1.92Zm0-1.32a.2.2,0,0,0-.14.06.18.18,0,0,0,0,.27c.1.11.17.1.27,0a.18.18,0,0,0,0-.27A.18.18,0,0,0,69.26,83.49Z"/><path d="M69.26,84.94a1.24,1.24,0,0,1-.89-.37,1.26,1.26,0,0,1,0-1.76,1.28,1.28,0,0,1,1.77,0,1.25,1.25,0,0,1,0,1.77A1.23,1.23,0,0,1,69.26,84.94Zm0-2.24a1,1,0,0,0-.71,1.69,1,1,0,0,0,1.41,0A1,1,0,0,0,70,83,1,1,0,0,0,69.26,82.7Zm0,1.32a.32.32,0,0,1-.23-.11.33.33,0,0,1,0-.45.32.32,0,0,1,.23-.09.3.3,0,0,1,.22.09.33.33,0,0,1,.1.23.32.32,0,0,1-.1.22.29.29,0,0,1-.22.11Zm0-.4s0,0-.05,0a.06.06,0,0,0,0,.09s.05,0,.05,0l0,0a.09.09,0,0,0,0,0,.05.05,0,0,0,0,0A0,0,0,0,0,69.26,83.62Z"/><path d="M57.35,82.19a1.11,1.11,0,0,1-.8-.32,1.15,1.15,0,0,1-.33-.8,1.11,1.11,0,0,1,.33-.79,1.14,1.14,0,0,1,1.59,0,1.11,1.11,0,0,1,.33.79,1.15,1.15,0,0,1-.33.8A1.1,1.1,0,0,1,57.35,82.19Zm0-1.31a.18.18,0,0,0-.14.05.19.19,0,0,0,0,.28c.1.1.17.1.27,0a.2.2,0,0,0,.06-.14.17.17,0,0,0-.06-.13A.16.16,0,0,0,57.35,80.88Z"/><path d="M57.35,82.32a1.23,1.23,0,0,1-1.25-1.25,1.23,1.23,0,0,1,1.25-1.24h0a1.25,1.25,0,0,1,.88.36,1.22,1.22,0,0,1,.37.88,1.3,1.3,0,0,1-.37.89A1.27,1.27,0,0,1,57.35,82.32Zm0-2.24a1,1,0,0,0-.71,1.7,1,1,0,0,0,1.41,0,1,1,0,0,0,.3-.71,1,1,0,0,0-.3-.7,1,1,0,0,0-.7-.29Zm0,1.33a.33.33,0,0,1-.23-.11.34.34,0,0,1-.09-.23.31.31,0,0,1,.09-.22.3.3,0,0,1,.23-.1.34.34,0,0,1,.32.32.36.36,0,0,1-.32.34Zm0-.41s0,0-.05,0,0,0,0,0a.06.06,0,0,0,0,.05l.05,0,0,0a.09.09,0,0,0,0-.05l0,0Z"/><path d="M61.08,85.93a1.07,1.07,0,0,1-.79-.33,1.12,1.12,0,0,1,0-1.59,1.16,1.16,0,0,1,1.59,0,1.13,1.13,0,0,1,0,1.59A1.09,1.09,0,0,1,61.08,85.93Zm0-1.32A.2.2,0,0,0,61,85a.16.16,0,0,0,.27,0,.19.19,0,0,0,0-.28A.2.2,0,0,0,61.08,84.61Z"/><path d="M61.08,86.06a1.23,1.23,0,0,1-.88-.37,1.25,1.25,0,0,1,0-1.77,1.31,1.31,0,0,1,1.77,0,1.27,1.27,0,0,1,0,1.77A1.24,1.24,0,0,1,61.08,86.06Zm0-2.24a1,1,0,0,0-.7.28,1,1,0,0,0,0,1.42,1,1,0,0,0,1.41,0,1,1,0,0,0-.71-1.69Zm0,1.32a.3.3,0,0,1-.22-.1.32.32,0,0,1,0-.46.3.3,0,0,1,.22-.09.32.32,0,0,1,.23.09.33.33,0,0,1,.09.23.28.28,0,0,1-.09.22.31.31,0,0,1-.23.11Zm0-.4a.06.06,0,0,0,0,0,.08.08,0,0,0,0,.1l0,0s0,0,.05,0a.06.06,0,0,0,0,0,.08.08,0,0,0,0,0A.06.06,0,0,0,61.08,84.74Z"/><path d="M64.82,89.67a1.15,1.15,0,0,1-.8-.33,1.12,1.12,0,1,1,1.6,0A1.15,1.15,0,0,1,64.82,89.67Zm0-1.32a.2.2,0,0,0-.14.06.2.2,0,0,0,0,.27.17.17,0,0,0,.28,0,.2.2,0,0,0,0-.27A.2.2,0,0,0,64.82,88.35Z"/><path d="M64.82,89.8a1.22,1.22,0,0,1-.88-.37,1.25,1.25,0,1,1,1.77,0A1.28,1.28,0,0,1,64.82,89.8Zm0-2.24a1,1,0,0,0-.71,1.69,1,1,0,0,0,1.42,0,1,1,0,0,0-.71-1.69Zm0,1.32a.28.28,0,0,1-.22-.11.32.32,0,0,1,0-.45.33.33,0,0,1,.45,0,.32.32,0,0,1,0,.45A.33.33,0,0,1,64.82,88.88Zm0-.4s0,0,0,0,0,.07,0,.1,0,0,0,0,0,0,.05,0a.07.07,0,0,0,0-.1Z"/><path d="M62.31,73.22a1.13,1.13,0,0,1,0-2.25h0a1.15,1.15,0,0,1,.8.33,1.14,1.14,0,0,1,0,1.59A1.15,1.15,0,0,1,62.31,73.22Zm0-1.32a.2.2,0,0,0-.14.06.2.2,0,0,0,0,.27.17.17,0,0,0,.28,0,.2.2,0,0,0,0-.27A.2.2,0,0,0,62.31,71.9Z"/><path d="M62.31,73.34a1.25,1.25,0,0,1-.88-2.13,1.25,1.25,0,0,1,2.13.88,1.25,1.25,0,0,1-1.25,1.25Zm0-2.25a1,1,0,0,0-.71,1.71,1,1,0,0,0,1.42,0,1,1,0,0,0,.29-.71,1,1,0,0,0-.29-.7A1,1,0,0,0,62.31,71.09Zm0,1.34a.31.31,0,0,1-.22-.11.32.32,0,0,1,0-.45.31.31,0,0,1,.46,0,.31.31,0,0,1,.09.22.32.32,0,0,1-.09.23.35.35,0,0,1-.23.11Zm0-.41-.05,0a.07.07,0,0,0,0,.1s.05,0,.05,0,0,0,0,0a.07.07,0,0,0,0-.1Z"/><path d="M66.05,77A1.12,1.12,0,1,1,66.84,75a1.12,1.12,0,0,1,0,1.59A1.1,1.1,0,0,1,66.05,77Zm0-1.31a.18.18,0,0,0-.14,0,.2.2,0,0,0,0,.28c.1.09.18.1.28,0a.2.2,0,0,0,0-.28A.18.18,0,0,0,66.05,75.64Z"/><path d="M66.05,77.08A1.25,1.25,0,0,1,65.16,75a1.27,1.27,0,0,1,1.77,0,1.24,1.24,0,0,1,0,1.76A1.22,1.22,0,0,1,66.05,77.08Zm0-2.24a1,1,0,0,0-.71.28,1,1,0,0,0,0,1.42,1,1,0,0,0,1.41,0,1,1,0,0,0-.7-1.7Zm0,1.33a.31.31,0,0,1-.22-.11.32.32,0,0,1,0-.45.3.3,0,0,1,.23-.1.31.31,0,0,1,.22.09.33.33,0,0,1,0,.46A.37.37,0,0,1,66.05,76.17Zm0-.41,0,0a.07.07,0,0,0,0,.1l0,0,0,0a.09.09,0,0,0,0-.1Z"/><path d="M69.79,80.69a1.13,1.13,0,0,1-1.13-1.12,1.13,1.13,0,1,1,2.25,0,1.13,1.13,0,0,1-1.12,1.12Zm0-1.32a.21.21,0,0,0-.2.2.17.17,0,0,0,.06.13c.1.1.17.1.27,0a.19.19,0,0,0,0-.28A.18.18,0,0,0,69.79,79.37Z"/><path d="M69.79,80.82a1.25,1.25,0,0,1-.89-2.13,1.25,1.25,0,0,1,.89-.36h0a1.25,1.25,0,0,1,.88.36,1.17,1.17,0,0,1,.36.88,1.25,1.25,0,0,1-.36.88A1.23,1.23,0,0,1,69.79,80.82Zm0-2.24a1,1,0,0,0-.71.28,1,1,0,0,0-.29.71,1,1,0,0,0,.29.7,1,1,0,0,0,1.41,0,1,1,0,0,0,.29-.71,1,1,0,0,0-.29-.71,1,1,0,0,0-.7-.28Zm0,1.33a.33.33,0,0,1-.23-.12.31.31,0,0,1-.09-.22.32.32,0,0,1,.09-.23.33.33,0,0,1,.45,0,.32.32,0,0,1,.09.23.36.36,0,0,1-.31.34Zm0-.41-.05,0s0,0,0,0a.08.08,0,0,0,0,.05s0,0,.05,0l0,0a.06.06,0,0,0,0-.05.06.06,0,0,0,0,0Z"/><path d="M73.52,84.43a1.13,1.13,0,0,1-.79-1.92,1.16,1.16,0,0,1,1.59,0,1.12,1.12,0,0,1,0,1.59A1.14,1.14,0,0,1,73.52,84.43Zm0-1.32a.17.17,0,0,0-.13.06.18.18,0,0,0,0,.27c.09.1.17.1.27,0a.18.18,0,0,0,0-.27A.2.2,0,0,0,73.52,83.11Z"/><path d="M73.52,84.55a1.27,1.27,0,0,1-.88-.36,1.24,1.24,0,0,1,.88-2.12h0a1.29,1.29,0,0,1,.89.35,1.25,1.25,0,0,1-.89,2.13Zm0-2.23h0a1,1,0,0,0-.7.28,1,1,0,0,0,0,1.41,1,1,0,0,0,1.41,0,1,1,0,0,0,0-1.41A1,1,0,0,0,73.52,82.32Zm0,1.32a.29.29,0,0,1-.22-.11.31.31,0,0,1,0-.45.3.3,0,0,1,.22-.09.31.31,0,0,1,.32.32.31.31,0,0,1-.09.22A.33.33,0,0,1,73.52,83.64Zm0-.4a.06.06,0,0,0,0,0,.09.09,0,0,0,0,.1l0,0s0,0,0,0a0,0,0,0,0,0,0s0,0,0,0S73.54,83.24,73.52,83.24Z"/><path d="M57.59,77.79a1.15,1.15,0,0,1-.8-.33,1.11,1.11,0,0,1-.33-.79,1.13,1.13,0,0,1,1.92-.8,1.13,1.13,0,0,1-.79,1.92Zm0-1.32a.21.21,0,0,0-.2.2.18.18,0,0,0,.06.13c.1.11.18.1.27,0a.19.19,0,0,0,0-.27A.2.2,0,0,0,57.59,76.47Z"/><path d="M57.59,77.92a1.26,1.26,0,0,1-1.25-1.25,1.23,1.23,0,0,1,1.25-1.24h0a1.23,1.23,0,0,1,1.25,1.24,1.22,1.22,0,0,1-.37.88A1.2,1.2,0,0,1,57.59,77.92Zm0-2.24h0a1,1,0,0,0-.71.28,1,1,0,0,0-.29.71,1,1,0,0,0,.29.7,1,1,0,0,0,1.41,0,1,1,0,0,0,.3-.7A1,1,0,0,0,58.3,76,1,1,0,0,0,57.59,75.68Zm0,1.32a.34.34,0,0,1-.23-.11.32.32,0,0,1-.09-.22.32.32,0,0,1,.32-.32.3.3,0,0,1,.22.09.33.33,0,0,1,.1.23.37.37,0,0,1-.32.33Zm0-.4a.06.06,0,0,0-.05,0,.06.06,0,0,0,0,0s0,0,0,0,.05,0,.05,0,0,0,0,0a.05.05,0,0,0,0,0,.06.06,0,0,0,0,0A.06.06,0,0,0,57.59,76.6Z"/><path d="M61.33,81.53a1.12,1.12,0,1,1,.79-1.92,1.13,1.13,0,0,1-.79,1.92Zm0-1.32a.2.2,0,0,0-.14.06.18.18,0,0,0,0,.27c.1.1.17.1.27,0a.18.18,0,0,0,0-.27A.18.18,0,0,0,61.33,80.21Z"/><path d="M61.33,81.65a1.25,1.25,0,1,1,.88-2.13,1.25,1.25,0,0,1,0,1.77A1.27,1.27,0,0,1,61.33,81.65Zm0-2.24a1,1,0,0,0-.71.29,1,1,0,0,0,0,1.41,1,1,0,0,0,1.41,0,1,1,0,0,0,0-1.41A1,1,0,0,0,61.33,79.41Zm0,1.33a.33.33,0,0,1-.23-.11.33.33,0,0,1,0-.45.34.34,0,0,1,.23-.1.32.32,0,0,1,.22.1.31.31,0,0,1,0,.45A.33.33,0,0,1,61.33,80.74Zm0-.41,0,0a.07.07,0,0,0,0,.1s0,0,0,0l.05,0a.08.08,0,0,0,0-.1Z"/><path d="M65.06,85.27a1.12,1.12,0,0,1-.79-1.92,1.14,1.14,0,0,1,1.59,0,1.11,1.11,0,0,1,.33.79,1.14,1.14,0,0,1-.33.8A1.12,1.12,0,0,1,65.06,85.27Zm0-1.32a.18.18,0,0,0-.13.06.17.17,0,0,0-.06.13.2.2,0,0,0,.06.14c.1.1.18.1.27,0a.21.21,0,0,0,0-.28A.22.22,0,0,0,65.06,84Z"/><path d="M65.06,85.39a1.23,1.23,0,0,1-1.24-1.25,1.18,1.18,0,0,1,.36-.88,1.29,1.29,0,0,1,1.77,0,1.25,1.25,0,0,1-.89,2.13Zm0-2.24a1,1,0,0,0-.7.29.94.94,0,0,0-.29.7,1,1,0,0,0,.29.71,1,1,0,0,0,1.41,0,1,1,0,0,0,.29-.71,1,1,0,0,0-.29-.71A1,1,0,0,0,65.06,83.15Zm0,1.33a.33.33,0,0,1-.22-.11.32.32,0,0,1-.09-.23.3.3,0,0,1,.09-.22.32.32,0,0,1,.22-.1.38.38,0,0,1,.23.09.36.36,0,0,1,.09.23.32.32,0,0,1-.09.23A.33.33,0,0,1,65.06,84.48Zm0-.41,0,0a.07.07,0,0,0,0,.1l0,0,0,0a.09.09,0,0,0,0-.1Z"/><path d="M68.8,89a1.14,1.14,0,0,1-1.12-1.13,1.11,1.11,0,0,1,.33-.8,1.13,1.13,0,0,1,1.92.8A1.14,1.14,0,0,1,68.8,89Zm0-1.32a.18.18,0,0,0-.14,0,.24.24,0,0,0,0,.14.2.2,0,0,0,0,.13c.11.11.18.11.28,0a.18.18,0,0,0,0-.14.15.15,0,0,0,0-.14A.18.18,0,0,0,68.8,87.69Z"/><path d="M68.8,89.13A1.24,1.24,0,0,1,67.92,87a1.27,1.27,0,0,1,1.76,0,1.22,1.22,0,0,1,.37.88,1.25,1.25,0,0,1-1.25,1.25Zm0-2.24a1,1,0,0,0-.71,1.69,1,1,0,0,0,1.42,0,1,1,0,0,0,0-1.42A1,1,0,0,0,68.8,86.89Zm0,1.33a.3.3,0,0,1-.22-.12.29.29,0,0,1,0-.44.28.28,0,0,1,.22-.1.31.31,0,0,1,.32.32.35.35,0,0,1-.09.23.38.38,0,0,1-.23.11Zm0-.41a.06.06,0,0,0,0,0s0,0,0,0a.06.06,0,0,0,0,.05l0,0,0,0a.07.07,0,0,0,0-.12Z"/><path d="M53.54,106.13a6.15,6.15,0,0,1-4.34-1.79l-8-8a6.13,6.13,0,0,1,0-8.68l7.07-7.07a.47.47,0,0,1,.66.66l-7.07,7.07a5.19,5.19,0,0,0,0,7.36l8,8a5.22,5.22,0,0,0,7.37,0l7.07-7.07a.45.45,0,0,1,.66,0,.46.46,0,0,1,0,.65l-7.08,7.08A6.13,6.13,0,0,1,53.54,106.13Z"/><path d="M53.54,106.26a6.2,6.2,0,0,1-4.43-1.84l-8-8a6.28,6.28,0,0,1,0-8.86l7.07-7.07a.59.59,0,0,1,.83,0,.56.56,0,0,1,.18.42.55.55,0,0,1-.18.41L42,88.4a5.12,5.12,0,0,0,0,7.2l8,8a5.09,5.09,0,0,0,7.19,0l7.07-7.07a.6.6,0,0,1,.84,0,.59.59,0,0,1,.17.42.58.58,0,0,1-.17.41L58,104.42A6.23,6.23,0,0,1,53.54,106.26ZM48.61,80.58a.31.31,0,0,0-.24.1L41.3,87.75a6,6,0,0,0,0,8.5l8,8a6,6,0,0,0,8.5,0l7.08-7.07a.37.37,0,0,0,.1-.24.33.33,0,0,0-.1-.24.34.34,0,0,0-.48,0l-7.08,7.07a5.34,5.34,0,0,1-7.54,0l-8-8a5.34,5.34,0,0,1,0-7.54l7.07-7.07a.37.37,0,0,0,.1-.24.35.35,0,0,0-.1-.24A.33.33,0,0,0,48.61,80.58Z"/><path d="M82.07,80a.43.43,0,0,1-.33-.14.46.46,0,0,1,0-.65l7.07-7.07a5.22,5.22,0,0,0,0-7.37l-8-8a5.22,5.22,0,0,0-7.37,0l-7.07,7.08a.47.47,0,1,1-.66-.66l7.07-7.08a6.15,6.15,0,0,1,8.68,0l8,8a6.15,6.15,0,0,1,0,8.68L82.4,79.82A.43.43,0,0,1,82.07,80Z"/><path d="M82.07,80.09a.6.6,0,0,1-.42-.18.59.59,0,0,1,0-.83L88.72,72a5.11,5.11,0,0,0,0-7.2l-8-8a5.09,5.09,0,0,0-7.19,0l-7.07,7.07a.6.6,0,0,1-.84,0,.59.59,0,0,1,0-.83L72.7,56a6.26,6.26,0,0,1,8.86,0l8,8a6.28,6.28,0,0,1,0,8.86l-7.08,7.07A.58.58,0,0,1,82.07,80.09Zm-4.94-25a5.31,5.31,0,0,1,3.77,1.56l8,8a5.34,5.34,0,0,1,0,7.54l-7.07,7.07a.34.34,0,0,0,0,.49.36.36,0,0,0,.48,0l7.07-7.08a6,6,0,0,0,0-8.5l-8-8a6,6,0,0,0-8.5,0l-7.07,7.08a.31.31,0,0,0-.1.24.33.33,0,0,0,.1.24.34.34,0,0,0,.48,0l7.07-7.08A5.32,5.32,0,0,1,77.13,55.08Z"/><path d="M77.55,162.37a.25.25,0,0,1-.17-.08l-3.73-3.73a.24.24,0,0,1,0-.35.25.25,0,0,1,.34,0l3.56,3.57,4.84-4.84v-8.68L80.1,146a.25.25,0,0,1,0-.34.24.24,0,0,1,.35,0L82.81,148a.21.21,0,0,1,.07.17V157a.21.21,0,0,1-.07.17l-5.08,5.08A.25.25,0,0,1,77.55,162.37Z"/><path d="M77.55,162.49a.38.38,0,0,1-.26-.11l-3.73-3.73a.36.36,0,0,1,0-.52.37.37,0,0,1,.52,0l3.47,3.47,4.72-4.71v-8.58L80,146.06a.37.37,0,0,1,0-.52.39.39,0,0,1,.53,0l2.36,2.36a.36.36,0,0,1,.11.26V157a.36.36,0,0,1-.11.26l-5.09,5.08A.36.36,0,0,1,77.55,162.49Zm-3.73-4.22a.11.11,0,0,0-.08,0,.12.12,0,0,0,0,.09.09.09,0,0,0,0,.08l3.73,3.74a.14.14,0,0,0,.17,0l5.08-5.09a.12.12,0,0,0,0-.08v-8.88a.12.12,0,0,0,0-.08l-2.36-2.37a.12.12,0,0,0-.17.17l2.33,2.33V157l0,0L77.55,162,73.9,158.3A.11.11,0,0,0,73.82,158.27Z"/><path d="M82.39,163a.23.23,0,0,1-.17-.07.25.25,0,0,1,0-.34l4-4V146.66l-3.42-3.42a.24.24,0,0,1,0-.35.25.25,0,0,1,.34,0l3.5,3.5a.26.26,0,0,1,.07.17v12.08a.28.28,0,0,1-.07.17l-4.1,4.1A.24.24,0,0,1,82.39,163Z"/><path d="M82.39,163.11a.37.37,0,0,1-.26-.63l4-4V146.71l-3.39-3.38a.36.36,0,0,1,0-.52.37.37,0,0,1,.52,0l3.5,3.49a.35.35,0,0,1,.1.26v12.08a.35.35,0,0,1-.1.26L82.65,163A.36.36,0,0,1,82.39,163.11ZM83,143a.11.11,0,0,0-.08,0,.12.12,0,0,0,0,.09.09.09,0,0,0,0,.08l3.46,3.46v12l0,0-4,4a.12.12,0,0,0,0,.08.18.18,0,0,0,0,.09.14.14,0,0,0,.17,0l4.1-4.11a.11.11,0,0,0,0-.08V146.56a.11.11,0,0,0,0-.08L83.09,143Z"/><path d="M72.72,163a.24.24,0,0,1-.18-.07l-4.35-4.35a.24.24,0,0,1,0-.35.25.25,0,0,1,.34,0l4.36,4.36a.25.25,0,0,1,0,.34A.23.23,0,0,1,72.72,163Z"/><path d="M72.72,163.11a.36.36,0,0,1-.26-.11l-4.36-4.35a.37.37,0,1,1,.52-.52L73,162.48a.37.37,0,0,1,0,.52A.38.38,0,0,1,72.72,163.11Zm-4.36-4.84a.11.11,0,0,0-.08,0,.12.12,0,0,0,0,.17l4.35,4.36a.12.12,0,0,0,.17,0,.1.1,0,0,0,0-.16l-4.35-4.36A.16.16,0,0,0,68.36,158.27Z"/><path d="M89.36,166.54H65.83a.23.23,0,0,1-.19-.1.22.22,0,0,1,0-.21l.5-1.9a2.48,2.48,0,0,1,2.23-1.83H86.87a2.48,2.48,0,0,1,2.23,1.83l.5,1.9a.25.25,0,0,1,0,.21A.26.26,0,0,1,89.36,166.54Zm-23.21-.49h22.9l-.42-1.59A2,2,0,0,0,86.87,163H68.33a2,2,0,0,0-1.76,1.48Z"/><path d="M89.36,166.66H65.83a.37.37,0,0,1-.36-.46l.51-1.9a2.61,2.61,0,0,1,2.35-1.93H86.87a2.63,2.63,0,0,1,2.35,1.93l.5,1.9a.4.4,0,0,1-.06.32A.37.37,0,0,1,89.36,166.66Zm-21-4a2.36,2.36,0,0,0-2.11,1.75l-.5,1.9a.1.1,0,0,0,0,.1.1.1,0,0,0,.09,0H89.36a.12.12,0,0,0,.1,0,.12.12,0,0,0,0-.1L89,164.36a2.35,2.35,0,0,0-2.1-1.74Zm20.88,3.56H66l.47-1.75a2.13,2.13,0,0,1,1.88-1.57H86.87a2.14,2.14,0,0,1,1.88,1.56Zm-22.9-.25H88.89l-.39-1.44a1.86,1.86,0,0,0-1.63-1.38H68.33a1.87,1.87,0,0,0-1.64,1.38Z"/><path d="M86.42,138.53a.23.23,0,0,1-.17-.07.26.26,0,0,1,0-.35l2.49-2.48-1.26-1.26L85,136.86a.25.25,0,0,1-.34,0,.24.24,0,0,1,0-.35l2.66-2.66a.22.22,0,0,1,.17-.07h0a.21.21,0,0,1,.17.07l1.61,1.6a.29.29,0,0,1,.07.18.28.28,0,0,1-.07.17l-2.66,2.66A.24.24,0,0,1,86.42,138.53Z"/><path d="M86.42,138.66a.36.36,0,0,1-.26-.11.37.37,0,0,1,0-.52l2.4-2.4-1.08-1.09-2.4,2.4a.37.37,0,0,1-.52,0,.36.36,0,0,1,0-.52l2.66-2.66a.37.37,0,0,1,.52,0l1.61,1.6a.38.38,0,0,1,.1.27.37.37,0,0,1-.1.26l-2.67,2.66A.36.36,0,0,1,86.42,138.66Zm1.06-4.47,1.44,1.44-2.58,2.57a.11.11,0,0,0,0,.17.11.11,0,0,0,.17,0l2.66-2.66a.11.11,0,0,0,0-.08.12.12,0,0,0,0-.09l-1.61-1.6a.1.1,0,0,0-.16,0l-2.66,2.66a.09.09,0,0,0,0,.08.12.12,0,0,0,0,.09.14.14,0,0,0,.17,0Z"/><path d="M74.44,150.52a.29.29,0,0,1-.18-.07l-1.6-1.61a.28.28,0,0,1-.07-.17.24.24,0,0,1,.07-.17l.69-.69a.24.24,0,0,1,.35,0,.25.25,0,0,1,0,.34l-.52.52,1.26,1.26.52-.52a.24.24,0,1,1,.34.34l-.69.7A.28.28,0,0,1,74.44,150.52Z"/><path d="M74.44,150.64a.36.36,0,0,1-.26-.11l-1.61-1.6a.36.36,0,0,1,0-.52l.69-.69a.39.39,0,0,1,.53,0,.4.4,0,0,1,.1.26.36.36,0,0,1-.11.26l-.43.43,1.09,1.08.43-.43a.37.37,0,1,1,.52.52l-.69.69A.36.36,0,0,1,74.44,150.64Zm-.92-2.78a.11.11,0,0,0-.08,0l-.69.69a.18.18,0,0,0,0,.09.12.12,0,0,0,0,.08l1.6,1.61a.14.14,0,0,0,.17,0l.69-.69a.11.11,0,0,0,0-.17.1.1,0,0,0-.16,0l-.61.61L73,148.67l.61-.61a.11.11,0,0,0,0-.08.16.16,0,0,0,0-.09A.12.12,0,0,0,73.52,147.86Z"/><path d="M76.34,150h0a.21.21,0,0,1-.17-.07l-3-3a.26.26,0,0,1,0-.35L83.4,136.4a.23.23,0,0,1,.34,0l3,3a.28.28,0,0,1,.07.17.29.29,0,0,1-.07.18L76.51,149.9A.22.22,0,0,1,76.34,150Zm-2.62-3.2,2.62,2.62,9.85-9.86-2.62-2.62Z"/><path d="M76.34,150.1a.36.36,0,0,1-.26-.11l-3-3a.37.37,0,0,1,0-.52l10.2-10.2a.37.37,0,0,1,.52,0l3,3a.38.38,0,0,1,.11.26.36.36,0,0,1-.11.26L76.6,150A.36.36,0,0,1,76.34,150.1Zm7.23-13.65a.09.09,0,0,0-.08,0l-10.2,10.19a.12.12,0,0,0,0,.17l3,3a.11.11,0,0,0,.16,0l10.2-10.2a.15.15,0,0,0,0-.09.12.12,0,0,0,0-.08l-3-3A.12.12,0,0,0,83.57,136.45Zm-7.23,13.11-2.8-2.79.09-.09,9.94-9.94,2.8,2.79-.09.09Zm-2.44-2.79,2.44,2.44L86,139.53l-2.44-2.44Z"/><path d="M74.55,157.78h-9.7a.25.25,0,0,1-.24-.25v-.91a.24.24,0,0,1,.24-.24h9.7a.24.24,0,0,1,.24.24v.91A.25.25,0,0,1,74.55,157.78Zm-9.45-.49h9.2v-.42H65.1Z"/><path d="M74.55,157.9h-9.7a.37.37,0,0,1-.37-.37v-.91a.38.38,0,0,1,.37-.37h9.7a.37.37,0,0,1,.36.37v.91A.36.36,0,0,1,74.55,157.9Zm-9.7-1.4a.13.13,0,0,0-.12.12v.91a.12.12,0,0,0,.12.12h9.7a.11.11,0,0,0,.11-.12v-.91a.12.12,0,0,0-.11-.12Zm9.58.92H65v-.68h9.46Zm-9.21-.25h9V157h-9Z"/><path d="M77.6,165.9a1.33,1.33,0,1,1,1.32-1.33A1.32,1.32,0,0,1,77.6,165.9Zm0-2.17a.84.84,0,1,0,.84.84A.84.84,0,0,0,77.6,163.73Z"/><path d="M77.6,166a1.46,1.46,0,1,1,0-2.91,1.46,1.46,0,0,1,0,2.91Zm0-2.66a1.21,1.21,0,1,0,1.2,1.2A1.21,1.21,0,0,0,77.6,163.37Zm0,2.17a1,1,0,1,1,1-1A1,1,0,0,1,77.6,165.54Zm0-1.68a.72.72,0,1,0,.71.71A.71.71,0,0,0,77.6,163.86Z"/><path d="M79.73,145a1.67,1.67,0,1,1,1.67-1.67A1.67,1.67,0,0,1,79.73,145Zm0-2.85a1.19,1.19,0,1,0,1.18,1.18A1.18,1.18,0,0,0,79.73,142.11Z"/><path d="M79.73,145.09a1.8,1.8,0,1,1,1.79-1.8A1.81,1.81,0,0,1,79.73,145.09Zm0-3.34a1.55,1.55,0,1,0,1.54,1.54A1.55,1.55,0,0,0,79.73,141.75Zm0,2.85A1.31,1.31,0,1,1,81,143.29,1.31,1.31,0,0,1,79.73,144.6Zm0-2.36a1.06,1.06,0,1,0,1.06,1A1.06,1.06,0,0,0,79.73,142.24Z"/><path class="cls-7" d="M152.59,89.91H134.81a5.41,5.41,0,0,1-5.4-5.41v-10a5.4,5.4,0,0,1,5.4-5.4h17.78a5.4,5.4,0,0,1,5.4,5.4v10A5.41,5.41,0,0,1,152.59,89.91ZM134.81,69.57a5,5,0,0,0-4.95,5v10a5,5,0,0,0,4.95,5h17.78a5,5,0,0,0,4.94-5v-10a5,5,0,0,0-4.94-5Z"/><path class="cls-8" d="M152.59,90H134.81a5.54,5.54,0,0,1-5.53-5.53v-10A5.54,5.54,0,0,1,134.81,69h17.78a5.53,5.53,0,0,1,5.52,5.53v10A5.53,5.53,0,0,1,152.59,90ZM134.81,69.24a5.29,5.29,0,0,0-5.28,5.28v10a5.29,5.29,0,0,0,5.28,5.28h17.78a5.28,5.28,0,0,0,5.27-5.28v-10a5.28,5.28,0,0,0-5.27-5.28Zm17.78,20.33H134.81a5.07,5.07,0,0,1-5.07-5.07v-10a5.07,5.07,0,0,1,5.07-5.07h17.78a5.08,5.08,0,0,1,5.07,5.07v10A5.08,5.08,0,0,1,152.59,89.57ZM134.81,69.7A4.82,4.82,0,0,0,130,74.52v10a4.82,4.82,0,0,0,4.82,4.82h17.78a4.83,4.83,0,0,0,4.82-4.82v-10a4.83,4.83,0,0,0-4.82-4.82Z"/><path class="cls-7" d="M132.46,77.69a.23.23,0,0,1-.23-.23V75.77a4.15,4.15,0,0,1,4.15-4.15.23.23,0,0,1,.23.23.23.23,0,0,1-.23.23,3.69,3.69,0,0,0-3.69,3.69v1.69A.23.23,0,0,1,132.46,77.69Z"/><path class="cls-8" d="M132.46,77.81a.35.35,0,0,1-.35-.35V75.77a4.27,4.27,0,0,1,4.27-4.27.35.35,0,0,1,.35.35.35.35,0,0,1-.35.35,3.56,3.56,0,0,0-3.56,3.57v1.69A.36.36,0,0,1,132.46,77.81Zm3.92-6.06a4,4,0,0,0-4,4v1.69a.1.1,0,0,0,.1.1.1.1,0,0,0,.11-.1V75.77A3.82,3.82,0,0,1,136.38,72a.1.1,0,1,0,0-.2Z"/><path class="cls-7" d="M147.55,69.45a.23.23,0,0,1-.23-.23V68a1.24,1.24,0,0,0-1.24-1.24.23.23,0,0,1-.23-.23.23.23,0,0,1,.23-.23,1.7,1.7,0,0,1,1.7,1.7v1.25A.23.23,0,0,1,147.55,69.45Z"/><path class="cls-8" d="M147.55,69.58a.36.36,0,0,1-.36-.36V68a1.12,1.12,0,0,0-1.11-1.12.36.36,0,0,1,0-.71A1.83,1.83,0,0,1,147.9,68v1.25A.36.36,0,0,1,147.55,69.58Zm-1.47-3.19a.1.1,0,0,0-.1.11.1.1,0,0,0,.1.1A1.36,1.36,0,0,1,147.44,68v1.25a.11.11,0,0,0,.11.11.11.11,0,0,0,.1-.11V68A1.57,1.57,0,0,0,146.08,66.39Z"/><path class="cls-7" d="M139.57,69.45a.23.23,0,0,1-.23-.23V68a1.7,1.7,0,0,1,1.7-1.7.23.23,0,0,1,.23.23.24.24,0,0,1-.23.23A1.23,1.23,0,0,0,139.8,68v1.25A.23.23,0,0,1,139.57,69.45Z"/><path class="cls-8" d="M139.57,69.58a.35.35,0,0,1-.35-.36V68A1.82,1.82,0,0,1,141,66.14a.36.36,0,0,1,0,.71A1.12,1.12,0,0,0,139.92,68v1.25A.36.36,0,0,1,139.57,69.58ZM141,66.39A1.57,1.57,0,0,0,139.47,68v1.25a.1.1,0,1,0,.2,0V68A1.37,1.37,0,0,1,141,66.6a.1.1,0,0,0,.1-.1A.11.11,0,0,0,141,66.39Z"/><path class="cls-7" d="M143.7,86.79a7.28,7.28,0,0,1-7.28-7.28.23.23,0,1,1,.45,0,6.83,6.83,0,1,0,6.83-6.82.23.23,0,0,1-.23-.23.23.23,0,0,1,.23-.23,7.28,7.28,0,0,1,0,14.56Z"/><path class="cls-8" d="M143.7,86.92a7.41,7.41,0,0,1-7.41-7.41.36.36,0,0,1,.71,0,6.7,6.7,0,1,0,6.7-6.7.36.36,0,1,1,0-.71,7.41,7.41,0,0,1,0,14.82Zm-7.06-7.51a.1.1,0,0,0-.1.1,7.16,7.16,0,1,0,7.16-7.16.11.11,0,0,0-.11.11.1.1,0,0,0,.11.1,6.95,6.95,0,1,1-6.95,7A.1.1,0,0,0,136.64,79.41Z"/><path class="cls-7" d="M138.34,75.15a.27.27,0,0,1-.15-.05.22.22,0,0,1,0-.32,7.27,7.27,0,0,1,3.28-2.2.23.23,0,1,1,.14.44,6.92,6.92,0,0,0-3.08,2A.2.2,0,0,1,138.34,75.15Z"/><path class="cls-8" d="M138.34,75.28a.32.32,0,0,1-.23-.09.35.35,0,0,1,0-.5,7.49,7.49,0,0,1,3.34-2.22.34.34,0,0,1,.44.22.36.36,0,0,1-.22.45,6.66,6.66,0,0,0-3,2A.37.37,0,0,1,138.34,75.28Zm3.18-2.58h0a7.17,7.17,0,0,0-3.23,2.16.1.1,0,0,0,0,.14.09.09,0,0,0,.15,0,6.94,6.94,0,0,1,3.13-2.09.1.1,0,0,0,0-.2Z"/><path class="cls-7" d="M136.87,78h-.06a.23.23,0,0,1-.16-.28,7.44,7.44,0,0,1,.64-1.64.23.23,0,0,1,.31-.09.23.23,0,0,1,.1.31,6.42,6.42,0,0,0-.61,1.54A.23.23,0,0,1,136.87,78Z"/><path class="cls-8" d="M136.87,78.09h-.09a.35.35,0,0,1-.25-.43,7.71,7.71,0,0,1,.65-1.67.36.36,0,0,1,.63.34,6.79,6.79,0,0,0-.6,1.51A.35.35,0,0,1,136.87,78.09Zm.63-2a.12.12,0,0,0-.1,0,7.18,7.18,0,0,0-.63,1.61.1.1,0,0,0,.07.13h0a.1.1,0,0,0,.1-.08,7,7,0,0,1,.62-1.56.11.11,0,0,0-.05-.14Z"/><path class="cls-7" d="M145.37,84.13H142a.23.23,0,0,1-.23-.23V81.41h-2.49a.22.22,0,0,1-.23-.22V77.84a.23.23,0,0,1,.23-.23h2.49V75.12a.23.23,0,0,1,.23-.23h3.34a.23.23,0,0,1,.23.23v2.49h2.49a.22.22,0,0,1,.22.23v3.35a.22.22,0,0,1-.22.22H145.6V83.9A.23.23,0,0,1,145.37,84.13Zm-3.12-.46h2.89V81.19a.23.23,0,0,1,.23-.23h2.49V78.07h-2.49a.23.23,0,0,1-.23-.23V75.35h-2.89v2.49a.22.22,0,0,1-.22.23h-2.49V81H142a.22.22,0,0,1,.22.23Z"/><path class="cls-8" d="M145.37,84.25H142a.35.35,0,0,1-.36-.35V81.54h-2.36a.35.35,0,0,1-.35-.35V77.84a.35.35,0,0,1,.35-.35h2.36V75.12a.36.36,0,0,1,.36-.35h3.34a.35.35,0,0,1,.35.35v2.37h2.37a.35.35,0,0,1,.35.35v3.35a.35.35,0,0,1-.35.35h-2.37V83.9A.35.35,0,0,1,145.37,84.25Zm-6.06-6.51a.09.09,0,0,0-.1.1v3.35a.1.1,0,0,0,.1.1h2.61V83.9a.1.1,0,0,0,.11.1h3.34a.09.09,0,0,0,.1-.1V81.29h2.62a.11.11,0,0,0,.1-.1V77.84a.1.1,0,0,0-.1-.1h-2.62V75.12a.1.1,0,0,0-.1-.1H142a.11.11,0,0,0-.11.1v2.62Zm6,6.06h-3.14V81.19a.11.11,0,0,0-.1-.11h-2.62V77.94H142a.1.1,0,0,0,.1-.1V75.23h3.14v2.61a.09.09,0,0,0,.1.1H148v3.14h-2.61a.1.1,0,0,0-.1.11Zm-2.89-.25H145V81.19a.35.35,0,0,1,.35-.36h2.36V78.19h-2.36a.34.34,0,0,1-.35-.35V75.48h-2.64v2.36a.35.35,0,0,1-.35.35h-2.37v2.64H142a.36.36,0,0,1,.35.36Z"/><path class="cls-7" d="M146.08,65.82h-5a.23.23,0,1,1,0-.45h5a.23.23,0,1,1,0,.45Z"/><path class="cls-8" d="M146.08,66h-5a.36.36,0,1,1,0-.71h5a.36.36,0,0,1,0,.71Zm-5-.46a.11.11,0,0,0-.11.1.11.11,0,0,0,.11.11h5a.1.1,0,0,0,.1-.11.1.1,0,0,0-.1-.1Z"/><path class="cls-7" d="M146.08,67.55h-5a.23.23,0,1,1,0-.46h5a.23.23,0,0,1,0,.46Z"/><path class="cls-8" d="M146.08,67.67h-5a.35.35,0,0,1-.36-.35A.36.36,0,0,1,141,67h5a.35.35,0,0,1,.35.35A.34.34,0,0,1,146.08,67.67Zm-5-.45a.1.1,0,1,0,0,.2h5a.1.1,0,0,0,0-.2Z"/><path d="M152.22,128.57c-.43-3.89-.83-7.56,2.39-10.36a.31.31,0,0,0,0-.44.31.31,0,0,0-.44,0c-3.47,3-3,7-2.6,10.9s.83,7.56-2.39,10.36-6.81,1.9-10.6.94S130.92,138,127.45,141a.31.31,0,0,0,0,.44.29.29,0,0,0,.21.11.27.27,0,0,0,.23-.08,7.45,7.45,0,0,1,3.09-1.64c2.37-.59,4.89,0,7.51.71,3.78.95,7.69,1.94,11.15-1.07S152.64,132.45,152.22,128.57Z"/><path d="M127.66,141.69h0a.4.4,0,0,1-.29-.14.44.44,0,0,1,0-.62c3.51-3.06,7.45-2.06,11.27-1.1s7.31,1.85,10.48-.91,2.77-6.4,2.35-10.25-.87-8,2.65-11a.43.43,0,0,1,.61,0,.44.44,0,0,1,0,.62c-3.17,2.76-2.77,6.4-2.35,10.26h0c.43,3.91.87,7.95-2.64,11s-7.46,2.06-11.27,1.1c-2.63-.67-5.11-1.29-7.45-.71a7.2,7.2,0,0,0-3,1.62A.43.43,0,0,1,127.66,141.69Zm5.31-2.58a7.91,7.91,0,0,0-5.44,2,.19.19,0,0,0,0,.26.18.18,0,0,0,.27,0,7.38,7.38,0,0,1,3.14-1.67c2.4-.6,4.91,0,7.57.71,3.75.94,7.62,1.93,11-1.05s3-6.95,2.56-10.79h0c-.43-3.93-.83-7.63,2.44-10.48a.19.19,0,0,0,0-.26.19.19,0,0,0-.27,0c-3.42,3-3,7-2.56,10.8s.83,7.62-2.43,10.47-6.88,1.93-10.71,1A23.37,23.37,0,0,0,133,139.11Z"/><path d="M163,127.4a.29.29,0,0,0-.21-.11.27.27,0,0,0-.23.08c-3.22,2.8-6.8,1.89-10.6.93-2.61-.66-5.28-1.33-7.82-.69a7.74,7.74,0,0,0-3.33,1.77c-3.47,3-3,7-2.61,10.9s.83,7.56-2.39,10.36a.36.36,0,0,0-.11.22.3.3,0,0,0,.08.22.29.29,0,0,0,.21.11.27.27,0,0,0,.23-.08c3.47-3,3-7,2.6-10.9s-.83-7.56,2.39-10.36,6.81-1.9,10.6-.94,7.69,1.94,11.16-1.07A.31.31,0,0,0,163,127.4Z"/><path d="M136,151.32h0a.4.4,0,0,1-.29-.14.44.44,0,0,1,0-.62c3.17-2.76,2.77-6.4,2.35-10.26s-.87-7.95,2.64-11a8.09,8.09,0,0,1,3.39-1.8c2.57-.64,5.27,0,7.88.7,3.77.95,7.32,1.85,10.49-.91a.37.37,0,0,1,.31-.1.43.43,0,0,1,.26.76c-3.51,3.06-7.46,2.06-11.27,1.1s-7.31-1.85-10.48.91-2.78,6.4-2.35,10.26.87,8-2.65,11A.43.43,0,0,1,136,151.32Zm10.3-23.84a8.66,8.66,0,0,0-2.15.25,7.74,7.74,0,0,0-3.28,1.74c-3.42,3-3,6.95-2.56,10.79s.83,7.63-2.44,10.48a.16.16,0,0,0-.06.12.21.21,0,0,0,0,.14.18.18,0,0,0,.27,0c3.42-3,3-7,2.56-10.79s-.84-7.63,2.43-10.48,6.88-1.93,10.7-1,7.64,1.93,11.06-1a.2.2,0,0,0,0-.26h0a.24.24,0,0,0-.13-.07.29.29,0,0,0-.14,0c-3.27,2.85-6.88,1.93-10.71,1A23.77,23.77,0,0,0,146.34,127.48Z"/><path d="M128.82,141.62a.3.3,0,0,0,.08.22l6.74,7.75a.36.36,0,0,0,.22.11.3.3,0,0,0,.22-.08.33.33,0,0,0,.11-.21.31.31,0,0,0-.08-.23l-6.74-7.75a.31.31,0,0,0-.44,0A.36.36,0,0,0,128.82,141.62Z"/><path d="M135.88,149.82h0a.42.42,0,0,1-.3-.15l-6.75-7.75a.45.45,0,0,1-.1-.31.38.38,0,0,1,.15-.3.4.4,0,0,1,.18-.1.42.42,0,0,1,.43.14l6.75,7.75a.45.45,0,0,1-.05.62A.4.4,0,0,1,135.88,149.82Zm-6.75-8.37h0l-.08.05a.14.14,0,0,0-.06.12h0a.18.18,0,0,0,0,.14l6.75,7.75a.14.14,0,0,0,.12.06.2.2,0,0,0,.14,0,.18.18,0,0,0,.06-.13.18.18,0,0,0,0-.14l-6.75-7.75A.17.17,0,0,0,129.13,141.45Z"/><path d="M137.06,147.62l-6-6.91a.33.33,0,0,0-.21-.11h-.1a.33.33,0,0,0-.13.07.28.28,0,0,0-.1.21.32.32,0,0,0,.07.23l6,6.91a.29.29,0,0,0,.21.11h0a.31.31,0,0,0,.23-.08.33.33,0,0,0,.11-.21A.38.38,0,0,0,137.06,147.62Z"/><path d="M136.83,148.26h0a.42.42,0,0,1-.3-.15l-6-6.91a.42.42,0,0,1-.11-.32.46.46,0,0,1,.15-.3.51.51,0,0,1,.18-.09.34.34,0,0,1,.14,0,.42.42,0,0,1,.3.15l6,6.91a.42.42,0,0,1,.11.32.44.44,0,0,1-.15.3A.42.42,0,0,1,136.83,148.26Zm-6-7.53h-.05l-.07,0a.17.17,0,0,0-.07.13.19.19,0,0,0,0,.14l6,6.91a.18.18,0,0,0,.13.06.25.25,0,0,0,.14,0,.2.2,0,0,0,.06-.13.23.23,0,0,0,0-.14h0l-6-6.91a.18.18,0,0,0-.13-.06Z"/><path d="M132.64,140h-.1a.33.33,0,0,0-.13.07.33.33,0,0,0-.11.21.36.36,0,0,0,.08.23l5,5.77a.36.36,0,0,0,.22.11.3.3,0,0,0,.22-.08.33.33,0,0,0,.11-.21.31.31,0,0,0-.08-.23l-5-5.77A.33.33,0,0,0,132.64,140Z"/><path d="M137.64,146.55h0a.44.44,0,0,1-.3-.15l-5-5.77a.42.42,0,0,1-.11-.32.46.46,0,0,1,.15-.3.51.51,0,0,1,.18-.09.33.33,0,0,1,.14,0h0a.46.46,0,0,1,.3.15l5,5.77a.43.43,0,0,1,.1.31.42.42,0,0,1-.15.3A.39.39,0,0,1,137.64,146.55Zm-5-6.39h-.05l-.08,0a.18.18,0,0,0-.06.13.19.19,0,0,0,0,.14l5,5.77a.14.14,0,0,0,.12.06.23.23,0,0,0,.14,0,.18.18,0,0,0,.06-.13.18.18,0,0,0,0-.14l-5-5.77a.18.18,0,0,0-.13-.06h0Z"/><path d="M135,140.07h-.09a.4.4,0,0,0-.13.07.31.31,0,0,0-.11.21.27.27,0,0,0,.08.23l3,3.4a.39.39,0,0,0,.22.11.3.3,0,0,0,.22-.08.29.29,0,0,0,.11-.21.3.3,0,0,0-.07-.23l-3-3.4A.36.36,0,0,0,135,140.07Z"/><path d="M137.92,144.22h0a.44.44,0,0,1-.3-.15l-3-3.4a.39.39,0,0,1-.1-.31.38.38,0,0,1,.15-.3.35.35,0,0,1,.18-.1H135a.44.44,0,0,1,.3.15l3,3.4a.46.46,0,0,1,.11.32.51.51,0,0,1-.15.3A.43.43,0,0,1,137.92,144.22Zm-3-4h0l-.08,0a.18.18,0,0,0-.06.13.18.18,0,0,0,0,.14l3,3.4a.16.16,0,0,0,.13.06.17.17,0,0,0,.13,0,.18.18,0,0,0,0-.27l-3-3.4a.2.2,0,0,0-.12-.06h0Z"/><path d="M143.38,129.6a.42.42,0,0,0-.13.07.28.28,0,0,0-.1.21.3.3,0,0,0,.07.23l6,6.91a.29.29,0,0,0,.21.11.27.27,0,0,0,.23-.08.33.33,0,0,0,.11-.21.34.34,0,0,0-.08-.23l-6-6.91A.31.31,0,0,0,143.38,129.6Z"/><path d="M149.48,137.26h0a.44.44,0,0,1-.3-.14l-6-6.92a.42.42,0,0,1-.11-.32.51.51,0,0,1,.15-.3.61.61,0,0,1,.18-.09.43.43,0,0,1,.44.14l6,6.91a.42.42,0,0,1,.11.32.44.44,0,0,1-.15.3A.43.43,0,0,1,149.48,137.26Zm-6-7.54h-.05l-.07,0a.24.24,0,0,0-.07.13.19.19,0,0,0,0,.14l6,6.91a.18.18,0,0,0,.13.06.21.21,0,0,0,.14,0,.16.16,0,0,0,.06-.13.15.15,0,0,0,0-.13l-6-6.92A.2.2,0,0,0,143.46,129.72Z"/><path d="M145,129.31a.3.3,0,0,0,.07.23l5,5.77a.36.36,0,0,0,.22.11.3.3,0,0,0,.22-.08.29.29,0,0,0,.11-.21.27.27,0,0,0-.08-.23l-5-5.77a.31.31,0,0,0-.44,0A.3.3,0,0,0,145,129.31Z"/><path d="M150.29,135.54h0a.42.42,0,0,1-.3-.15l-5-5.77a.41.41,0,0,1-.11-.31.42.42,0,0,1,.15-.3.41.41,0,0,1,.32-.11.46.46,0,0,1,.3.15l5,5.77a.45.45,0,0,1-.05.62A.39.39,0,0,1,150.29,135.54Zm-5-6.39a.2.2,0,0,0-.13,0,.22.22,0,0,0-.06.13h0a.19.19,0,0,0,0,.14l5,5.77a.16.16,0,0,0,.13.06.15.15,0,0,0,.13,0,.18.18,0,0,0,.06-.13.18.18,0,0,0,0-.14l-5-5.77a.2.2,0,0,0-.13-.06Z"/><path d="M147.3,129.36a.3.3,0,0,0,.08.22l3,3.4a.33.33,0,0,0,.22.11h0a.34.34,0,0,0,.23-.08.28.28,0,0,0,.1-.21.32.32,0,0,0-.07-.23l-3-3.4a.3.3,0,0,0-.31-.09.31.31,0,0,0-.13.06A.31.31,0,0,0,147.3,129.36Z"/><path d="M150.57,133.21h0a.4.4,0,0,1-.3-.15l-3-3.4a.45.45,0,0,1-.1-.31.38.38,0,0,1,.15-.3.4.4,0,0,1,.18-.1.47.47,0,0,1,.43.14l3,3.4a.46.46,0,0,1,.11.32.46.46,0,0,1-.15.3A.43.43,0,0,1,150.57,133.21Zm-3-4h0a.12.12,0,0,0-.08,0,.15.15,0,0,0-.06.13h0a.17.17,0,0,0,0,.13l3,3.4a.16.16,0,0,0,.13.06.17.17,0,0,0,.13,0,.18.18,0,0,0,0-.27l-3-3.4A.17.17,0,0,0,147.61,129.19Z"/><path d="M154.4,119.35a.36.36,0,0,0,.08.23l6.74,7.75a.3.3,0,0,0,.22.1.29.29,0,0,0,.22-.07.31.31,0,0,0,.11-.22.27.27,0,0,0-.08-.22L155,119.17a.31.31,0,0,0-.44,0A.33.33,0,0,0,154.4,119.35Z"/><path d="M161.46,127.56h0a.44.44,0,0,1-.3-.15l-6.74-7.75a.42.42,0,0,1-.11-.32h0a.46.46,0,0,1,.15-.3.45.45,0,0,1,.62,0l6.74,7.75a.42.42,0,0,1,0,.61A.44.44,0,0,1,161.46,127.56Zm-6.74-8.37a.2.2,0,0,0-.13,0,.22.22,0,0,0-.06.13h0a.23.23,0,0,0,0,.14l6.75,7.75a.2.2,0,0,0,.13.06.2.2,0,0,0,.13,0,.18.18,0,0,0,0-.27l-6.74-7.75A.2.2,0,0,0,154.72,119.19Z"/><path d="M153.79,120.62a.34.34,0,0,0-.23.08.28.28,0,0,0-.1.21.32.32,0,0,0,.07.23l6,6.91a.33.33,0,0,0,.21.11.31.31,0,0,0,.23-.08.33.33,0,0,0,.11-.21.34.34,0,0,0-.08-.23l-6-6.91A.29.29,0,0,0,153.79,120.62Z"/><path d="M159.79,128.28h0a.41.41,0,0,1-.29-.15l-6-6.91a.42.42,0,0,1-.11-.32.43.43,0,0,1,.47-.4.4.4,0,0,1,.3.15l6,6.91a.45.45,0,0,1-.05.62A.42.42,0,0,1,159.79,128.28Zm-6-7.53a.2.2,0,0,0-.13,0,.26.26,0,0,0-.06.13.24.24,0,0,0,0,.14l6,6.91a.18.18,0,0,0,.13.06.23.23,0,0,0,.14,0,.18.18,0,0,0,.06-.13.23.23,0,0,0,0-.14l-6-6.91a.16.16,0,0,0-.13-.06Z"/><path d="M152.75,122.41a.33.33,0,0,0-.11.21.31.31,0,0,0,.08.23l5,5.77a.3.3,0,0,0,.44,0,.33.33,0,0,0,.11-.21.31.31,0,0,0-.08-.23l-5-5.77A.31.31,0,0,0,152.75,122.41Z"/><path d="M158,128.85h0a.42.42,0,0,1-.3-.15l-5-5.77a.42.42,0,0,1-.11-.32.41.41,0,0,1,.15-.29h0a.45.45,0,0,1,.62,0l5,5.77a.45.45,0,0,1-.05.62A.42.42,0,0,1,158,128.85Zm-5.15-6.35a.18.18,0,0,0-.06.13.18.18,0,0,0,0,.14l5,5.77a.14.14,0,0,0,.12.06.23.23,0,0,0,.14,0,.18.18,0,0,0,.06-.13.18.18,0,0,0,0-.14l-5-5.77A.19.19,0,0,0,152.83,122.5Z"/><path d="M152.36,125a.31.31,0,0,0,.08.23l3,3.4a.28.28,0,0,0,.21.1.33.33,0,0,0,.23-.07.3.3,0,0,0,.1-.21.3.3,0,0,0-.07-.23l-3-3.4a.31.31,0,0,0-.44,0A.33.33,0,0,0,152.36,125Z"/><path d="M155.63,128.81h0a.44.44,0,0,1-.3-.15l-3-3.4a.46.46,0,0,1-.1-.32h0a.46.46,0,0,1,.15-.3.44.44,0,0,1,.61,0l3,3.4a.42.42,0,0,1,.11.32.41.41,0,0,1-.15.29A.44.44,0,0,1,155.63,128.81Zm-3-4a.19.19,0,0,0-.12,0,.18.18,0,0,0-.06.13h0a.18.18,0,0,0,0,.14l3,3.4a.2.2,0,0,0,.13.06.18.18,0,0,0,.13,0,.18.18,0,0,0,0-.27l-3-3.4A.17.17,0,0,0,152.67,124.79Z"/><path d="M148.76,138.17,142,130.42a.3.3,0,0,0-.21-.1h-.1l-.13.07a.36.36,0,0,0-.11.22.3.3,0,0,0,.08.22l6.74,7.75a.36.36,0,0,0,.22.11.32.32,0,0,0,.22-.08.29.29,0,0,0,.11-.21A.32.32,0,0,0,148.76,138.17Z"/><path d="M148.53,138.81h0a.38.38,0,0,1-.3-.15l-6.75-7.75a.43.43,0,0,1-.1-.31.42.42,0,0,1,.15-.3.4.4,0,0,1,.18-.1h.14a.41.41,0,0,1,.29.15l6.75,7.75a.46.46,0,0,1,.1.32.42.42,0,0,1-.15.3A.45.45,0,0,1,148.53,138.81Zm-6.75-8.37h0s-.05,0-.08,0a.16.16,0,0,0-.06.13.17.17,0,0,0,0,.13l6.75,7.75a.16.16,0,0,0,.13.06.2.2,0,0,0,.13,0,.18.18,0,0,0,.06-.13.18.18,0,0,0,0-.14h0l-6.75-7.75a.17.17,0,0,0-.12-.06Z"/><path d="M140.53,132.16a.3.3,0,0,0,.07.23l6,6.91a.26.26,0,0,0,.21.11.3.3,0,0,0,.23-.07.32.32,0,0,0,.1-.22.29.29,0,0,0-.07-.22l-6-6.92a.31.31,0,0,0-.44,0A.28.28,0,0,0,140.53,132.16Z"/><path d="M146.86,139.54h0a.46.46,0,0,1-.3-.15l-6-6.92a.41.41,0,0,1-.11-.31h0a.42.42,0,0,1,.15-.3.44.44,0,0,1,.62,0l6,6.91a.42.42,0,0,1,.11.32.44.44,0,0,1-.15.3A.43.43,0,0,1,146.86,139.54Zm-6-7.54a.2.2,0,0,0-.13,0,.22.22,0,0,0-.06.13h0a.19.19,0,0,0,0,.14l6,6.91a.18.18,0,0,0,.27,0,.2.2,0,0,0,.06-.13.17.17,0,0,0,0-.13l-6-6.92A.2.2,0,0,0,140.84,132Z"/><path d="M140.05,133.59a.16.16,0,0,0-.1,0,.31.31,0,0,0-.13.06.36.36,0,0,0-.11.22.3.3,0,0,0,.08.22l5,5.77a.29.29,0,0,0,.21.11.27.27,0,0,0,.23-.08.33.33,0,0,0,.11-.21.4.4,0,0,0-.08-.23l-5-5.77A.3.3,0,0,0,140.05,133.59Z"/><path d="M145.05,140.11h0a.4.4,0,0,1-.29-.14l-5-5.77a.47.47,0,0,1-.1-.32.44.44,0,0,1,.15-.3.4.4,0,0,1,.18-.1h.13a.42.42,0,0,1,.3.15l5,5.77a.42.42,0,0,1,.11.32.44.44,0,0,1-.15.3A.43.43,0,0,1,145.05,140.11Zm-5-6.4h0a.12.12,0,0,0-.08,0,.16.16,0,0,0-.06.13.16.16,0,0,0,0,.13l5,5.77a.18.18,0,0,0,.27,0,.16.16,0,0,0,.06-.13.15.15,0,0,0,0-.13l-5-5.77a.15.15,0,0,0-.12-.07h0Z"/><path d="M139.43,136.21a.27.27,0,0,0,.08.22l3,3.4a.36.36,0,0,0,.22.11.3.3,0,0,0,.22-.08.29.29,0,0,0,.11-.21.3.3,0,0,0-.08-.23l-3-3.4a.32.32,0,0,0-.55.19Z"/><path d="M142.7,140.06h0a.44.44,0,0,1-.3-.15l-3-3.4a.49.49,0,0,1-.11-.31h0a.48.48,0,0,1,.15-.3.44.44,0,0,1,.62,0l3,3.4a.46.46,0,0,1,.11.32.51.51,0,0,1-.15.3A.43.43,0,0,1,142.7,140.06Zm-3.15-3.85a.24.24,0,0,0,0,.14l3,3.4a.16.16,0,0,0,.13.06.15.15,0,0,0,.13,0,.21.21,0,0,0,.07-.13.24.24,0,0,0,0-.14l-3-3.4a.2.2,0,0,0-.33.11Z"/><path d="M164,249.6h4.42v-4.2H164Zm3.59-3.38v2.55h-2.77v-2.55Z"/><path d="M193.88,219.63l-.08-.08-13.31,12.34-.14.12v4.19h-20v22.87h27.8v-9.43a5.72,5.72,0,0,1,11.43,0v9.43h7.71V232Zm-6.6,30v8.6H161.12V237h20.06v-4.64l12.62-11.7,12.62,11.7v25.86h-6.07v-8.6a6.54,6.54,0,1,0-13.07,0Z"/><path d="M164,255h4.42v-4.2H164Zm3.59-3.37v2.54h-2.77v-2.54Z"/><path d="M175.14,255h4.42v-4.2h-4.42Zm3.59-3.37v2.54H176v-2.54Z"/><path d="M164,244.48h4.42v-4.2H164Zm3.59-3.37v2.55h-2.77v-2.55Z"/><path d="M175.14,249.6h4.42v-4.2h-4.42Zm3.59-3.38v2.55H176v-2.55Z"/><path d="M169.58,249.6H174v-4.2h-4.42Zm3.6-3.38v2.55h-2.77v-2.55Z"/><path d="M175.14,244.48h4.42v-4.2h-4.42Zm3.59-3.37v2.55H176v-2.55Z"/><path d="M169.58,255H174v-4.2h-4.42Zm3.6-3.37v2.54h-2.77v-2.54Z"/><path d="M169.58,244.48H174v-4.2h-4.42Zm3.6-3.37v2.55h-2.77v-2.55Z"/><path d="M191.68,238.94H196v-3.73h3.7v-4.29H196v-3.73h-4.29v3.73h-3.75v4.29h3.75Zm.82-7.2V228h2.64v3.72h3.7v2.65h-3.7v3.72H192.5v-3.72h-3.75v-2.65Z"/><path d="M39.31,212.57h-4a.4.4,0,0,1-.35-.24.41.41,0,0,1,0-.16.38.38,0,0,1,.38-.38h3.73l2.36-4.89a.4.4,0,0,1,.36-.23.38.38,0,0,1,.35.25l3.21,8L49,203.1a.37.37,0,0,1,.36-.25.38.38,0,0,1,.38.25l3.59,11.79,3.22-8a.38.38,0,0,1,.35-.25h0a.39.39,0,0,1,.35.23l2.36,4.89h3.72a.39.39,0,0,1,.4.38.42.42,0,0,1-.12.28.4.4,0,0,1-.28.12h-4a.4.4,0,0,1-.36-.23L56.89,208,53.6,216.2a.41.41,0,0,1-.36.24h0a.39.39,0,0,1-.34-.28l-3.56-11.62-3.54,11.62a.41.41,0,0,1-.36.28h0a.38.38,0,0,1-.35-.24L41.74,208l-2.08,4.32A.4.4,0,0,1,39.31,212.57Z"/><path d="M53.24,216.56h0a.5.5,0,0,1-.46-.37L49.31,205,45.89,216.2a.52.52,0,0,1-.47.36h0a.53.53,0,0,1-.5-.32l-3.19-7.91-2,4.07a.52.52,0,0,1-.46.29h-4a.52.52,0,0,1-.47-.32.45.45,0,0,1,0-.2.51.51,0,0,1,.51-.51H39l2.33-4.82a.51.51,0,0,1,.47-.29.52.52,0,0,1,.47.32l3.08,7.65,3.5-11.46a.48.48,0,0,1,.48-.33.51.51,0,0,1,.5.33l3.49,11.46,3.08-7.65a.5.5,0,0,1,.47-.32.52.52,0,0,1,.47.29l2.32,4.82h3.65a.52.52,0,0,1,.52.51.56.56,0,0,1-.14.36.56.56,0,0,1-.38.16h-4a.52.52,0,0,1-.47-.29l-2-4.07-3.18,7.91A.54.54,0,0,1,53.24,216.56Zm-3.93-12.45.12.39L53,216.12a.24.24,0,0,0,.23.19.28.28,0,0,0,.27-.17l3.4-8.43,2.19,4.58a.28.28,0,0,0,.25.15h4a.34.34,0,0,0,.2-.08.33.33,0,0,0,.07-.19.27.27,0,0,0-.27-.26h-3.8l-2.39-5a.28.28,0,0,0-.24-.15.25.25,0,0,0-.24.16l-3.36,8.31-.1-.34-3.59-11.79a.25.25,0,0,0-.26-.16.23.23,0,0,0-.24.16l-3.71,12.13-.13-.33L42,207a.26.26,0,0,0-.24-.16.26.26,0,0,0-.24.15l-2.4,5H35.33a.26.26,0,0,0-.26.26.43.43,0,0,0,0,.11.28.28,0,0,0,.24.16h4a.25.25,0,0,0,.23-.15l2.21-4.58.11.26,3.29,8.18a.27.27,0,0,0,.5,0Z"/><path d="M36.69,204.75a.42.42,0,0,1,0-.29,7,7,0,0,1,6.22-3.76.39.39,0,0,1,.39.39.4.4,0,0,1-.39.39,6.22,6.22,0,0,0-5.53,3.34.39.39,0,0,1-.35.21.34.34,0,0,1-.17-.05A.3.3,0,0,1,36.69,204.75Z"/><path d="M37.05,205.16a.51.51,0,0,1-.24-.07.45.45,0,0,1-.24-.3.53.53,0,0,1,0-.39,7.15,7.15,0,0,1,6.33-3.83.52.52,0,0,1,.51.52.51.51,0,0,1-.51.51,6.11,6.11,0,0,0-5.42,3.28A.52.52,0,0,1,37.05,205.16Zm5.88-4.34a6.89,6.89,0,0,0-6.11,3.7.34.34,0,0,0,0,.2h0a.2.2,0,0,0,.12.15.25.25,0,0,0,.36-.11,6.35,6.35,0,0,1,5.64-3.41.27.27,0,0,0,0-.53Z"/><path d="M36.91,206.06a6.2,6.2,0,0,0-.22,1.66.4.4,0,0,1-.4.4.39.39,0,0,1-.38-.4,7,7,0,0,1,.25-1.87.36.36,0,0,1,.19-.23.37.37,0,0,1,.29,0,.46.46,0,0,1,.23.18A.36.36,0,0,1,36.91,206.06Z"/><path d="M36.29,208.24a.51.51,0,0,1-.51-.52,7.31,7.31,0,0,1,.26-1.9.49.49,0,0,1,.25-.31.47.47,0,0,1,.38,0,.57.57,0,0,1,.31.24.49.49,0,0,1,.05.39,6.53,6.53,0,0,0-.22,1.63A.52.52,0,0,1,36.29,208.24Zm.25-2.55a.22.22,0,0,0-.13,0,.24.24,0,0,0-.13.15,7.28,7.28,0,0,0-.25,1.84.27.27,0,0,0,.26.27.26.26,0,0,0,.27-.27,6.55,6.55,0,0,1,.23-1.69h0a.22.22,0,0,0,0-.19.26.26,0,0,0-.16-.13Z"/><path d="M32,207.72a10.91,10.91,0,0,1,17.27-8.85,10.92,10.92,0,0,1,17.29,8.85c0,8.43-16.38,18.47-17.08,18.89a.37.37,0,0,1-.21.06.39.39,0,0,1-.2-.06C48.41,226.2,32,216.25,32,207.72Zm10.9-10.13A10.15,10.15,0,0,0,32.8,207.72a9.38,9.38,0,0,0,1.58,4.76c3.81,6.27,13.36,12.38,14.92,13.36,1.57-1,11.12-7.07,14.94-13.35a9.36,9.36,0,0,0,1.57-4.77,10.14,10.14,0,0,0-10.14-10.13,10,10,0,0,0-6.13,2.07.38.38,0,0,1-.47,0A10,10,0,0,0,42.93,197.59Z"/><path d="M49.3,226.8a.53.53,0,0,1-.27-.08c-.69-.42-17.13-10.34-17.13-19a11,11,0,0,1,11-11,10.92,10.92,0,0,1,6.37,2,10.92,10.92,0,0,1,6.37-2,11.06,11.06,0,0,1,11,11c0,8.28-15.39,17.93-17.14,19A.57.57,0,0,1,49.3,226.8Zm-6.37-29.86a10.8,10.8,0,0,0-10.78,10.78c0,8.52,16.84,18.69,17,18.79a.28.28,0,0,0,.28,0c.69-.43,17-10.5,17-18.79a10.8,10.8,0,0,0-10.8-10.78,10.68,10.68,0,0,0-6.29,2l-.08.06-.07-.06A10.69,10.69,0,0,0,42.93,196.94Zm6.37,29-.06,0c-1.84-1.15-11.2-7.2-15-13.4a9.39,9.39,0,0,1-1.59-4.82,10.26,10.26,0,0,1,16.47-8.16.27.27,0,0,0,.32,0,10.12,10.12,0,0,1,6.2-2.09,10.27,10.27,0,0,1,10.27,10.25,9.41,9.41,0,0,1-1.6,4.83c-3.8,6.27-13.14,12.26-15,13.39Zm-6.37-28.26a10,10,0,0,0-10,10,9.13,9.13,0,0,0,1.56,4.69c3.69,6.08,12.84,12,14.81,13.28,1.4-.87,11-7,14.83-13.27a9.23,9.23,0,0,0,1.56-4.7,10,10,0,0,0-10-10,9.88,9.88,0,0,0-6.05,2,.51.51,0,0,1-.62,0A9.89,9.89,0,0,0,42.93,197.72Z"/><path class="cls-7" d="M155.28,176.25a.17.17,0,0,1-.17-.16.6.6,0,0,0-.6-.6.6.6,0,0,0-.6.6.16.16,0,1,1-.32,0,.93.93,0,1,1,1.85,0A.16.16,0,0,1,155.28,176.25Z"/><path class="cls-8" d="M155.28,176.38a.29.29,0,0,1-.29-.29.48.48,0,1,0-1,0,.29.29,0,1,1-.58,0,1.05,1.05,0,1,1,2.1,0A.29.29,0,0,1,155.28,176.38Zm-.77-1a.73.73,0,0,1,.73.73s.07,0,.07,0a.8.8,0,1,0-1.6,0s.08,0,.08,0A.73.73,0,0,1,154.51,175.36Z"/><path class="cls-7" d="M155.63,176.61a.16.16,0,0,1-.16-.16v-.2h-1.91v.2a.16.16,0,0,1-.16.16.17.17,0,0,1-.17-.16v-.36a.17.17,0,0,1,.17-.16h2.23a.16.16,0,0,1,.16.16v.36A.16.16,0,0,1,155.63,176.61Z"/><path class="cls-8" d="M155.63,176.74a.28.28,0,0,1-.28-.29v-.07h-1.67v.07a.29.29,0,1,1-.57,0v-.36a.29.29,0,0,1,.29-.29h2.23a.29.29,0,0,1,.29.29v.36A.29.29,0,0,1,155.63,176.74Zm-2.2-.61h2.17v.32s.07,0,.07,0v-.36a0,0,0,0,0,0,0H153.4a0,0,0,0,0,0,0v.36s.07,0,.07,0Z"/><path class="cls-7" d="M147.86,192.26a2.92,2.92,0,1,1,2.92-2.92A2.92,2.92,0,0,1,147.86,192.26Zm0-5.52a2.6,2.6,0,1,0,2.59,2.6A2.6,2.6,0,0,0,147.86,186.74Z"/><path class="cls-8" d="M147.86,192.38a3,3,0,1,1,3-3A3,3,0,0,1,147.86,192.38Zm0-5.84a2.8,2.8,0,1,0,2.79,2.8A2.8,2.8,0,0,0,147.86,186.54Zm0,5.52a2.73,2.73,0,1,1,2.72-2.72A2.72,2.72,0,0,1,147.86,192.06Zm0-5.2a2.48,2.48,0,1,0,2.47,2.48A2.47,2.47,0,0,0,147.86,186.86Z"/><path class="cls-7" d="M147.86,190.84a1.51,1.51,0,1,1,1.5-1.5.16.16,0,0,1-.32,0,1.18,1.18,0,1,0-1.18,1.18.16.16,0,0,1,0,.32Z"/><path class="cls-8" d="M147.86,191a1.63,1.63,0,1,1,1.62-1.62.28.28,0,0,1-.28.28.29.29,0,0,1-.29-.28,1.06,1.06,0,1,0-1,1,.28.28,0,0,1,.28.29A.27.27,0,0,1,147.86,191Zm0-3a1.38,1.38,0,1,0,0,2.75,0,0,0,0,0,0,0s0,0,0,0a1.31,1.31,0,1,1,1.3-1.3s.07,0,.07,0A1.37,1.37,0,0,0,147.86,188Z"/><path class="cls-7" d="M162.4,192.26a2.92,2.92,0,1,1,2.92-2.92A2.92,2.92,0,0,1,162.4,192.26Zm0-5.52a2.6,2.6,0,1,0,2.6,2.6A2.59,2.59,0,0,0,162.4,186.74Z"/><path class="cls-8" d="M162.4,192.38a3,3,0,1,1,3-3A3,3,0,0,1,162.4,192.38Zm0-5.84a2.8,2.8,0,1,0,2.8,2.8A2.79,2.79,0,0,0,162.4,186.54Zm0,5.52a2.73,2.73,0,1,1,2.72-2.72A2.72,2.72,0,0,1,162.4,192.06Zm0-5.2a2.48,2.48,0,1,0,2.47,2.48A2.48,2.48,0,0,0,162.4,186.86Z"/><path class="cls-7" d="M162.4,190.84a1.51,1.51,0,1,1,1.51-1.5.17.17,0,0,1-.17.16.16.16,0,0,1-.16-.16,1.18,1.18,0,1,0-1.18,1.18.16.16,0,1,1,0,.32Z"/><path class="cls-8" d="M162.4,191a1.63,1.63,0,1,1,1.63-1.62.29.29,0,0,1-.57,0,1.06,1.06,0,1,0-2.11,0,1,1,0,0,0,1.05,1,.29.29,0,0,1,.29.29A.28.28,0,0,1,162.4,191Zm0-3a1.38,1.38,0,1,0,0,2.75s0,0,0,0a0,0,0,0,0,0,0,1.31,1.31,0,0,1,0-2.61,1.31,1.31,0,0,1,1.31,1.31s.07,0,.07,0A1.38,1.38,0,0,0,162.4,188Z"/><path class="cls-7" d="M149.88,183.57a.16.16,0,0,1-.13-.06l-1-1.34a.17.17,0,0,1,0-.19l2.85-4.22a.15.15,0,0,1,.13-.07H155a.16.16,0,0,1,.16.16v5.56a.16.16,0,0,1-.16.16.17.17,0,0,1-.17-.16V178h-3L149,182.07l1,1.24a.17.17,0,0,1,0,.23A.19.19,0,0,1,149.88,183.57Z"/><path class="cls-8" d="M155,183.7a.29.29,0,0,1-.29-.29v-5.27h-2.84l-2.65,3.92.92,1.17a.29.29,0,0,1-.46.36l-1-1.34a.29.29,0,0,1,0-.34l2.85-4.22a.29.29,0,0,1,.24-.13H155a.29.29,0,0,1,.28.29v5.56A.29.29,0,0,1,155,183.7Zm-3.26-5.81h3.22v5.52s.07,0,.07,0v-5.56s0,0,0,0h-3.28l0,0-2.85,4.22a0,0,0,0,0,0,0l1,1.33a0,0,0,0,0,.06,0l-1-1.32Z"/><path class="cls-7" d="M164.63,183.57a.16.16,0,0,1-.16-.16V178h-8.54v5.4a.16.16,0,0,1-.16.16.17.17,0,0,1-.17-.16v-5.56a.17.17,0,0,1,.17-.16h8.86a.16.16,0,0,1,.16.16v5.56A.16.16,0,0,1,164.63,183.57Z"/><path class="cls-8" d="M164.63,183.7a.29.29,0,0,1-.29-.29v-5.27h-8.29v5.27a.29.29,0,1,1-.57,0v-5.56a.29.29,0,0,1,.29-.29h8.86a.29.29,0,0,1,.28.29v5.56A.29.29,0,0,1,164.63,183.7Zm-8.83-5.81h8.79v5.52s.07,0,.07,0v-5.56s0,0,0,0h-8.86a0,0,0,0,0,0,0v5.56s.07,0,.07,0Z"/><path class="cls-7" d="M144.31,189.19H143a.16.16,0,0,1-.16-.16v-2.45a.16.16,0,0,1,.16-.16h1.32a.16.16,0,0,1,0,.32h-1.16v2.13h1.16a.16.16,0,0,1,0,.32Z"/><path class="cls-8" d="M144.31,189.31H143a.28.28,0,0,1-.29-.28v-2.45a.29.29,0,0,1,.29-.29h1.32a.28.28,0,0,1,.28.29.27.27,0,0,1-.28.28h-1v1.88h1a.28.28,0,0,1,.28.29A.27.27,0,0,1,144.31,189.31ZM143,186.54a0,0,0,0,0,0,0V189s0,0,0,0h1.32a0,0,0,0,0,0,0s0,0,0,0H143v-2.38h1.29a0,0,0,0,0,0,0s0,0,0,0Z"/><path class="cls-7" d="M168,189.19h-2a.16.16,0,0,1,0-.32h1.86v-2.13h-1.86a.16.16,0,0,1,0-.32h2a.16.16,0,0,1,.16.16V189A.16.16,0,0,1,168,189.19Z"/><path class="cls-8" d="M168,189.31h-2a.28.28,0,0,1-.29-.28.29.29,0,0,1,.29-.29h1.74v-1.88h-1.74a.28.28,0,0,1-.29-.28.29.29,0,0,1,.29-.29h2a.29.29,0,0,1,.28.29V189A.28.28,0,0,1,168,189.31Zm-2-.32a0,0,0,0,0,0,0s0,0,0,0h2a0,0,0,0,0,0,0v-2.45s0,0,0,0h-2a0,0,0,0,0,0,0s0,0,0,0h2V189Z"/><path class="cls-7" d="M165.92,189.19h-.1a.16.16,0,0,1,0-.32h.1a.16.16,0,1,1,0,.32Z"/><path class="cls-8" d="M165.92,189.31h-.1a.27.27,0,0,1-.28-.28.28.28,0,0,1,.28-.29h.1a.29.29,0,0,1,.28.29A.28.28,0,0,1,165.92,189.31Zm-.1-.32s0,0,0,0a0,0,0,0,0,0,0h.1a0,0,0,0,0,0,0s0,0,0,0Z"/><path class="cls-7" d="M159,189.19h-7.7a.16.16,0,0,1,0-.32H159a.16.16,0,1,1,0,.32Z"/><path class="cls-8" d="M159,189.31h-7.7A.28.28,0,0,1,151,189a.29.29,0,0,1,.29-.29H159a.29.29,0,0,1,.29.29A.28.28,0,0,1,159,189.31Zm-7.7-.32a0,0,0,0,0,0,0s0,0,0,0H159s0,0,0,0a0,0,0,0,0,0,0Z"/><path class="cls-7" d="M144.44,189.19h-.13a.16.16,0,1,1,0-.32h.13a.16.16,0,0,1,0,.32Z"/><path class="cls-8" d="M144.44,189.31h-.13A.28.28,0,0,1,144,189a.29.29,0,0,1,.29-.29h.13a.28.28,0,0,1,.28.29A.27.27,0,0,1,144.44,189.31Zm-.13-.32a0,0,0,0,0,0,0s0,0,0,0h.13a0,0,0,0,0,0,0s0,0,0,0Z"/><path class="cls-7" d="M144.63,186.74H144a.16.16,0,0,1-.16-.16v-1.9a2.65,2.65,0,0,1,1.84-2.42l2.15-.58,2.6-4a3.51,3.51,0,0,1,3-1.39.18.18,0,0,1,.17.16.16.16,0,0,1-.16.16,3.21,3.21,0,0,0-2.69,1.24L148,181.9a.15.15,0,0,1-.09.07l-2.21.6a2.32,2.32,0,0,0-1.61,2.11v1.74h.51a.16.16,0,0,1,0,.32Z"/><path class="cls-8" d="M144.63,186.86H144a.28.28,0,0,1-.29-.28v-1.9a2.78,2.78,0,0,1,1.94-2.54l2.1-.57,2.58-4a3.57,3.57,0,0,1,3.06-1.44.29.29,0,0,1,.29.27.29.29,0,0,1-.28.3,3.07,3.07,0,0,0-2.59,1.17L148.13,182a.25.25,0,0,1-.16.12l-2.21.6a2.18,2.18,0,0,0-1.51,2v1.61h.38a.29.29,0,0,1,.29.29A.28.28,0,0,1,144.63,186.86Zm8.71-10.44a3.34,3.34,0,0,0-2.84,1.32l-2.63,4-2.19.6a2.53,2.53,0,0,0-1.76,2.3v1.9s0,0,0,0h.67s0,0,0,0a0,0,0,0,0,0,0H144v-1.86a2.45,2.45,0,0,1,1.69-2.23l2.21-.6,2.66-4.07a3.29,3.29,0,0,1,2.8-1.29s0,0,0,0S153.37,176.42,153.34,176.42Z"/><path class="cls-7" d="M167,186.74h-1.06a.16.16,0,0,1,0-.32h.89V180a3.26,3.26,0,0,0-3.23-3.42h-8a.16.16,0,1,1,0-.32h8a3.57,3.57,0,0,1,3.56,3.74v6.55A.16.16,0,0,1,167,186.74Z"/><path class="cls-8" d="M167,186.86h-1.06a.28.28,0,0,1-.29-.28.29.29,0,0,1,.29-.29h.77V180a3.13,3.13,0,0,0-3.11-3.29h-8a.29.29,0,0,1,0-.58h8a3.7,3.7,0,0,1,3.68,3.87v6.55A.28.28,0,0,1,167,186.86Zm-1.06-.32a0,0,0,0,0,0,0s0,0,0,0H167a0,0,0,0,0,0,0V180a3.45,3.45,0,0,0-3.43-3.62h-8s0,0,0,0,0,0,0,0h8a3.38,3.38,0,0,1,3.36,3.54v6.51Z"/><path class="cls-7" d="M161.09,182.9h-1.64a.16.16,0,0,1-.16-.16v-1.18H158.1a.17.17,0,0,1-.16-.17v-1.63a.17.17,0,0,1,.16-.17h1.19v-1.18a.16.16,0,0,1,.16-.16h1.64a.16.16,0,0,1,.16.16v1.18h1.18a.17.17,0,0,1,.16.17v1.63a.17.17,0,0,1-.16.17h-1.18v1.18A.16.16,0,0,1,161.09,182.9Zm-1.48-.32h1.31v-1.19a.17.17,0,0,1,.17-.16h1.18v-1.31h-1.18a.17.17,0,0,1-.17-.16v-1.19h-1.31v1.19a.16.16,0,0,1-.16.16h-1.19v1.31h1.19a.16.16,0,0,1,.16.16Z"/><path class="cls-8" d="M161.09,183h-1.64a.29.29,0,0,1-.29-.29v-1.06H158.1a.28.28,0,0,1-.28-.29v-1.63a.28.28,0,0,1,.28-.29h1.06v-1.06a.29.29,0,0,1,.29-.29h1.64a.29.29,0,0,1,.28.29v1.06h1.06a.29.29,0,0,1,.29.29v1.63a.29.29,0,0,1-.29.29h-1.06v1.06A.29.29,0,0,1,161.09,183Zm-3-3.31s0,0,0,0v1.63s0,0,0,0h1.31v1.31a0,0,0,0,0,0,0h1.64a0,0,0,0,0,0,0v-1.31h1.31a0,0,0,0,0,0,0v-1.63a0,0,0,0,0,0,0h-1.31v-1.31a0,0,0,0,0,0,0h-1.64a0,0,0,0,0,0,0v1.31Zm3,3h-1.57v-1.31a0,0,0,0,0,0,0h-1.31v-1.57h1.31a0,0,0,0,0,0,0v-1.31h1.57v1.31s0,0,0,0h1.3v1.57h-1.3s0,0,0,0Zm-1.32-.25h1.07v-1.06a.29.29,0,0,1,.29-.28h1V180h-1a.29.29,0,0,1-.29-.28V178.7h-1.07v1.06a.28.28,0,0,1-.28.28h-1.06v1.07h1.06a.28.28,0,0,1,.28.28Z"/><path class="cls-7" d="M166.33,184.09H145.07a.16.16,0,0,1,0-.32h21.26a.16.16,0,1,1,0,.32Z"/><path class="cls-8" d="M166.33,184.21H145.07a.28.28,0,0,1-.29-.28.29.29,0,0,1,.29-.29h21.26a.29.29,0,0,1,.29.29A.28.28,0,0,1,166.33,184.21Zm-21.26-.32a0,0,0,0,0,0,0s0,0,0,0h21.26s0,0,0,0a0,0,0,0,0,0,0Z"/><path class="cls-7" d="M166.33,185.08H144.75a.16.16,0,1,1,0-.32h21.58a.16.16,0,0,1,0,.32Z"/><path class="cls-8" d="M166.33,185.2H144.75a.28.28,0,0,1-.29-.28.29.29,0,0,1,.29-.29h21.58a.29.29,0,0,1,.29.29A.28.28,0,0,1,166.33,185.2Zm-21.58-.32a0,0,0,0,0,0,0s0,0,0,0h21.58s0,0,0,0a0,0,0,0,0,0,0Z"/><path class="cls-7" d="M32.05,125.42l0-1.15a1,1,0,0,0-1-.88l-4.74-.12a1,1,0,0,0-1.06.83l0,1.15Zm-5.74-1.77,4.75.12c.35,0,.64.24.63.49V125l-6.05-.15v-.77C25.65,123.85,26,123.64,26.31,123.65Z"/><path class="cls-8" d="M32.17,125.55l-7.06-.18,0-1.28a.92.92,0,0,1,.37-.69,1.22,1.22,0,0,1,.81-.25l4.75.12a1.08,1.08,0,0,1,1.13,1Zm-6.81-.42,6.56.17,0-1a.83.83,0,0,0-.89-.75l-4.74-.12a1,1,0,0,0-.66.2.64.64,0,0,0-.27.5Zm6.44,0L25.5,125l0-.9a.7.7,0,0,1,.77-.57h0l4.75.12a.89.89,0,0,1,.53.18.54.54,0,0,1,.23.43Zm-6.05-.4,5.8.15,0-.65a.32.32,0,0,0-.14-.24.69.69,0,0,0-.38-.12l-4.74-.12h0c-.28,0-.52.15-.52.33Z"/><path class="cls-7" d="M22.31,135.55l12.29.32,0-1.73-12.3-.32Zm12-1,0,1-11.53-.3,0-1Z"/><path class="cls-8" d="M34.72,136H34.6l-12.42-.32.05-2h.13l12.41.32Zm-12.28-.57,12,.31,0-1.48-12-.31Zm11.91.18h-.12l-11.66-.3,0-1.22h.13l11.65.3Zm-11.52-.55,11.28.29,0-.72-11.28-.29Z"/><path class="cls-7" d="M36.48,147.3,37,126.59a.35.35,0,0,0-.34-.37l-16.09-.42a.37.37,0,0,0-.37.35l-.53,20.71v.08l0,0a.3.3,0,0,0,.07.14.22.22,0,0,0,.12.07l.08,0,16.13.41A.36.36,0,0,0,36.48,147.3Zm-16.4-.45h0l.51-20.66,16.06.42-.51,20.66Z"/><path class="cls-8" d="M36.12,147.77h0l-16.19-.43-.06,0a.39.39,0,0,1-.17-.1.47.47,0,0,1-.1-.18l0-.08v-.08l.53-20.72a.49.49,0,0,1,.15-.34.51.51,0,0,1,.33-.13h0l16.09.41a.53.53,0,0,1,.34.15.56.56,0,0,1,.13.35L36.6,147.3A.48.48,0,0,1,36.12,147.77ZM20,147.11l16.11.41h0a.23.23,0,0,0,.23-.23h0l.54-20.71a.2.2,0,0,0-.07-.16.25.25,0,0,0-.16-.08l-16.08-.41h0a.23.23,0,0,0-.16.06.26.26,0,0,0-.07.17l-.53,20.71,0,.09a.2.2,0,0,0,0,.08l.05,0h0Zm16.24.28h-.13L20,147l-.05,0,0-.11.51-20.77h.12l16.19.42v.12Zm-16.06-.66,15.81.41.5-20.42-15.81-.41Z"/><path class="cls-7" d="M22.17,140.5l12.29.32,0-1.74-12.29-.31Zm11.94-1,0,1-11.53-.3,0-1Z"/><path class="cls-8" d="M34.58,140.94h-.13L22,140.62l.05-2h.12l12.42.32Zm-12.29-.56,12.05.31,0-1.48-12-.31Zm11.92.17h-.13l-11.65-.3,0-1.22h.12l11.66.3ZM22.68,140,34,140.3l0-.72-11.28-.29Z"/><path class="cls-7" d="M22.24,138l12.29.31,0-1.73-12.29-.32ZM34.18,137l0,1-11.53-.3,0-1Z"/><path class="cls-8" d="M34.65,138.47h-.12l-12.42-.32.05-2h.13l12.41.32Zm-12.28-.57,12,.31,0-1.48-12.05-.31Zm11.91.18h-.12l-11.66-.3,0-1.22h.13l11.65.3Zm-11.52-.55,11.28.29,0-.72-11.29-.29Z"/><path class="cls-7" d="M26.5,130.83l1.28,0,0,1.27,1.56,0,0-1.27,1.26,0,0-1.57-1.26,0,0-1.27-1.57,0,0,1.27-1.28,0Zm1.69-1.14,0-1.27.81,0,0,1.27,1.26,0,0,.81-1.26,0,0,1.27-.8,0,0-1.27-1.28,0,0-.8Z"/><path class="cls-8" d="M29.44,132.31l-1.82-.05,0-1.27-1.28,0,.05-1.81,1.28,0,0-1.27,1.82,0,0,1.28,1.27,0-.05,1.82-1.26,0ZM27.88,132l1.31,0,0-1.27,1.27,0,0-1.32-1.26,0,0-1.27-1.32,0,0,1.28-1.28,0,0,1.32,1.29,0Zm1.18-.1-1,0,0-1.27-1.28,0,0-1.05,1.28,0,0-1.27,1.06,0,0,1.28,1.27,0,0,1.06-1.26,0Zm-.8-.27h.56l0-1.27,1.27,0,0-.56-1.27,0,0-1.27-.55,0,0,1.28-1.28,0,0,.56,1.29,0Z"/><path class="cls-7" d="M22.09,143l12.29.32,0-1.73-12.29-.32Zm12-1,0,1-11.53-.3,0-1Z"/><path class="cls-8" d="M34.51,143.42h-.13L22,143.09l.05-2h.12l12.42.32Zm-12.29-.57,12,.31,0-1.48-12-.31Zm11.92.18H34l-11.65-.3,0-1.22h.12l11.66.3Zm-11.53-.55,11.28.29,0-.72-11.28-.29Z"/><path d="M251.13,195a.23.23,0,0,1-.14,0,.28.28,0,0,1-.13-.23l0-3.53a.34.34,0,0,1,.19-.31,8.33,8.33,0,0,1,1.12-.48.28.28,0,0,1,.25,0,.24.24,0,0,1,.1.22l-.16,3.61a.34.34,0,0,1-.19.29l-.43.2-.45.21A.31.31,0,0,1,251.13,195Zm.08-3.79,0,3.36.32-.15.41-.19.15-3.41A7.3,7.3,0,0,0,251.21,191.17Zm0,0Z"/><path d="M251.82,181.67a2.87,2.87,0,0,1-1-.23,2.76,2.76,0,0,1,1.15-5.3h0a2.79,2.79,0,0,1,2.68,2.76,2.77,2.77,0,0,1-2.82,2.77Zm.09-5.16a2.39,2.39,0,1,0,2.35,2.39,2.41,2.41,0,0,0-2.31-2.39Zm-.07,4.28a2,2,0,0,1-.72-.16,1.88,1.88,0,0,1,.78-3.61h0a1.91,1.91,0,0,1,1.82,1.88,1.89,1.89,0,0,1-1.91,1.89Zm.06-3.58v.18a1.51,1.51,0,0,0-.63,2.9,1.58,1.58,0,0,0,1.15,0,1.51,1.51,0,0,0,1-1.41,1.55,1.55,0,0,0-1.46-1.51Z"/><path d="M249.81,189.53a.37.37,0,0,1-.15,0l-.2-.09-.08,0a4.15,4.15,0,0,1-1.6-1.16,1.76,1.76,0,0,1-.25-.45,1.42,1.42,0,0,1-.12-.52.31.31,0,0,1,0-.1V187a2.9,2.9,0,0,1,1.47-2.13l.2-.12h0l0,0a1.93,1.93,0,0,1,.92-.16.67.67,0,0,1,.5,1.15,1.92,1.92,0,0,1-.75.57,2.65,2.65,0,0,1-.37.12v0h-.21l-.22,0c-.49.05-.61.32-.63.48a.1.1,0,0,0,0,0,.81.81,0,0,0,.25.53,3.79,3.79,0,0,0,1.25.71l.68.25.23.09a.26.26,0,0,1,.17.24.27.27,0,0,1-.16.25,7.92,7.92,0,0,0-.77.38h0A.42.42,0,0,1,249.81,189.53Zm-.83-4.25a2.54,2.54,0,0,0-1.2,1.78v.15a1.3,1.3,0,0,0,.09.41,2.16,2.16,0,0,0,.21.37,3.85,3.85,0,0,0,1.47,1l.07,0,.19.09.11.16-.09-.16a5,5,0,0,1,.57-.29l-.67-.26a3.8,3.8,0,0,1-1.38-.8A1.11,1.11,0,0,1,248,187a.62.62,0,0,1,0-.09,1,1,0,0,1,1-.8h.3a1.77,1.77,0,0,0,.37-.12,1.56,1.56,0,0,0,.6-.44.41.41,0,0,0,.11-.38A.44.44,0,0,0,250,185a1.59,1.59,0,0,0-.74.14l-.21.11Zm1.66,3.46Z"/><path d="M251.47,201.57a.56.56,0,0,1-.56-.56v-.83l-.39-.25a4,4,0,0,1-.89-.81,2.37,2.37,0,0,1-.38-.69,2.06,2.06,0,0,1-.05-.88A2.57,2.57,0,0,1,250,196l.18-.16a3.84,3.84,0,0,1,.86-.57h0l.51-.27.37-.18.17-.09a5.39,5.39,0,0,0,1.35-.87,1.67,1.67,0,0,0,.49-1.24,2.19,2.19,0,0,0,0-.36,2,2,0,0,0-1-1.32l-.25-.16,0,0a.39.39,0,0,1-.25-.24.26.26,0,0,1,0-.21.41.41,0,0,1,.27-.15h0l.26-.09.08,0,.21-.07a.81.81,0,0,1,.66.33l0,0a3.49,3.49,0,0,1,.48.56h0a3,3,0,0,1,.45,1.22,2.9,2.9,0,0,1,0,.52,2.73,2.73,0,0,1-.12.74,2.58,2.58,0,0,1-.67,1.1,6.16,6.16,0,0,1-1.77,1.07l-.14.06-.11.1,0,0h0l-.39.17-.5.25a4,4,0,0,0-.55.34l-.14.12a1.76,1.76,0,0,0-.63,1.07,1.44,1.44,0,0,0,0,.62,1.77,1.77,0,0,0,.26.54,3.51,3.51,0,0,0,.73.72l.09.07,0-2.89a.34.34,0,0,1,.16-.3,6.78,6.78,0,0,1,.84-.45.21.21,0,0,1,.17,0,.31.31,0,0,1,.15-.14l.23-.1a.39.39,0,0,1,.42.1l.15.13a2.65,2.65,0,0,1,.88,1.73,2,2,0,0,1-.09.87,2.2,2.2,0,0,1-.4.68,3.53,3.53,0,0,1-.92.77,4.23,4.23,0,0,1-.4.24l0,.83A.55.55,0,0,1,251.47,201.57Zm-.19-1.62h0V201a.18.18,0,0,0,.19.18.19.19,0,0,0,.19-.18l0-.72h0l.18-3.93a5.37,5.37,0,0,0-.63.34Zm1-3.67-.14,3.32.09-.06a3.46,3.46,0,0,0,.76-.71,1.58,1.58,0,0,0,.27-.51,1.45,1.45,0,0,0,0-.63,1.88,1.88,0,0,0-.73-1.21A3.16,3.16,0,0,0,252.24,196.28Zm.31-.24.19.14,0,0,0,0-.13-.11-.06,0Zm-1.44-.41c-.13.08-.54.35-.74.51l0,0,0,0a4.61,4.61,0,0,1,.59-.37l.52-.25c.13-.07.26-.12.4-.18l.3-.14a5.38,5.38,0,0,0,1.66-1,2.13,2.13,0,0,0,.57-.94,2.44,2.44,0,0,0,.11-.64,3.32,3.32,0,0,0,0-.46,2.41,2.41,0,0,0-.4-1.06,3.14,3.14,0,0,0-.42-.51l0,0c-.1-.1-.24-.23-.34-.22l-.13,0-.1,0-.2.07.21.14a2.37,2.37,0,0,1,1.12,1.57,2,2,0,0,1,0,.42,2.14,2.14,0,0,1-.61,1.51,5.31,5.31,0,0,1-1.44.93l-.18.09-.36.18-.5.26Z"/><path d="M251.07,188.94a.23.23,0,0,1-.14,0,.27.27,0,0,1-.12-.22l0-3.51a.77.77,0,0,0-.31-.62.79.79,0,0,0-.68-.14,10.71,10.71,0,0,0-2,.76,2.78,2.78,0,0,1-2.31.24l-.45.22a2.7,2.7,0,0,1-2.4.19c-.21.12-.42.23-.64.33a2.47,2.47,0,0,1-2.73,0l-.45.2a6.79,6.79,0,0,1-4.83-.28.34.34,0,0,1-.12-.35c0-.19.27-.3.71-.38a13.51,13.51,0,0,0,6.87-3l.39-.3c1.59-1.25,3.56-2.81,5.22-2.57a2.39,2.39,0,0,1,1.6,1.06A4.76,4.76,0,0,0,250,181.7h0a6.44,6.44,0,0,0,1,.53h0a3,3,0,0,0,1.62,0h0a6.52,6.52,0,0,0,1-.49h0a4.66,4.66,0,0,0,1.36-1.2,2.35,2.35,0,0,1,1.64-1c1.66-.19,3.58,1.44,5.13,2.75l.37.32a13.62,13.62,0,0,0,6.76,3.29h0c.43.09.65.22.7.4a.36.36,0,0,1-.14.35,6.77,6.77,0,0,1-4.84.1l-.43-.21a2.49,2.49,0,0,1-2.73-.08c-.22-.11-.43-.22-.64-.35a2.74,2.74,0,0,1-2.38-.27l-.45-.25a2.73,2.73,0,0,1-2.3-.32,10.39,10.39,0,0,0-2-.83.8.8,0,0,0-1,.73l-.14,3.07-.13.17-.09,0c-.39.13-.79.28-1.19.44A.21.21,0,0,1,251.07,188.94ZM250,184a1.22,1.22,0,0,1,.68.24,1.19,1.19,0,0,1,.46.92l0,3.35c.34-.14.7-.26,1-.38l.13-2.95a1.16,1.16,0,0,1,1.5-1.06,10.45,10.45,0,0,1,2,.85,2.33,2.33,0,0,0,2.06.27l.08,0,.08,0,.52.28a2.32,2.32,0,0,0,2.14.23l.09,0,.09.05c.23.14.46.27.7.39a2.13,2.13,0,0,0,2.42.05l.1-.08.1.06.52.25a6.58,6.58,0,0,0,4.42,0,1.51,1.51,0,0,0-.37-.12,13.79,13.79,0,0,1-6.92-3.37l-.37-.31c-1.49-1.27-3.35-2.83-4.85-2.67a2,2,0,0,0-1.38.85,5.14,5.14,0,0,1-1.45,1.28l0,0h0a7,7,0,0,1-1.07.5l-.12.07,0,0a3.42,3.42,0,0,1-1.59,0l0,0-.13-.07a5.81,5.81,0,0,1-1-.53h0l-.05-.05a5.13,5.13,0,0,1-1.41-1.33,2,2,0,0,0-1.35-.9c-1.49-.21-3.4,1.29-4.93,2.49l-.38.31a14,14,0,0,1-7.05,3.12,2,2,0,0,0-.37.1,6.51,6.51,0,0,0,4.41.19l.54-.23.1-.05.09.07a2.14,2.14,0,0,0,2.43,0c.24-.11.47-.23.71-.36l.09,0,.09,0a2.38,2.38,0,0,0,2.15-.15l.52-.27.08,0,.09,0a2.32,2.32,0,0,0,2.06-.2,11.45,11.45,0,0,1,2.07-.78A1.24,1.24,0,0,1,250,184Z"/><path d="M250.46,195.31a.28.28,0,0,1-.15,0,4.85,4.85,0,0,1-1.24-.88,2.61,2.61,0,0,1-.72-1.86,4.17,4.17,0,0,1,0-.52,3.08,3.08,0,0,1,.5-1.21l.07-.08a3.63,3.63,0,0,1,.82-.78,6,6,0,0,1,.7-.44c.14-.08.29-.15.46-.23l.68-.29.11,0,.6-.21.57-.19.64-.22.21-.08a3.1,3.1,0,0,0,1.06-.58.76.76,0,0,0,.27-.52s0-.46-.65-.55h-.21a2,2,0,0,1-.55-.17,1.9,1.9,0,0,1-.73-.59.76.76,0,0,1-.12-.76c.2-.43.9-.51,1.58-.18l.26.14h0a2.83,2.83,0,0,1,1.4,2.28v.1a1.73,1.73,0,0,1-.14.52,1.9,1.9,0,0,1-.27.43,3.68,3.68,0,0,1-1.41,1l-.12.06-.11,0c-.39.17-.79.31-1.12.43l-.7.25-.42.15-.65.27a5.19,5.19,0,0,0-.67.35,2.4,2.4,0,0,0-.61.52,1.76,1.76,0,0,0-.39.77,1.84,1.84,0,0,0,0,.36,1.67,1.67,0,0,0,.4,1.2,3.29,3.29,0,0,0,.64.54c.12.08.24.16.37.23l.05,0a.67.67,0,0,1,.18.11.24.24,0,0,1,.08.22c0,.17-.2.26-.41.36l-.05,0A.34.34,0,0,1,250.46,195.31Zm3.81-9.11h.18c.8.11,1,.63,1,.93a1.13,1.13,0,0,1-.38.77,3.33,3.33,0,0,1-1.2.67l-.21.08-.65.22-.57.2-.58.2-.12,0-.66.28-.43.22a6.8,6.8,0,0,0-.66.41,3.46,3.46,0,0,0-.75.72l0,0s0,0,0,0a2.51,2.51,0,0,0-.44,1,3.23,3.23,0,0,0,0,.46,2.67,2.67,0,0,0,.08.64,2.19,2.19,0,0,0,.54,1,4.8,4.8,0,0,0,1.12.8l.06,0,.09-.05h0l-.39-.24a3.71,3.71,0,0,1-.71-.6,2,2,0,0,1-.49-1.47,2.55,2.55,0,0,1,.05-.42,2.06,2.06,0,0,1,.47-.93,2.79,2.79,0,0,1,.71-.6,4.65,4.65,0,0,1,.71-.37l.67-.28.43-.15.69-.25c.33-.12.72-.26,1.1-.42l.11-.05.12-.06a3.27,3.27,0,0,0,1.27-.89,1.42,1.42,0,0,0,.22-.34,1.46,1.46,0,0,0,.11-.41v-.08a2.45,2.45,0,0,0-1.15-1.91l-.07,0a1.13,1.13,0,0,0-.21-.12c-.5-.24-1-.2-1.08,0a.39.39,0,0,0,.09.38,1.54,1.54,0,0,0,.58.47A2.15,2.15,0,0,0,254.27,186.2Z"/><path d="M126.14,7.38l.29-.36A7.39,7.39,0,0,1,139,14.62l-.19.41Zm9.74-1.3-.22-.14h0a6.59,6.59,0,0,0-8.3,1.23l11.06,6.68A6.57,6.57,0,0,0,135.88,6.08Z"/><path d="M128.18,17.74a7.39,7.39,0,0,1-2.66-9.22l.19-.41,12.65,7.64-.28.37a7.4,7.4,0,0,1-9.65,1.78h0Zm-2.09-8.46a6.55,6.55,0,0,0,2.76,7.92h0A6.58,6.58,0,0,0,137.14,16Z"/><path d="M100.73,113.38,101,113a7.39,7.39,0,0,1,12.56,7.59l-.19.42Zm9.73-1.3-.22-.15h0a6.57,6.57,0,0,0-8.29,1.24l11,6.68A6.56,6.56,0,0,0,110.46,112.08Z"/><path d="M102.76,123.74a7.4,7.4,0,0,1-2.66-9.22l.19-.42,12.65,7.65-.28.36a7.39,7.39,0,0,1-9.65,1.78h0Zm-2.09-8.46a6.57,6.57,0,0,0,2.76,7.92h0a6.58,6.58,0,0,0,8.29-1.24Z"/><path d="M104.84,182.55l.28-.36a7.39,7.39,0,0,1,12.56,7.6l-.19.41Zm9.74-1.3-.23-.14h0a6.58,6.58,0,0,0-8.29,1.23L117.12,189A6.59,6.59,0,0,0,114.58,181.25Z"/><path d="M106.88,192.91a7.39,7.39,0,0,1-2.66-9.22l.19-.41,12.65,7.64-.28.37a7.41,7.41,0,0,1-9.66,1.78h0Zm-2.1-8.46a6.57,6.57,0,0,0,2.76,7.92h0a6.59,6.59,0,0,0,8.3-1.23Z"/><path class="cls-7" d="M245.23,137.38l.28-.36a7.39,7.39,0,0,1,12.56,7.59l-.19.41Zm9.74-1.31-.23-.14h0a6.58,6.58,0,0,0-8.29,1.23l11.06,6.69A6.59,6.59,0,0,0,255,136.07Z"/><path class="cls-7" d="M247.27,147.74a7.4,7.4,0,0,1-2.66-9.23l.19-.41,12.65,7.65-.28.36a7.41,7.41,0,0,1-9.66,1.78h0Zm-2.1-8.46a6.56,6.56,0,0,0,2.76,7.91h0a6.59,6.59,0,0,0,8.3-1.23Z"/><path class="cls-7" d="M95.8,26l.28-.36a7.39,7.39,0,0,1,12.57,7.59l-.19.42Zm9.74-1.3-.22-.14h0A6.56,6.56,0,0,0,97,25.81l11.06,6.68A6.56,6.56,0,0,0,105.54,24.72Z"/><path class="cls-7" d="M97.84,36.38a7.39,7.39,0,0,1-2.66-9.22l.19-.42L108,34.39l-.28.36a7.39,7.39,0,0,1-9.65,1.78h0Zm-2.09-8.46a6.55,6.55,0,0,0,2.76,7.92h0a6.58,6.58,0,0,0,8.29-1.24Z"/><path class="cls-7" d="M233.48,222.06l.28-.36a7.39,7.39,0,0,1,12.56,7.59l-.19.42Zm9.74-1.31-.23-.14h0a6.58,6.58,0,0,0-8.29,1.23l11.06,6.69A6.59,6.59,0,0,0,243.22,220.75Z"/><path class="cls-7" d="M235.52,232.42a7.39,7.39,0,0,1-2.66-9.22l.19-.42,12.65,7.65-.28.36a7.4,7.4,0,0,1-9.66,1.78h0Zm-2.1-8.46a6.56,6.56,0,0,0,2.76,7.91h0a6.58,6.58,0,0,0,8.3-1.23Z"/><path class="cls-7" d="M62.55,245.41l.28-.36a7.39,7.39,0,0,1,12.56,7.59l-.18.42Zm9.74-1.3-.23-.14h0a6.57,6.57,0,0,0-8.29,1.23l11.06,6.68A6.58,6.58,0,0,0,72.29,244.11Z"/><path class="cls-7" d="M64.59,255.77a7.39,7.39,0,0,1-2.66-9.22l.19-.42,12.65,7.65-.28.36a7.41,7.41,0,0,1-9.66,1.79h0Zm-2.09-8.46a6.55,6.55,0,0,0,2.76,7.92h0A6.58,6.58,0,0,0,73.55,254Z"/><path d="M205.61,188.91l.22-.28a5.71,5.71,0,0,1,9.71,5.86l-.15.33Zm7.53-1-.18-.11h0a5.09,5.09,0,0,0-6.41,1l8.55,5.17A5.09,5.09,0,0,0,213.14,187.9Z"/><path d="M207.19,196.91a5.7,5.7,0,0,1-2.06-7.12l.15-.33,9.77,5.91-.21.28a5.72,5.72,0,0,1-7.47,1.38h0Zm-1.62-6.54a5.06,5.06,0,0,0,2.13,6.12h0a5.09,5.09,0,0,0,6.41-1Z"/><path d="M11,175.67l.22-.28A5.71,5.71,0,0,1,21,181.26l-.15.32Zm7.53-1-.17-.11h0a5.09,5.09,0,0,0-6.41.95l8.54,5.17A5.09,5.09,0,0,0,18.56,174.66Z"/><path d="M12.61,183.67a5.7,5.7,0,0,1-2.06-7.12l.15-.32,9.78,5.91-.22.28a5.71,5.71,0,0,1-7.46,1.37h0A.76.76,0,0,1,12.61,183.67ZM11,177.14a5.09,5.09,0,0,0,2.13,6.12h0a5.1,5.1,0,0,0,6.41-1Z"/><g class="cls-1"><circle class="cls-2" cx="266.76" cy="117.53" r="8.87" transform="translate(91.09 350.14) rotate(-76.72)"/></g><circle class="cls-5" cx="266.39" cy="115.86" r="8.87" transform="translate(92.43 348.51) rotate(-76.72)"/><g class="cls-1"><circle class="cls-2" cx="143.79" cy="40.53" r="8.87" transform="translate(71.31 171.16) rotate(-76.72)"/></g><circle class="cls-5" cx="143.43" cy="38.86" r="8.87" transform="translate(14.53 112.8) rotate(-45)"/><g class="cls-1"><circle class="cls-2" cx="124.55" cy="223.42" r="8.87"/></g><circle class="cls-5" cx="124.19" cy="221.75" r="8.87" transform="translate(-120.43 152.76) rotate(-45)"/><g class="cls-1"><circle class="cls-2" cx="97.21" cy="219.33" r="10.8" transform="translate(-126.62 132.98) rotate(-45)"/></g><circle class="cls-6" cx="96.77" cy="217.3" r="10.8" transform="translate(-136.95 261.56) rotate(-76.72)"/><g class="cls-1"><circle class="cls-2" cx="10.23" cy="104.3" r="9.68"/></g><circle class="cls-6" cx="9.68" cy="101.78" r="9.68"/><g class="cls-1"><path class="cls-2" d="M280.15,156.69a5.11,5.11,0,1,1-5.11-5.11A5.1,5.1,0,0,1,280.15,156.69Z"/></g><path class="cls-6" d="M279.79,155a5.11,5.11,0,1,1-5.11-5.12A5.11,5.11,0,0,1,279.79,155Z"/><g class="cls-1"><circle class="cls-2" cx="222.19" cy="32.37" r="5.11"/></g><path class="cls-3" d="M226.94,30.71a5.11,5.11,0,1,1-5.11-5.12A5.11,5.11,0,0,1,226.94,30.71Z"/><g class="cls-1"><circle class="cls-2" cx="205.57" cy="32.84" r="5.11"/></g><path class="cls-5" d="M210.32,31.17a5.11,5.11,0,1,1-5.11-5.11A5.11,5.11,0,0,1,210.32,31.17Z"/><g class="cls-1"><path class="cls-2" d="M169.79,103.05a5.11,5.11,0,1,1-5.11-5.11A5.11,5.11,0,0,1,169.79,103.05Z"/></g><circle class="cls-5" cx="164.32" cy="101.38" r="5.11"/><g class="cls-1"><path class="cls-2" d="M227.66,137.52a5.11,5.11,0,1,1-5.11-5.12A5.11,5.11,0,0,1,227.66,137.52Z"/></g><path class="cls-4" d="M227.3,135.85a5.11,5.11,0,1,1-5.11-5.11A5.11,5.11,0,0,1,227.3,135.85Z"/><g class="cls-1"><path class="cls-2" d="M149.84,215a5.12,5.12,0,1,1-5.11-5.11A5.11,5.11,0,0,1,149.84,215Z"/></g><path class="cls-3" d="M149.48,213.3a5.12,5.12,0,1,1-5.11-5.11A5.11,5.11,0,0,1,149.48,213.3Z"/><g class="cls-1"><path class="cls-2" d="M116.89,141.79a5.11,5.11,0,1,1-5.11-5.11A5.11,5.11,0,0,1,116.89,141.79Z"/></g><path class="cls-3" d="M116.53,140.13a5.11,5.11,0,1,1-5.11-5.12A5.11,5.11,0,0,1,116.53,140.13Z"/><g class="cls-1"><path class="cls-2" d="M126.58,48.57a5.11,5.11,0,1,1-5.11-5.11A5.11,5.11,0,0,1,126.58,48.57Z"/></g><path class="cls-3" d="M126.22,46.9a5.11,5.11,0,1,1-5.11-5.11A5.11,5.11,0,0,1,126.22,46.9Z"/><g class="cls-1"><circle class="cls-2" cx="42.44" cy="248.86" r="5.11"/></g><path class="cls-3" d="M47.19,247.19a5.11,5.11,0,1,1-5.11-5.11A5.11,5.11,0,0,1,47.19,247.19Z"/><g class="cls-1"><circle class="cls-2" cx="75.29" cy="25.09" r="5.11"/></g><path class="cls-3" d="M80,23.43a5.11,5.11,0,1,1-5.11-5.12A5.11,5.11,0,0,1,80,23.43Z"/><g class="cls-1"><path class="cls-2" d="M163.27,7.57a5.11,5.11,0,1,1-5.11-5.11A5.11,5.11,0,0,1,163.27,7.57Z"/></g><circle class="cls-3" cx="157.8" cy="5.9" r="5.11"/><g class="cls-1"><path class="cls-2" d="M21.23,81a5.11,5.11,0,1,1-5.11-5.11A5.11,5.11,0,0,1,21.23,81Z"/></g><path class="cls-3" d="M20.87,79.32a5.11,5.11,0,1,1-5.11-5.11A5.11,5.11,0,0,1,20.87,79.32Z"/><g class="cls-1"><circle class="cls-2" cx="34.97" cy="165.65" r="5.11"/></g><path class="cls-5" d="M39.72,164a5.11,5.11,0,1,1-5.11-5.11A5.11,5.11,0,0,1,39.72,164Z"/><path class="cls-2" d="M155.09,280.1a6.42,6.42,0,1,1-6.42-6.42A6.41,6.41,0,0,1,155.09,280.1Z"/><path class="cls-4" d="M154.73,278.43a6.42,6.42,0,1,1-6.42-6.42A6.42,6.42,0,0,1,154.73,278.43Z"/></g></g></svg>